<svg width="30" height="36" viewBox="0 0 30 36" fill="none" xmlns="http://www.w3.org/2000/svg">
<path d="M12.1875 29.25C11.125 29.25 10.2083 28.8802 9.4375 28.1406C8.66667 27.401 8.22917 26.5104 8.125 25.4688C6.875 25.3021 5.83333 24.75 5 23.8125C4.16667 22.875 3.75 21.7708 3.75 20.5C3.75 20.0625 3.80729 19.6302 3.92188 19.2031C4.03646 18.776 4.20833 18.375 4.4375 18C4.20833 17.625 4.03646 17.2292 3.92188 16.8125C3.80729 16.3958 3.75 15.9583 3.75 15.5C3.75 14.2292 4.16667 13.1302 5 12.2031C5.83333 11.276 6.86458 10.7292 8.09375 10.5625C8.15625 9.5 8.58333 8.59896 9.375 7.85938C10.1667 7.11979 11.1042 6.75 12.1875 6.75C12.7292 6.75 13.2344 6.85417 13.7031 7.0625C14.1719 7.27083 14.6042 7.55208 15 7.90625C15.375 7.55208 15.8021 7.27083 16.2812 7.0625C16.7604 6.85417 17.2708 6.75 17.8125 6.75C18.8958 6.75 19.8281 7.11458 20.6094 7.84375C21.3906 8.57292 21.8125 9.46875 21.875 10.5312C23.1042 10.6979 24.1406 11.25 24.9844 12.1875C25.8281 13.125 26.25 14.2292 26.25 15.5C26.25 15.9583 26.1927 16.3958 26.0781 16.8125C25.9635 17.2292 25.7917 17.625 25.5625 18C25.7917 18.375 25.9635 18.776 26.0781 19.2031C26.1927 19.6302 26.25 20.0625 26.25 20.5C26.25 21.7917 25.8281 22.901 24.9844 23.8281C24.1406 24.7552 23.0938 25.3021 21.8438 25.4688C21.7396 26.5104 21.3073 27.401 20.5469 28.1406C19.7865 28.8802 18.875 29.25 17.8125 29.25C17.2917 29.25 16.7865 29.151 16.2969 28.9531C15.8073 28.7552 15.375 28.4792 15 28.125C14.6042 28.4792 14.1667 28.7552 13.6875 28.9531C13.2083 29.151 12.7083 29.25 12.1875 29.25ZM16.25 10.8125V25.1875C16.25 25.625 16.401 25.9948 16.7031 26.2969C17.0052 26.599 17.375 26.75 17.8125 26.75C18.2292 26.75 18.5885 26.5833 18.8906 26.25C19.1927 25.9167 19.3542 25.5417 19.375 25.125C18.9375 24.9583 18.5365 24.7344 18.1719 24.4531C17.8073 24.1719 17.4792 23.8333 17.1875 23.4375C16.9792 23.1458 16.901 22.8333 16.9531 22.5C17.0052 22.1667 17.1771 21.8958 17.4688 21.6875C17.7604 21.4792 18.0729 21.401 18.4062 21.4531C18.7396 21.5052 19.0104 21.6771 19.2188 21.9688C19.4479 22.3021 19.7396 22.5573 20.0938 22.7344C20.4479 22.9115 20.8333 23 21.25 23C21.9375 23 22.526 22.7552 23.0156 22.2656C23.5052 21.776 23.75 21.1875 23.75 20.5C23.75 20.3958 23.7448 20.2917 23.7344 20.1875C23.724 20.0833 23.6979 19.9792 23.6562 19.875C23.3021 20.0833 22.9219 20.2396 22.5156 20.3438C22.1094 20.4479 21.6875 20.5 21.25 20.5C20.8958 20.5 20.599 20.3802 20.3594 20.1406C20.1198 19.901 20 19.6042 20 19.25C20 18.8958 20.1198 18.599 20.3594 18.3594C20.599 18.1198 20.8958 18 21.25 18C21.9375 18 22.526 17.7552 23.0156 17.2656C23.5052 16.776 23.75 16.1875 23.75 15.5C23.75 14.8125 23.5052 14.2292 23.0156 13.75C22.526 13.2708 21.9375 13.0208 21.25 13C21.0208 13.375 20.724 13.7031 20.3594 13.9844C19.9948 14.2656 19.5938 14.4896 19.1562 14.6562C18.8229 14.7812 18.5 14.7708 18.1875 14.625C17.875 14.4792 17.6667 14.2396 17.5625 13.9062C17.4583 13.5729 17.474 13.25 17.6094 12.9375C17.7448 12.625 17.9792 12.4167 18.3125 12.3125C18.625 12.2083 18.8802 12.0208 19.0781 11.75C19.276 11.4792 19.375 11.1667 19.375 10.8125C19.375 10.375 19.224 10.0052 18.9219 9.70312C18.6198 9.40104 18.25 9.25 17.8125 9.25C17.375 9.25 17.0052 9.40104 16.7031 9.70312C16.401 10.0052 16.25 10.375 16.25 10.8125ZM13.75 25.1875V10.8125C13.75 10.375 13.599 10.0052 13.2969 9.70312C12.9948 9.40104 12.625 9.25 12.1875 9.25C11.75 9.25 11.3802 9.40104 11.0781 9.70312C10.776 10.0052 10.625 10.375 10.625 10.8125C10.625 11.1458 10.7188 11.4531 10.9062 11.7344C11.0938 12.0156 11.3438 12.2083 11.6562 12.3125C11.9896 12.4167 12.2292 12.625 12.375 12.9375C12.5208 13.25 12.5417 13.5729 12.4375 13.9062C12.3125 14.2396 12.0938 14.4792 11.7812 14.625C11.4688 14.7708 11.1458 14.7812 10.8125 14.6562C10.375 14.4896 9.97396 14.2656 9.60938 13.9844C9.24479 13.7031 8.94792 13.375 8.71875 13C8.05208 13.0208 7.47396 13.276 6.98438 13.7656C6.49479 14.2552 6.25 14.8333 6.25 15.5C6.25 16.1875 6.49479 16.776 6.98438 17.2656C7.47396 17.7552 8.0625 18 8.75 18C9.10417 18 9.40104 18.1198 9.64062 18.3594C9.88021 18.599 10 18.8958 10 19.25C10 19.6042 9.88021 19.901 9.64062 20.1406C9.40104 20.3802 9.10417 20.5 8.75 20.5C8.3125 20.5 7.89062 20.4479 7.48438 20.3438C7.07812 20.2396 6.69792 20.0833 6.34375 19.875C6.30208 19.9792 6.27604 20.0833 6.26562 20.1875C6.25521 20.2917 6.25 20.3958 6.25 20.5C6.25 21.1875 6.49479 21.776 6.98438 22.2656C7.47396 22.7552 8.0625 23 8.75 23C9.16667 23 9.55208 22.9115 9.90625 22.7344C10.2604 22.5573 10.5521 22.3021 10.7812 21.9688C10.9896 21.6771 11.2604 21.5052 11.5938 21.4531C11.9271 21.401 12.2396 21.4792 12.5312 21.6875C12.8229 21.8958 12.9948 22.1667 13.0469 22.5C13.099 22.8333 13.0208 23.1458 12.8125 23.4375C12.5208 23.8333 12.1875 24.1771 11.8125 24.4688C11.4375 24.7604 11.0312 24.9896 10.5938 25.1562C10.6146 25.5729 10.7812 25.9427 11.0938 26.2656C11.4062 26.5885 11.7708 26.75 12.1875 26.75C12.625 26.75 12.9948 26.599 13.2969 26.2969C13.599 25.9948 13.75 25.625 13.75 25.1875Z" fill="#E60000"/>
</svg>
