<svg width="20" height="20" viewBox="0 0 20 20" fill="none" xmlns="http://www.w3.org/2000/svg">
<path d="M9.71817 19.4365C8.37383 19.4365 7.11047 19.1814 5.92809 18.6712C4.74571 18.161 3.7172 17.4686 2.84257 16.594C1.96793 15.7193 1.27551 14.6908 0.765306 13.5084C0.255102 12.3261 0 11.0627 0 9.71835C0 8.374 0.255102 7.11064 0.765306 5.92826C1.27551 4.74588 1.96793 3.71737 2.84257 2.84274C3.7172 1.9681 4.74571 1.27568 5.92809 0.76548C7.11047 0.255276 8.37383 0.000173569 9.71817 0.000173569C11.0625 0.000173569 12.3259 0.255276 13.5083 0.76548C14.6906 1.27568 15.7191 1.9681 16.5938 2.84274C17.4684 3.71737 18.1608 4.74588 18.671 5.92826C19.1812 7.11064 19.4363 8.374 19.4363 9.71835V11.1275C19.4363 12.0831 19.1084 12.897 18.4524 13.5692C17.7964 14.2413 16.9906 14.5774 16.035 14.5774C15.4681 14.5774 14.9336 14.456 14.4315 14.213C13.9294 13.97 13.5083 13.6218 13.1681 13.1683C12.6984 13.638 12.168 13.9903 11.5768 14.2252C10.9856 14.46 10.3661 14.5774 9.71817 14.5774C8.37383 14.5774 7.22789 14.1037 6.28037 13.1562C5.33285 12.2086 4.85909 11.0627 4.85909 9.71835C4.85909 8.374 5.33285 7.22807 6.28037 6.28054C7.22789 5.33302 8.37383 4.85926 9.71817 4.85926C11.0625 4.85926 12.2085 5.33302 13.156 6.28054C14.1035 7.22807 14.5773 8.374 14.5773 9.71835V11.1275C14.5773 11.5486 14.7149 11.9049 14.9903 12.1965C15.2656 12.488 15.6139 12.6338 16.035 12.6338C16.4561 12.6338 16.8043 12.488 17.0797 12.1965C17.355 11.9049 17.4927 11.5486 17.4927 11.1275V9.71835C17.4927 7.54796 16.7396 5.7096 15.2332 4.20328C13.7269 2.69697 11.8886 1.94381 9.71817 1.94381C7.54778 1.94381 5.70943 2.69697 4.20311 4.20328C2.69679 5.7096 1.94363 7.54796 1.94363 9.71835C1.94363 11.8887 2.69679 13.7271 4.20311 15.2334C5.70943 16.7397 7.54778 17.4929 9.71817 17.4929H14.5773V19.4365H9.71817ZM9.71817 12.6338C9.71817 12.6338 9.92064 12.6338 10.3256 12.6338C10.7305 12.6338 11.2164 12.3504 11.7833 11.7835C12.3502 11.2166 12.6336 10.5282 12.6336 9.71835C12.6336 8.9085 12.3502 8.22013 11.7833 7.65324C11.2164 7.08634 10.528 6.8029 9.71817 6.8029C8.90833 6.8029 8.21996 7.08634 7.65306 7.65324C7.08617 8.22013 6.80272 8.9085 6.80272 9.71835C6.80272 10.5282 7.08617 11.2166 7.65306 11.7835C8.21996 12.3504 8.90833 12.6338 9.71817 12.6338Z" fill="#94A3B8"/>
</svg>
