<svg width="17" height="17" viewBox="0 0 17 17" fill="none" xmlns="http://www.w3.org/2000/svg">
<path d="M1.94444 16.5278C1.94444 16.5278 1.81076 16.5278 1.5434 16.5278C1.27604 16.5278 0.951968 16.3374 0.571181 15.9567C0.190394 15.5759 0 15.1181 0 14.5834C0 14.0487 0.190394 13.5909 0.571181 13.2101C0.951968 12.8293 1.40972 12.6389 1.94444 12.6389C2.47917 12.6389 2.93692 12.8293 3.31771 13.2101C3.6985 13.5909 3.88889 14.0487 3.88889 14.5834C3.88889 15.1181 3.6985 15.5759 3.31771 15.9567C2.93692 16.3374 2.47917 16.5278 1.94444 16.5278ZM13.6111 16.5278C13.6111 14.632 13.2546 12.8617 12.5417 11.2171C11.8287 9.57239 10.8565 8.13431 9.625 6.90283C8.39352 5.67135 6.95544 4.69913 5.31076 3.98617C3.66609 3.2732 1.89583 2.91672 0 2.91672V5.34058e-05C2.30093 5.34058e-05 4.44792 0.429453 6.44097 1.28825C8.43403 2.14705 10.184 3.32992 11.691 4.83686C13.1979 6.3438 14.3808 8.0938 15.2396 10.0869C16.0984 12.0799 16.5278 14.2269 16.5278 16.5278H13.6111ZM7.77778 16.5278C7.77778 15.4422 7.57523 14.4335 7.17014 13.5018C6.76505 12.5701 6.20602 11.7477 5.49306 11.0348C4.78009 10.3218 3.95775 9.76279 3.02604 9.35769C2.09433 8.9526 1.08565 8.75005 0 8.75005V5.83339C1.49074 5.83339 2.88021 6.1129 4.1684 6.67193C5.4566 7.23096 6.58681 7.99658 7.55903 8.9688C8.53125 9.94103 9.29688 11.0712 9.8559 12.3594C10.4149 13.6476 10.6944 15.0371 10.6944 16.5278H7.77778Z" fill="#94A3B8"/>
</svg>
