<svg width="28" height="28" viewBox="0 0 28 28" fill="none" xmlns="http://www.w3.org/2000/svg">
<path d="M1.5 27.7588V23.2588H6.15L2.325 10.7338C1.65 10.3588 1.09375 9.80879 0.65625 9.08379C0.21875 8.35879 0 7.58379 0 6.75879C0 5.50879 0.4375 4.44629 1.3125 3.57129C2.1875 2.69629 3.25 2.25879 4.5 2.25879C5.475 2.25879 6.34375 2.54004 7.10625 3.10254C7.86875 3.66504 8.4 4.38379 8.7 5.25879H13.5V3.75879C13.5 3.33379 13.6438 2.97754 13.9313 2.69004C14.2188 2.40254 14.575 2.25879 15 2.25879C15.225 2.25879 15.4438 2.30879 15.6563 2.40879C15.8688 2.50879 16.05 2.65879 16.2 2.85879L18.75 0.458788C18.975 0.233788 19.2438 0.0900383 19.5563 0.0275383C19.8688 -0.0349617 20.175 0.00878716 20.475 0.158789L26.325 2.85879C26.625 3.00879 26.8313 3.22754 26.9438 3.51504C27.0563 3.80254 27.05 4.08379 26.925 4.35879C26.775 4.65879 26.5563 4.85254 26.2688 4.94004C25.9813 5.02754 25.7 5.00879 25.425 4.88379L20.025 2.40879L16.5 5.70879V7.80879L20.025 11.0338L25.425 8.55879C25.7 8.43379 25.9875 8.42129 26.2875 8.52129C26.5875 8.62129 26.8 8.80879 26.925 9.08379C27.075 9.38379 27.0875 9.67129 26.9625 9.94629C26.8375 10.2213 26.625 10.4338 26.325 10.5838L20.475 13.3588C20.175 13.5088 19.8688 13.5525 19.5563 13.49C19.2438 13.4275 18.975 13.2838 18.75 13.0588L16.2 10.6588C16.05 10.8088 15.8688 10.9463 15.6563 11.0713C15.4438 11.1963 15.225 11.2588 15 11.2588C14.575 11.2588 14.2188 11.115 13.9313 10.8275C13.6438 10.54 13.5 10.1838 13.5 9.75879V8.25879H8.7C8.625 8.45879 8.54375 8.64629 8.45625 8.82129C8.36875 8.99629 8.25 9.18379 8.1 9.38379L15.6 23.2588H21V27.7588H1.5ZM4.5 8.25879C4.5 8.25879 4.60625 8.25879 4.81875 8.25879C5.03125 8.25879 5.28125 8.11504 5.56875 7.82754C5.85625 7.54004 6 7.18379 6 6.75879C6 6.33379 5.85625 5.97754 5.56875 5.69004C5.28125 5.40254 4.925 5.25879 4.5 5.25879C4.075 5.25879 3.71875 5.40254 3.43125 5.69004C3.14375 5.97754 3 6.33379 3 6.75879C3 7.18379 3.14375 7.54004 3.43125 7.82754C3.71875 8.11504 4.075 8.25879 4.5 8.25879ZM9.225 23.2588H12.15L5.7 11.2588C5.7 11.2588 5.675 11.2588 5.625 11.2588C5.575 11.2588 5.55 11.2588 5.55 11.2588L9.225 23.2588Z" fill="#E60000"/>
</svg>
