<svg width="14" height="14" viewBox="0 0 14 14" fill="none" xmlns="http://www.w3.org/2000/svg">
<path d="M5.7333 9.73337L10.4333 5.03337L9.49997 4.10004L5.7333 7.86671L3.8333 5.96671L2.89997 6.90004L5.7333 9.73337ZM6.66664 13.3334C5.74441 13.3334 4.87775 13.1584 4.06664 12.8084C3.25553 12.4584 2.54997 11.9834 1.94997 11.3834C1.34997 10.7834 0.87497 10.0778 0.52497 9.26671C0.174969 8.4556 -3.05176e-05 7.58893 -3.05176e-05 6.66671C-3.05176e-05 5.74448 0.174969 4.87782 0.52497 4.06671C0.87497 3.2556 1.34997 2.55004 1.94997 1.95004C2.54997 1.35004 3.25553 0.87504 4.06664 0.52504C4.87775 0.17504 5.74441 4.00543e-05 6.66664 4.00543e-05C7.58886 4.00543e-05 8.45553 0.17504 9.26664 0.52504C10.0777 0.87504 10.7833 1.35004 11.3833 1.95004C11.9833 2.55004 12.4583 3.2556 12.8083 4.06671C13.1583 4.87782 13.3333 5.74448 13.3333 6.66671C13.3333 7.58893 13.1583 8.4556 12.8083 9.26671C12.4583 10.0778 11.9833 10.7834 11.3833 11.3834C10.7833 11.9834 10.0777 12.4584 9.26664 12.8084C8.45553 13.1584 7.58886 13.3334 6.66664 13.3334ZM6.66664 12C8.15553 12 9.41664 11.4834 10.45 10.45C11.4833 9.41671 12 8.1556 12 6.66671C12 5.17782 11.4833 3.91671 10.45 2.88337C9.41664 1.85004 8.15553 1.33337 6.66664 1.33337C5.17775 1.33337 3.91664 1.85004 2.8833 2.88337C1.84997 3.91671 1.3333 5.17782 1.3333 6.66671C1.3333 8.1556 1.84997 9.41671 2.8833 10.45C3.91664 11.4834 5.17775 12 6.66664 12Z" fill="#8B0000"/>
</svg>
