<svg width="16" height="20" viewBox="0 0 16 20" fill="none" xmlns="http://www.w3.org/2000/svg">
<path d="M7.06668 13.0667L11.7667 8.36669L10.8333 7.43335L7.06668 11.2L5.16668 9.30002L4.23334 10.2334L7.06668 13.0667ZM8.00001 16.6667C7.07779 16.6667 6.21112 16.4917 5.40001 16.1417C4.5889 15.7917 3.88334 15.3167 3.28334 14.7167C2.68334 14.1167 2.20834 13.4111 1.85834 12.6C1.50834 11.7889 1.33334 10.9222 1.33334 10C1.33334 9.0778 1.50834 8.21113 1.85834 7.40002C2.20834 6.58891 2.68334 5.88335 3.28334 5.28335C3.88334 4.68335 4.5889 4.20835 5.40001 3.85835C6.21112 3.50835 7.07779 3.33335 8.00001 3.33335C8.92223 3.33335 9.7889 3.50835 10.6 3.85835C11.4111 4.20835 12.1167 4.68335 12.7167 5.28335C13.3167 5.88335 13.7917 6.58891 14.1417 7.40002C14.4917 8.21113 14.6667 9.0778 14.6667 10C14.6667 10.9222 14.4917 11.7889 14.1417 12.6C13.7917 13.4111 13.3167 14.1167 12.7167 14.7167C12.1167 15.3167 11.4111 15.7917 10.6 16.1417C9.7889 16.4917 8.92223 16.6667 8.00001 16.6667ZM8.00001 15.3334C9.4889 15.3334 10.75 14.8167 11.7833 13.7834C12.8167 12.75 13.3333 11.4889 13.3333 10C13.3333 8.51113 12.8167 7.25002 11.7833 6.21669C10.75 5.18335 9.4889 4.66669 8.00001 4.66669C6.51112 4.66669 5.25001 5.18335 4.21668 6.21669C3.18334 7.25002 2.66668 8.51113 2.66668 10C2.66668 11.4889 3.18334 12.75 4.21668 13.7834C5.25001 14.8167 6.51112 15.3334 8.00001 15.3334Z" fill="#8B0000"/>
</svg>
