<svg width="14" height="14" viewBox="0 0 14 14" fill="none" xmlns="http://www.w3.org/2000/svg">
<path d="M5.7333 9.73343L10.4333 5.03343L9.49997 4.1001L5.7333 7.86677L3.8333 5.96677L2.89997 6.9001L5.7333 9.73343ZM6.66664 13.3334C5.74441 13.3334 4.87775 13.1584 4.06664 12.8084C3.25553 12.4584 2.54997 11.9834 1.94997 11.3834C1.34997 10.7834 0.87497 10.0779 0.52497 9.26677C0.174969 8.45566 -3.05176e-05 7.58899 -3.05176e-05 6.66677C-3.05176e-05 5.74455 0.174969 4.87788 0.52497 4.06677C0.87497 3.25566 1.34997 2.5501 1.94997 1.9501C2.54997 1.3501 3.25553 0.875101 4.06664 0.525101C4.87775 0.175101 5.74441 0.000101089 6.66664 0.000101089C7.58886 0.000101089 8.45553 0.175101 9.26664 0.525101C10.0777 0.875101 10.7833 1.3501 11.3833 1.9501C11.9833 2.5501 12.4583 3.25566 12.8083 4.06677C13.1583 4.87788 13.3333 5.74455 13.3333 6.66677C13.3333 7.58899 13.1583 8.45566 12.8083 9.26677C12.4583 10.0779 11.9833 10.7834 11.3833 11.3834C10.7833 11.9834 10.0777 12.4584 9.26664 12.8084C8.45553 13.1584 7.58886 13.3334 6.66664 13.3334ZM6.66664 12.0001C8.15553 12.0001 9.41664 11.4834 10.45 10.4501C11.4833 9.41677 12 8.15566 12 6.66677C12 5.17788 11.4833 3.91677 10.45 2.88343C9.41664 1.8501 8.15553 1.33343 6.66664 1.33343C5.17775 1.33343 3.91664 1.8501 2.8833 2.88343C1.84997 3.91677 1.3333 5.17788 1.3333 6.66677C1.3333 8.15566 1.84997 9.41677 2.8833 10.4501C3.91664 11.4834 5.17775 12.0001 6.66664 12.0001Z" fill="#8B0000"/>
</svg>
