<svg width="15" height="16" viewBox="0 0 15 16" fill="none" xmlns="http://www.w3.org/2000/svg">
<path d="M9.7878 13.5556C9.32484 13.5556 8.93132 13.3935 8.60725 13.0694C8.28317 12.7454 8.12113 12.3519 8.12113 11.8889C8.12113 11.8333 8.13502 11.7037 8.1628 11.5L4.26002 9.22222C4.11188 9.36111 3.94058 9.46991 3.74613 9.54861C3.55169 9.62732 3.34336 9.66667 3.12113 9.66667C2.65817 9.66667 2.26465 9.50463 1.94058 9.18056C1.6165 8.85648 1.45447 8.46296 1.45447 8C1.45447 7.53704 1.6165 7.14352 1.94058 6.81945C2.26465 6.49537 2.65817 6.33333 3.12113 6.33333C3.34336 6.33333 3.55169 6.37269 3.74613 6.45139C3.94058 6.53009 4.11188 6.63889 4.26002 6.77778L8.1628 4.5C8.14428 4.43519 8.13271 4.37269 8.12808 4.3125C8.12345 4.25232 8.12113 4.18519 8.12113 4.11111C8.12113 3.64815 8.28317 3.25463 8.60725 2.93056C8.93132 2.60648 9.32484 2.44445 9.7878 2.44445C10.2508 2.44445 10.6443 2.60648 10.9684 2.93056C11.2924 3.25463 11.4545 3.64815 11.4545 4.11111C11.4545 4.57407 11.2924 4.96759 10.9684 5.29167C10.6443 5.61574 10.2508 5.77778 9.7878 5.77778C9.56558 5.77778 9.35725 5.73843 9.1628 5.65972C8.96836 5.58102 8.79706 5.47222 8.64891 5.33333L4.74613 7.61111C4.76465 7.67593 4.77623 7.73843 4.78086 7.79861C4.78549 7.8588 4.7878 7.92593 4.7878 8C4.7878 8.07408 4.78549 8.1412 4.78086 8.20139C4.77623 8.26158 4.76465 8.32408 4.74613 8.38889L8.64891 10.6667C8.79706 10.5278 8.96836 10.419 9.1628 10.3403C9.35725 10.2616 9.56558 10.2222 9.7878 10.2222C10.2508 10.2222 10.6443 10.3843 10.9684 10.7083C11.2924 11.0324 11.4545 11.4259 11.4545 11.8889C11.4545 12.3519 11.2924 12.7454 10.9684 13.0694C10.6443 13.3935 10.2508 13.5556 9.7878 13.5556ZM9.7878 12.4444C9.94521 12.4444 10.0772 12.3912 10.1836 12.2847C10.2901 12.1782 10.3434 12.0463 10.3434 11.8889C10.3434 11.7315 10.2901 11.5995 10.1836 11.4931C10.0772 11.3866 9.94521 11.3333 9.7878 11.3333C9.63039 11.3333 9.49845 11.3866 9.39197 11.4931C9.28549 11.5995 9.23225 11.7315 9.23225 11.8889C9.23225 12.0463 9.28549 12.1782 9.39197 12.2847C9.49845 12.3912 9.63039 12.4444 9.7878 12.4444ZM3.12113 8.55556C3.27854 8.55556 3.41049 8.50232 3.51697 8.39583C3.62345 8.28935 3.67669 8.15741 3.67669 8C3.67669 7.84259 3.62345 7.71065 3.51697 7.60417C3.41049 7.49769 3.27854 7.44445 3.12113 7.44445C2.96373 7.44445 2.83178 7.49769 2.7253 7.60417C2.61882 7.71065 2.56558 7.84259 2.56558 8C2.56558 8.15741 2.61882 8.28935 2.7253 8.39583C2.83178 8.50232 2.96373 8.55556 3.12113 8.55556ZM9.7878 4.66667C9.7878 4.66667 9.82715 4.66667 9.90586 4.66667C9.98456 4.66667 10.0772 4.61343 10.1836 4.50695C10.2901 4.40046 10.3434 4.26852 10.3434 4.11111C10.3434 3.9537 10.2901 3.82176 10.1836 3.71528C10.0772 3.6088 9.94521 3.55556 9.7878 3.55556C9.63039 3.55556 9.49845 3.6088 9.39197 3.71528C9.28549 3.82176 9.23225 3.9537 9.23225 4.11111C9.23225 4.26852 9.28549 4.40046 9.39197 4.50695C9.49845 4.61343 9.63039 4.66667 9.7878 4.66667Z" fill="#9CA3AF"/>
</svg>
