<svg width="12" height="9" viewBox="0 0 12 9" fill="none" xmlns="http://www.w3.org/2000/svg">
<path d="M1.11111 8.8889C0.805556 8.8889 0.543982 8.7801 0.326389 8.56251C0.108796 8.34492 0 8.08335 0 7.77779V1.11112C0 0.805567 0.108796 0.543993 0.326389 0.3264C0.543982 0.108808 0.805556 1.14441e-05 1.11111 1.14441e-05H10C10.3056 1.14441e-05 10.5671 0.108808 10.7847 0.3264C11.0023 0.543993 11.1111 0.805567 11.1111 1.11112V7.77779C11.1111 8.08335 11.0023 8.34492 10.7847 8.56251C10.5671 8.7801 10.3056 8.8889 10 8.8889H1.11111ZM5.55556 5.00001L1.11111 2.22223V7.77779H10V2.22223L5.55556 5.00001ZM5.55556 3.8889L10 1.11112H1.11111L5.55556 3.8889Z" fill="#9CA3AF"/>
</svg>
