<svg width="10" height="12" viewBox="0 0 10 12" fill="none" xmlns="http://www.w3.org/2000/svg">
<path d="M8.33333 11.1111C7.87037 11.1111 7.47685 10.9491 7.15278 10.625C6.8287 10.3009 6.66667 9.9074 6.66667 9.44443C6.66667 9.38888 6.68056 9.25925 6.70833 9.05554L2.80556 6.77777C2.65741 6.91665 2.48611 7.02545 2.29167 7.10415C2.09722 7.18286 1.88889 7.22221 1.66667 7.22221C1.2037 7.22221 0.810185 7.06017 0.486111 6.7361C0.162037 6.41202 0 6.01851 0 5.55554C0 5.09258 0.162037 4.69906 0.486111 4.37499C0.810185 4.05091 1.2037 3.88888 1.66667 3.88888C1.88889 3.88888 2.09722 3.92823 2.29167 4.00693C2.48611 4.08564 2.65741 4.19443 2.80556 4.33332L6.70833 2.05554C6.68982 1.99073 6.67824 1.92823 6.67361 1.86804C6.66898 1.80786 6.66667 1.74073 6.66667 1.66665C6.66667 1.20369 6.8287 0.810173 7.15278 0.486098C7.47685 0.162024 7.87037 -1.23978e-05 8.33333 -1.23978e-05C8.7963 -1.23978e-05 9.18981 0.162024 9.51389 0.486098C9.83796 0.810173 10 1.20369 10 1.66665C10 2.12962 9.83796 2.52314 9.51389 2.84721C9.18981 3.17128 8.7963 3.33332 8.33333 3.33332C8.11111 3.33332 7.90278 3.29397 7.70833 3.21527C7.51389 3.13656 7.34259 3.02777 7.19444 2.88888L3.29167 5.16665C3.31019 5.23147 3.32176 5.29397 3.32639 5.35415C3.33102 5.41434 3.33333 5.48147 3.33333 5.55554C3.33333 5.62962 3.33102 5.69675 3.32639 5.75693C3.32176 5.81712 3.31019 5.87962 3.29167 5.94443L7.19444 8.22221C7.34259 8.08332 7.51389 7.97452 7.70833 7.89582C7.90278 7.81712 8.11111 7.77777 8.33333 7.77777C8.7963 7.77777 9.18981 7.9398 9.51389 8.26388C9.83796 8.58795 10 8.98147 10 9.44443C10 9.9074 9.83796 10.3009 9.51389 10.625C9.18981 10.9491 8.7963 11.1111 8.33333 11.1111ZM8.33333 9.99999C8.49074 9.99999 8.62269 9.94675 8.72917 9.84027C8.83565 9.73378 8.88889 9.60184 8.88889 9.44443C8.88889 9.28703 8.83565 9.15508 8.72917 9.0486C8.62269 8.94212 8.49074 8.88888 8.33333 8.88888C8.17593 8.88888 8.04398 8.94212 7.9375 9.0486C7.83102 9.15508 7.77778 9.28703 7.77778 9.44443C7.77778 9.60184 7.83102 9.73378 7.9375 9.84027C8.04398 9.94675 8.17593 9.99999 8.33333 9.99999ZM1.66667 6.1111C1.82407 6.1111 1.95602 6.05786 2.0625 5.95138C2.16898 5.8449 2.22222 5.71295 2.22222 5.55554C2.22222 5.39814 2.16898 5.26619 2.0625 5.15971C1.95602 5.05323 1.82407 4.99999 1.66667 4.99999C1.50926 4.99999 1.37731 5.05323 1.27083 5.15971C1.16435 5.26619 1.11111 5.39814 1.11111 5.55554C1.11111 5.71295 1.16435 5.8449 1.27083 5.95138C1.37731 6.05786 1.50926 6.1111 1.66667 6.1111ZM8.33333 2.22221C8.33333 2.22221 8.37269 2.22221 8.45139 2.22221C8.53009 2.22221 8.62269 2.16897 8.72917 2.06249C8.83565 1.95601 8.88889 1.82406 8.88889 1.66665C8.88889 1.50925 8.83565 1.3773 8.72917 1.27082C8.62269 1.16434 8.49074 1.1111 8.33333 1.1111C8.17593 1.1111 8.04398 1.16434 7.9375 1.27082C7.83102 1.3773 7.77778 1.50925 7.77778 1.66665C7.77778 1.82406 7.83102 1.95601 7.9375 2.06249C8.04398 2.16897 8.17593 2.22221 8.33333 2.22221Z" fill="#9CA3AF"/>
</svg>
