<svg width="15" height="16" viewBox="0 0 15 16" fill="none" xmlns="http://www.w3.org/2000/svg">
<path d="M7.01002 13.5556C7.01002 13.5556 6.81789 13.5556 6.43363 13.5556C6.04938 13.5556 5.51928 13.4097 4.84336 13.1181C4.16743 12.8264 3.57947 12.4306 3.07947 11.9306C2.57947 11.4306 2.18363 10.8426 1.89197 10.1667C1.6003 9.49074 1.45447 8.76852 1.45447 8C1.45447 7.23148 1.6003 6.50926 1.89197 5.83333C2.18363 5.15741 2.57947 4.56945 3.07947 4.06945C3.57947 3.56945 4.16743 3.17361 4.84336 2.88195C5.51928 2.59028 6.24151 2.44445 7.01002 2.44445C7.77854 2.44445 8.50076 2.59028 9.17669 2.88195C9.85262 3.17361 10.4406 3.56945 10.9406 4.06945C11.4406 4.56945 11.8364 5.15741 12.1281 5.83333C12.4197 6.50926 12.5656 7.23148 12.5656 8C12.5656 8.76852 12.4197 9.49074 12.1281 10.1667C11.8364 10.8426 11.4406 11.4306 10.9406 11.9306C10.4406 12.4306 9.85262 12.8264 9.17669 13.1181C8.50076 13.4097 7.77854 13.5556 7.01002 13.5556ZM6.45447 12.4167V11.3333C6.14891 11.3333 5.88734 11.2245 5.66975 11.0069C5.45215 10.7894 5.34336 10.5278 5.34336 10.2222V9.66667L2.67669 7C2.64891 7.16667 2.62345 7.33333 2.6003 7.5C2.57715 7.66667 2.56558 7.83333 2.56558 8C2.56558 9.12037 2.93363 10.1019 3.66975 10.9444C4.40586 11.787 5.3341 12.2778 6.45447 12.4167ZM10.2878 11C10.6674 10.5833 10.9568 10.1181 11.1559 9.60417C11.3549 9.09028 11.4545 8.55556 11.4545 8C11.4545 7.09259 11.2022 6.26389 10.6975 5.51389C10.1929 4.76389 9.51928 4.22222 8.67669 3.88889V4.11111C8.67669 4.41667 8.56789 4.67824 8.3503 4.89583C8.13271 5.11343 7.87113 5.22222 7.56558 5.22222H6.45447V6.33333C6.45447 6.49074 6.40123 6.62269 6.29475 6.72917C6.18826 6.83565 6.05632 6.88889 5.89891 6.88889H4.7878V8H8.12113C8.27854 8 8.41049 8.05324 8.51697 8.15972C8.62345 8.2662 8.67669 8.39815 8.67669 8.55556V10.2222H9.23225C9.47299 10.2222 9.69058 10.294 9.88502 10.4375C10.0795 10.581 10.2137 10.7685 10.2878 11Z" fill="#9CA3AF"/>
</svg>
