<svg width="12" height="12" viewBox="0 0 12 12" fill="none" xmlns="http://www.w3.org/2000/svg">
<path d="M5.55556 11.1111C5.55556 11.1111 5.36343 11.1111 4.97917 11.1111C4.59491 11.1111 4.06482 10.9653 3.38889 10.6736C2.71296 10.3819 2.125 9.9861 1.625 9.4861C1.125 8.9861 0.729167 8.39814 0.4375 7.72221C0.145833 7.04628 0 6.32406 0 5.55554C0 4.78702 0.145833 4.0648 0.4375 3.38888C0.729167 2.71295 1.125 2.12499 1.625 1.62499C2.125 1.12499 2.71296 0.729154 3.38889 0.437488C4.06482 0.145821 4.78704 -1.23978e-05 5.55556 -1.23978e-05C6.32407 -1.23978e-05 7.0463 0.145821 7.72222 0.437488C8.39815 0.729154 8.98611 1.12499 9.48611 1.62499C9.98611 2.12499 10.3819 2.71295 10.6736 3.38888C10.9653 4.0648 11.1111 4.78702 11.1111 5.55554C11.1111 6.32406 10.9653 7.04628 10.6736 7.72221C10.3819 8.39814 9.98611 8.9861 9.48611 9.4861C8.98611 9.9861 8.39815 10.3819 7.72222 10.6736C7.0463 10.9653 6.32407 11.1111 5.55556 11.1111ZM5 9.97221V8.88888C4.69444 8.88888 4.43287 8.78008 4.21528 8.56249C3.99769 8.3449 3.88889 8.08332 3.88889 7.77777V7.22221L1.22222 4.55554C1.19444 4.72221 1.16898 4.88888 1.14583 5.05554C1.12269 5.22221 1.11111 5.38888 1.11111 5.55554C1.11111 6.67591 1.47917 7.6574 2.21528 8.49999C2.95139 9.34258 3.87963 9.83332 5 9.97221ZM8.83333 8.55554C9.21296 8.13888 9.50232 7.6736 9.70139 7.15971C9.90046 6.64582 10 6.1111 10 5.55554C10 4.64814 9.74769 3.81943 9.24306 3.06943C8.73843 2.31943 8.06482 1.77777 7.22222 1.44443V1.66665C7.22222 1.97221 7.11343 2.23378 6.89583 2.45138C6.67824 2.66897 6.41667 2.77777 6.11111 2.77777H5V3.88888C5 4.04628 4.94676 4.17823 4.84028 4.28471C4.7338 4.39119 4.60185 4.44443 4.44444 4.44443H3.33333V5.55554H6.66667C6.82407 5.55554 6.95602 5.60878 7.0625 5.71527C7.16898 5.82175 7.22222 5.95369 7.22222 6.1111V7.77777H7.77778C8.01852 7.77777 8.23611 7.84952 8.43056 7.99304C8.625 8.13656 8.75926 8.32406 8.83333 8.55554Z" fill="#9CA3AF"/>
</svg>
