<svg width="15" height="16" viewBox="0 0 15 16" fill="none" xmlns="http://www.w3.org/2000/svg">
<path d="M2.56558 12.4444C2.26002 12.4444 1.99845 12.3356 1.78086 12.1181C1.56326 11.9005 1.45447 11.6389 1.45447 11.3333V4.66666C1.45447 4.36111 1.56326 4.09953 1.78086 3.88194C1.99845 3.66435 2.26002 3.55555 2.56558 3.55555H11.4545C11.76 3.55555 12.0216 3.66435 12.2392 3.88194C12.4568 4.09953 12.5656 4.36111 12.5656 4.66666V11.3333C12.5656 11.6389 12.4568 11.9005 12.2392 12.1181C12.0216 12.3356 11.76 12.4444 11.4545 12.4444H2.56558ZM7.01002 8.55555L2.56558 5.77778V11.3333H11.4545V5.77778L7.01002 8.55555ZM7.01002 7.44444L11.4545 4.66666H2.56558L7.01002 7.44444Z" fill="#9CA3AF"/>
</svg>
