<svg width="13" height="20" viewBox="0 0 13 20" fill="none" xmlns="http://www.w3.org/2000/svg">
<path d="M9.23611 19.4444V16.5278H6.80556L10.2083 11.6667V14.5833H12.6389L9.23611 19.4444ZM0.972222 19.4444C0.696759 19.4444 0.465856 19.3513 0.279514 19.1649C0.0931713 18.9786 0 18.7477 0 18.4722V2.91666C0 2.6412 0.0931713 2.4103 0.279514 2.22396C0.465856 2.03761 0.696759 1.94444 0.972222 1.94444H2.91667V-2.02656e-06H6.80556V1.94444H8.75C9.02546 1.94444 9.25637 2.03761 9.44271 2.22396C9.62905 2.4103 9.72222 2.6412 9.72222 2.91666V9.72222C9.38194 9.72222 9.04977 9.75058 8.72569 9.80729C8.40162 9.864 8.08565 9.94907 7.77778 10.0625V3.88889H1.94444V17.5H4.22917C4.3588 17.8727 4.51678 18.2211 4.70313 18.5451C4.88947 18.8692 5.11227 19.169 5.37153 19.4444H0.972222Z" fill="white"/>
</svg>
