<svg width="25" height="28" viewBox="0 0 25 28" fill="none" xmlns="http://www.w3.org/2000/svg">
<path d="M16.385 23.7222V20.8056H13.9545L17.3572 15.9445V18.8611H19.7878L16.385 23.7222ZM8.12112 23.7222C7.84565 23.7222 7.61475 23.6291 7.42841 23.4427C7.24207 23.2564 7.1489 23.0255 7.1489 22.75V7.19445C7.1489 6.91899 7.24207 6.68809 7.42841 6.50174C7.61475 6.3154 7.84565 6.22223 8.12112 6.22223H10.0656V4.27778H13.9545V6.22223H15.8989C16.1744 6.22223 16.4053 6.3154 16.5916 6.50174C16.7779 6.68809 16.8711 6.91899 16.8711 7.19445V14C16.5308 14 16.1987 14.0284 15.8746 14.0851C15.5505 14.1418 15.2345 14.2269 14.9267 14.3403V8.16667H9.09334V21.7778H11.3781C11.5077 22.1505 11.6657 22.4988 11.852 22.8229C12.0384 23.147 12.2612 23.4468 12.5204 23.7222H8.12112Z" fill="white"/>
</svg>
