<svg width="18" height="20" viewBox="0 0 18 20" fill="none" xmlns="http://www.w3.org/2000/svg">
<path d="M7.77778 16.941V10.2812L1.94444 6.90278V13.5625L7.77778 16.941ZM9.72222 16.941L15.5556 13.5625V6.90278L9.72222 10.2812V16.941ZM7.77778 19.1771L0.972222 15.2639C0.664352 15.0856 0.425347 14.8507 0.255208 14.559C0.0850694 14.2674 0 13.9433 0 13.5868V5.85764C0 5.50116 0.0850694 5.17708 0.255208 4.88541C0.425347 4.59375 0.664352 4.35879 0.972222 4.18055L7.77778 0.267359C8.08565 0.0891183 8.40972 -2.02656e-06 8.75 -2.02656e-06C9.09028 -2.02656e-06 9.41435 0.0891183 9.72222 0.267359L16.5278 4.18055C16.8356 4.35879 17.0747 4.59375 17.2448 4.88541C17.4149 5.17708 17.5 5.50116 17.5 5.85764V13.5868C17.5 13.9433 17.4149 14.2674 17.2448 14.559C17.0747 14.8507 16.8356 15.0856 16.5278 15.2639L9.72222 19.1771C9.41435 19.3553 9.09028 19.4444 8.75 19.4444C8.40972 19.4444 8.08565 19.3553 7.77778 19.1771ZM12.6389 6.34375L14.5104 5.2743L8.75 1.94444L6.85417 3.03819L12.6389 6.34375ZM8.75 8.60416L10.6458 7.51041L4.88542 4.18055L2.98958 5.2743L8.75 8.60416Z" fill="#8B0000"/>
</svg>
