<svg width="25" height="28" viewBox="0 0 25 28" fill="none" xmlns="http://www.w3.org/2000/svg">
<path d="M11.0378 21.2188V14.559L5.20444 11.1806V17.8403L11.0378 21.2188ZM12.9822 21.2188L18.8156 17.8403V11.1806L12.9822 14.559V21.2188ZM11.0378 23.4549L4.23222 19.5417C3.92435 19.3634 3.68535 19.1285 3.51521 18.8368C3.34507 18.5451 3.26 18.2211 3.26 17.8646V10.1354C3.26 9.77894 3.34507 9.45487 3.51521 9.1632C3.68535 8.87153 3.92435 8.63658 4.23222 8.45834L11.0378 4.54515C11.3456 4.3669 11.6697 4.27778 12.01 4.27778C12.3503 4.27778 12.6744 4.3669 12.9822 4.54515L19.7878 8.45834C20.0956 8.63658 20.3347 8.87153 20.5048 9.1632C20.6749 9.45487 20.76 9.77894 20.76 10.1354V17.8646C20.76 18.2211 20.6749 18.5451 20.5048 18.8368C20.3347 19.1285 20.0956 19.3634 19.7878 19.5417L12.9822 23.4549C12.6744 23.6331 12.3503 23.7222 12.01 23.7222C11.6697 23.7222 11.3456 23.6331 11.0378 23.4549ZM15.8989 10.6215L17.7704 9.55209L12.01 6.22223L10.1142 7.31598L15.8989 10.6215ZM12.01 12.882L13.9058 11.7882L8.14542 8.45834L6.24958 9.55209L12.01 12.882Z" fill="#8B0000"/>
</svg>
