<svg width="20" height="20" viewBox="0 0 20 20" fill="none" xmlns="http://www.w3.org/2000/svg">
<path d="M6.80556 11.9097C6.80556 11.9097 6.72049 11.9097 6.55035 11.9097C6.38021 11.9097 6.17766 11.7922 5.94271 11.5573C5.70775 11.3223 5.59028 11.0347 5.59028 10.6944C5.59028 10.3542 5.70775 10.0665 5.94271 9.8316C6.17766 9.59664 6.46528 9.47916 6.80556 9.47916C7.14583 9.47916 7.43345 9.59664 7.6684 9.8316C7.90336 10.0665 8.02083 10.3542 8.02083 10.6944C8.02083 11.0347 7.90336 11.3223 7.6684 11.5573C7.43345 11.7922 7.14583 11.9097 6.80556 11.9097ZM12.6389 11.9097C12.6389 11.9097 12.5538 11.9097 12.3837 11.9097C12.2135 11.9097 12.011 11.7922 11.776 11.5573C11.5411 11.3223 11.4236 11.0347 11.4236 10.6944C11.4236 10.3542 11.5411 10.0665 11.776 9.8316C12.011 9.59664 12.2986 9.47916 12.6389 9.47916C12.9792 9.47916 13.2668 9.59664 13.5017 9.8316C13.7367 10.0665 13.8542 10.3542 13.8542 10.6944C13.8542 11.0347 13.7367 11.3223 13.5017 11.5573C13.2668 11.7922 12.9792 11.9097 12.6389 11.9097ZM9.72222 17.5C11.8935 17.5 13.7326 16.7465 15.2396 15.2396C16.7465 13.7326 17.5 11.8935 17.5 9.72222C17.5 9.33333 17.4757 8.9566 17.4271 8.59201C17.3785 8.22743 17.2894 7.875 17.1597 7.53472C16.8194 7.61574 16.4792 7.6765 16.1389 7.71701C15.7986 7.75752 15.4421 7.77778 15.0694 7.77778C13.5949 7.77778 12.2014 7.4618 10.8889 6.82986C9.57639 6.19791 8.45833 5.31481 7.53472 4.18055C7.0162 5.44444 6.27488 6.54224 5.31076 7.47396C4.34664 8.40567 3.22454 9.10648 1.94444 9.57639C1.94444 9.60879 1.94444 9.6331 1.94444 9.6493C1.94444 9.66551 1.94444 9.68981 1.94444 9.72222C1.94444 11.8935 2.69792 13.7326 4.20486 15.2396C5.71181 16.7465 7.55093 17.5 9.72222 17.5ZM9.72222 19.4444C8.37731 19.4444 7.11343 19.1892 5.93056 18.6788C4.74769 18.1684 3.71875 17.4757 2.84375 16.6007C1.96875 15.7257 1.27604 14.6968 0.765625 13.5139C0.255208 12.331 0 11.0671 0 9.72222C0 8.37731 0.255208 7.11342 0.765625 5.93055C1.27604 4.74768 1.96875 3.71875 2.84375 2.84375C3.71875 1.96875 4.74769 1.27604 5.93056 0.765623C7.11343 0.255206 8.37731 -2.02656e-06 9.72222 -2.02656e-06C11.0671 -2.02656e-06 12.331 0.255206 13.5139 0.765623C14.6968 1.27604 15.7257 1.96875 16.6007 2.84375C17.4757 3.71875 18.1684 4.74768 18.6788 5.93055C19.1892 7.11342 19.4444 8.37731 19.4444 9.72222C19.4444 11.0671 19.1892 12.331 18.6788 13.5139C18.1684 14.6968 17.4757 15.7257 16.6007 16.6007C15.7257 17.4757 14.6968 18.1684 13.5139 18.6788C12.331 19.1892 11.0671 19.4444 9.72222 19.4444ZM8.40972 2.06597C9.09028 3.20023 10.0139 4.11169 11.1806 4.80035C12.3472 5.489 13.6435 5.83333 15.0694 5.83333C15.2963 5.83333 15.515 5.82118 15.7257 5.79687C15.9363 5.77257 16.1551 5.74421 16.3819 5.7118C15.7014 4.57754 14.7778 3.66609 13.6111 2.97743C12.4444 2.28877 11.1481 1.94444 9.72222 1.94444C9.49537 1.94444 9.27662 1.9566 9.06597 1.9809C8.85532 2.00521 8.63657 2.03356 8.40972 2.06597ZM2.35764 7.26736C3.18403 6.79745 3.90509 6.18981 4.52083 5.44444C5.13657 4.69907 5.59838 3.86458 5.90625 2.94097C5.07986 3.41088 4.3588 4.01852 3.74306 4.76389C3.12731 5.50926 2.66551 6.34375 2.35764 7.26736Z" fill="white"/>
</svg>
