<svg width="25" height="28" viewBox="0 0 25 28" fill="none" xmlns="http://www.w3.org/2000/svg">
<path d="M9.09334 16.1875C9.09334 16.1875 9.00827 16.1875 8.83813 16.1875C8.66799 16.1875 8.46544 16.07 8.23049 15.8351C7.99554 15.6001 7.87806 15.3125 7.87806 14.9722C7.87806 14.632 7.99554 14.3443 8.23049 14.1094C8.46544 13.8744 8.75306 13.757 9.09334 13.757C9.43361 13.757 9.72123 13.8744 9.95618 14.1094C10.1911 14.3443 10.3086 14.632 10.3086 14.9722C10.3086 15.3125 10.1911 15.6001 9.95618 15.8351C9.72123 16.07 9.43361 16.1875 9.09334 16.1875ZM14.9267 16.1875C14.9267 16.1875 14.8416 16.1875 14.6715 16.1875C14.5013 16.1875 14.2988 16.07 14.0638 15.8351C13.8289 15.6001 13.7114 15.3125 13.7114 14.9722C13.7114 14.632 13.8289 14.3443 14.0638 14.1094C14.2988 13.8744 14.5864 13.757 14.9267 13.757C15.2669 13.757 15.5546 13.8744 15.7895 14.1094C16.0245 14.3443 16.1419 14.632 16.1419 14.9722C16.1419 15.3125 16.0245 15.6001 15.7895 15.8351C15.5546 16.07 15.2669 16.1875 14.9267 16.1875ZM12.01 21.7778C14.1813 21.7778 16.0204 21.0243 17.5274 19.5174C19.0343 18.0104 19.7878 16.1713 19.7878 14C19.7878 13.6111 19.7635 13.2344 19.7149 12.8698C19.6663 12.5052 19.5771 12.1528 19.4475 11.8125C19.1072 11.8935 18.7669 11.9543 18.4267 11.9948C18.0864 12.0353 17.7299 12.0556 17.3572 12.0556C15.8827 12.0556 14.4892 11.7396 13.1767 11.1076C11.8642 10.4757 10.7461 9.5926 9.8225 8.45834C9.30398 9.72223 8.56267 10.82 7.59854 11.7517C6.63442 12.6835 5.51232 13.3843 4.23223 13.8542C4.23223 13.8866 4.23223 13.9109 4.23223 13.9271C4.23223 13.9433 4.23223 13.9676 4.23223 14C4.23223 16.1713 4.9857 18.0104 6.49264 19.5174C7.99959 21.0243 9.83871 21.7778 12.01 21.7778ZM12.01 23.7222C10.6651 23.7222 9.40121 23.467 8.21834 22.9566C7.03547 22.4462 6.00653 21.7535 5.13153 20.8785C4.25653 20.0035 3.56382 18.9745 3.05341 17.7917C2.54299 16.6088 2.28778 15.3449 2.28778 14C2.28778 12.6551 2.54299 11.3912 3.05341 10.2083C3.56382 9.02547 4.25653 7.99653 5.13153 7.12153C6.00653 6.24653 7.03547 5.55383 8.21834 5.04341C9.40121 4.53299 10.6651 4.27778 12.01 4.27778C13.3549 4.27778 14.6188 4.53299 15.8017 5.04341C16.9845 5.55383 18.0135 6.24653 18.8885 7.12153C19.7635 7.99653 20.4562 9.02547 20.9666 10.2083C21.477 11.3912 21.7322 12.6551 21.7322 14C21.7322 15.3449 21.477 16.6088 20.9666 17.7917C20.4562 18.9745 19.7635 20.0035 18.8885 20.8785C18.0135 21.7535 16.9845 22.4462 15.8017 22.9566C14.6188 23.467 13.3549 23.7222 12.01 23.7222ZM10.6975 6.34376C11.3781 7.47802 12.3017 8.38947 13.4683 9.07813C14.635 9.76679 15.9313 10.1111 17.3572 10.1111C17.5841 10.1111 17.8028 10.099 18.0135 10.0747C18.2241 10.0504 18.4429 10.022 18.6697 9.98959C17.9892 8.85533 17.0656 7.94387 15.8989 7.25521C14.7322 6.56656 13.4359 6.22223 12.01 6.22223C11.7832 6.22223 11.5644 6.23438 11.3538 6.25869C11.1431 6.28299 10.9244 6.31135 10.6975 6.34376ZM4.64542 11.5451C5.47181 11.0752 6.19287 10.4676 6.80861 9.72223C7.42435 8.97686 7.88616 8.14237 8.19403 7.21876C7.36764 7.68866 6.64658 8.2963 6.03084 9.04167C5.4151 9.78704 4.95329 10.6215 4.64542 11.5451Z" fill="white"/>
</svg>
