<svg width="25" height="28" viewBox="0 0 25 28" fill="none" xmlns="http://www.w3.org/2000/svg">
<path d="M4.20617 22.7405V19.8251H7.2188L4.74067 11.7104C4.30335 11.4675 3.94297 11.1111 3.65952 10.6414C3.37607 10.1717 3.23435 9.66959 3.23435 9.13509C3.23435 8.32525 3.5178 7.63688 4.08469 7.06998C4.65158 6.50309 5.33995 6.21964 6.1498 6.21964C6.78148 6.21964 7.34433 6.40186 7.83833 6.76629C8.33234 7.13072 8.67653 7.59638 8.87089 8.16328H11.9807V7.19146C11.9807 6.91611 12.0738 6.6853 12.2601 6.49904C12.4464 6.31277 12.6772 6.21964 12.9525 6.21964C13.0983 6.21964 13.24 6.25204 13.3777 6.31682C13.5154 6.38161 13.6328 6.47879 13.73 6.60837L15.3821 5.05346C15.5278 4.90769 15.702 4.81456 15.9044 4.77406C16.1069 4.73357 16.3053 4.76192 16.4997 4.8591L20.2897 6.60837C20.4841 6.70555 20.6177 6.84727 20.6906 7.03354C20.7635 7.2198 20.7595 7.40202 20.6785 7.58019C20.5813 7.77455 20.4396 7.90008 20.2533 7.95677C20.067 8.01345 19.8848 8.00131 19.7067 7.92032L16.2081 6.31682L13.9243 8.45482V9.81537L16.2081 11.9048L19.7067 10.3013C19.8848 10.2203 20.0711 10.2122 20.2654 10.277C20.4598 10.3418 20.5975 10.4632 20.6785 10.6414C20.7757 10.8358 20.7838 11.022 20.7028 11.2002C20.6218 11.3784 20.4841 11.516 20.2897 11.6132L16.4997 13.4111C16.3053 13.5083 16.1069 13.5366 15.9044 13.4961C15.702 13.4556 15.5278 13.3625 15.3821 13.2167L13.73 11.6618C13.6328 11.759 13.5154 11.8481 13.3777 11.9291C13.24 12.0101 13.0983 12.0505 12.9525 12.0505C12.6772 12.0505 12.4464 11.9574 12.2601 11.7711C12.0738 11.5849 11.9807 11.3541 11.9807 11.0787V10.1069H8.87089C8.8223 10.2365 8.76966 10.358 8.71297 10.4713C8.65628 10.5847 8.57934 10.7062 8.48216 10.8358L13.3412 19.8251H16.8398V22.7405H4.20617ZM6.1498 10.1069C6.1498 10.1069 6.21864 10.1069 6.35631 10.1069C6.49399 10.1069 6.65596 10.0138 6.84222 9.82751C7.02849 9.64125 7.12162 9.41044 7.12162 9.13509C7.12162 8.85975 7.02849 8.62894 6.84222 8.44267C6.65596 8.25641 6.42515 8.16328 6.1498 8.16328C5.87445 8.16328 5.64365 8.25641 5.45738 8.44267C5.27112 8.62894 5.17798 8.85975 5.17798 9.13509C5.17798 9.41044 5.27112 9.64125 5.45738 9.82751C5.64365 10.0138 5.87445 10.1069 6.1498 10.1069ZM9.21103 19.8251H11.1061L6.92725 12.0505C6.92725 12.0505 6.91106 12.0505 6.87866 12.0505C6.84627 12.0505 6.83007 12.0505 6.83007 12.0505L9.21103 19.8251Z" fill="#8B0000"/>
</svg>
