<svg width="25" height="28" viewBox="0 0 25 28" fill="none" xmlns="http://www.w3.org/2000/svg">
<path d="M10.0656 23.7222V21.7778H22.7044V23.7222H10.0656ZM11.0378 20.8056C11.0378 19.4931 11.451 18.3467 12.2774 17.3663C13.1038 16.386 14.1489 15.7824 15.4128 15.5556V14.9479C15.4128 14.6725 15.5059 14.4416 15.6923 14.2552C15.8786 14.0689 16.1095 13.9757 16.385 13.9757C16.6605 13.9757 16.8914 14.0689 17.0777 14.2552C17.2641 14.4416 17.3572 14.6725 17.3572 14.9479V15.5556C18.6049 15.7824 19.646 16.386 20.4805 17.3663C21.315 18.3467 21.7322 19.4931 21.7322 20.8056H11.0378ZM13.5899 18.8368H19.1315C18.8237 18.3993 18.4307 18.0469 17.9527 17.7795C17.4747 17.5122 16.9521 17.3785 16.385 17.3785C15.8017 17.3785 15.2669 17.5122 14.7808 17.7795C14.2947 18.0469 13.8977 18.3993 13.5899 18.8368ZM1.31556 14.9722V4.27778H7.14889V5.68751L13.9544 3.79167L21.7322 6.22223V7.19445C21.7322 8.00464 21.4487 8.69329 20.8815 9.26042C20.3144 9.82755 19.6257 10.1111 18.8156 10.1111H16.8711V10.6945C16.8711 11.0995 16.7536 11.4682 16.5187 11.8004C16.2837 12.1325 15.9799 12.3715 15.6072 12.5174L9.04472 14.9722H1.31556ZM3.26 13.0278H5.20444V6.22223H3.26V13.0278ZM7.14889 13.0278H8.70444L14.3433 10.9618C14.5216 10.897 14.6634 10.7876 14.7687 10.6337C14.874 10.4798 14.9267 10.3056 14.9267 10.1111H13.201L10.3572 11.0347L9.77389 9.18751L12.8121 8.16667H18.8156C18.9614 8.16667 19.1437 8.11401 19.3624 8.00869C19.5812 7.90336 19.6906 7.77778 19.6906 7.63195L13.9058 5.83334L7.14889 7.68056V13.0278Z" fill="#8B0000"/>
</svg>
