<svg width="18" height="18" viewBox="0 0 18 18" fill="none" xmlns="http://www.w3.org/2000/svg">
<path d="M0.971817 17.9843V15.0689H3.98445L1.50632 6.95419C1.069 6.71123 0.708617 6.3549 0.42517 5.88519C0.141723 5.41547 0 4.91337 0 4.37887C0 3.56902 0.283447 2.88065 0.85034 2.31376C1.41723 1.74686 2.1056 1.46342 2.91545 1.46342C3.54713 1.46342 4.10998 1.64563 4.60398 2.01006C5.09799 2.37449 5.44218 2.84016 5.63654 3.40705H8.74636V2.43523C8.74636 2.15989 8.83949 1.92908 9.02575 1.74281C9.21202 1.55655 9.44283 1.46342 9.71817 1.46342C9.86395 1.46342 10.0057 1.49581 10.1433 1.5606C10.281 1.62539 10.3984 1.72257 10.4956 1.85214L12.1477 0.297235C12.2935 0.151462 12.4676 0.0583299 12.6701 0.0178375C12.8725 -0.0226549 13.0709 0.00568978 13.2653 0.102872L17.0554 1.85214C17.2498 1.94932 17.3834 2.09105 17.4563 2.27731C17.5292 2.46358 17.5251 2.64579 17.4441 2.82396C17.3469 3.01832 17.2052 3.14385 17.019 3.20054C16.8327 3.25723 16.6505 3.24508 16.4723 3.1641L12.9738 1.5606L10.69 3.6986V5.05914L12.9738 7.14855L16.4723 5.54505C16.6505 5.46406 16.8367 5.45597 17.0311 5.52075C17.2255 5.58554 17.3631 5.70702 17.4441 5.88519C17.5413 6.07955 17.5494 6.26581 17.4684 6.44398C17.3874 6.62215 17.2498 6.75982 17.0554 6.857L13.2653 8.65487C13.0709 8.75205 12.8725 8.78039 12.6701 8.7399C12.4676 8.69941 12.2935 8.60627 12.1477 8.4605L10.4956 6.90559C10.3984 7.00278 10.281 7.09186 10.1433 7.17284C10.0057 7.25383 9.86395 7.29432 9.71817 7.29432C9.44283 7.29432 9.21202 7.20119 9.02575 7.01492C8.83949 6.82866 8.74636 6.59785 8.74636 6.3225V5.35069H5.63654C5.58795 5.48026 5.53531 5.60174 5.47862 5.71512C5.42193 5.8285 5.345 5.94997 5.24781 6.07955L10.1069 15.0689H13.6054V17.9843H0.971817ZM2.91545 5.35069C2.91545 5.35069 2.98429 5.35069 3.12196 5.35069C3.25964 5.35069 3.42161 5.25755 3.60787 5.07129C3.79414 4.88502 3.88727 4.65422 3.88727 4.37887C3.88727 4.10352 3.79414 3.87271 3.60787 3.68645C3.42161 3.50018 3.1908 3.40705 2.91545 3.40705C2.6401 3.40705 2.4093 3.50018 2.22303 3.68645C2.03677 3.87271 1.94363 4.10352 1.94363 4.37887C1.94363 4.65422 2.03677 4.88502 2.22303 5.07129C2.4093 5.25755 2.6401 5.35069 2.91545 5.35069ZM5.97668 15.0689H7.87172L3.69291 7.29432C3.69291 7.29432 3.67671 7.29432 3.64432 7.29432C3.61192 7.29432 3.59572 7.29432 3.59572 7.29432L5.97668 15.0689Z" fill="#8B0000"/>
</svg>
