<svg width="22" height="20" viewBox="0 0 22 20" fill="none" xmlns="http://www.w3.org/2000/svg">
<path d="M8.75 19.9305V17.9861H21.3889V19.9305H8.75ZM9.72222 17.0139C9.72222 15.7014 10.1354 14.555 10.9618 13.5746C11.7882 12.5943 12.8333 11.9907 14.0972 11.7639V11.1562C14.0972 10.8808 14.1904 10.6499 14.3767 10.4635C14.5631 10.2772 14.794 10.184 15.0694 10.184C15.3449 10.184 15.5758 10.2772 15.7622 10.4635C15.9485 10.6499 16.0417 10.8808 16.0417 11.1562V11.7639C17.2894 11.9907 18.3304 12.5943 19.1649 13.5746C19.9994 14.555 20.4167 15.7014 20.4167 17.0139H9.72222ZM12.2743 15.0451H17.816C17.5081 14.6076 17.1152 14.2552 16.6372 13.9878C16.1591 13.7205 15.6366 13.5868 15.0694 13.5868C14.4861 13.5868 13.9514 13.7205 13.4653 13.9878C12.9792 14.2552 12.5822 14.6076 12.2743 15.0451ZM0 11.1805V0.486097H5.83333V1.89582L12.6389 -1.39028e-05L20.4167 2.43054V3.40276C20.4167 4.21295 20.1331 4.90161 19.566 5.46874C18.9988 6.03587 18.3102 6.31943 17.5 6.31943H15.5556V6.90276C15.5556 7.30786 15.4381 7.67649 15.2031 8.00867C14.9682 8.34084 14.6644 8.57985 14.2917 8.72568L7.72917 11.1805H0ZM1.94444 9.2361H3.88889V2.43054H1.94444V9.2361ZM5.83333 9.2361H7.38889L13.0278 7.17013C13.206 7.10531 13.3478 6.99594 13.4531 6.842C13.5584 6.68806 13.6111 6.51388 13.6111 6.31943H11.8854L9.04167 7.24304L8.45833 5.39582L11.4965 4.37499H17.5C17.6458 4.37499 17.8281 4.32232 18.0469 4.217C18.2656 4.11168 18.375 3.9861 18.375 3.84026L12.5903 2.04165L5.83333 3.88888V9.2361Z" fill="#8B0000"/>
</svg>
