<svg width="22" height="19" viewBox="0 0 22 19" fill="none" xmlns="http://www.w3.org/2000/svg">
<path d="M18.4236 13.5139L16.9167 12.0069C17.6296 11.3426 18.1887 10.5567 18.5938 9.64928C18.9988 8.74187 19.2014 7.77775 19.2014 6.75692C19.2014 5.73608 18.9988 4.78007 18.5938 3.88886C18.1887 2.99766 17.6296 2.21988 16.9167 1.55553L18.4236 -2.60286e-05C19.331 0.85877 20.0521 1.8715 20.5868 3.03817C21.1215 4.20483 21.3889 5.44442 21.3889 6.75692C21.3889 8.06942 21.1215 9.309 20.5868 10.4757C20.0521 11.6423 19.331 12.6551 18.4236 13.5139ZM15.3125 10.4028L13.7569 8.8472C14.0486 8.57173 14.2836 8.25981 14.4618 7.91143C14.64 7.56305 14.7292 7.17821 14.7292 6.75692C14.7292 6.33562 14.64 5.95078 14.4618 5.6024C14.2836 5.25402 14.0486 4.9421 13.7569 4.66664L15.3125 3.11108C15.831 3.58099 16.2361 4.12787 16.5278 4.75171C16.8194 5.37555 16.9653 6.04396 16.9653 6.75692C16.9653 7.46988 16.8194 8.13828 16.5278 8.76213C16.2361 9.38597 15.831 9.93284 15.3125 10.4028ZM7.77778 10.6458C6.70833 10.6458 5.79282 10.265 5.03125 9.50345C4.26968 8.74187 3.88889 7.82636 3.88889 6.75692C3.88889 5.68747 4.26968 4.77196 5.03125 4.01039C5.79282 3.24882 6.70833 2.86803 7.77778 2.86803C8.84722 2.86803 9.76273 3.24882 10.5243 4.01039C11.2859 4.77196 11.6667 5.68747 11.6667 6.75692C11.6667 7.82636 11.2859 8.74187 10.5243 9.50345C9.76273 10.265 8.84722 10.6458 7.77778 10.6458ZM0 18.4236V15.7014C0 15.1666 0.137731 14.6643 0.413194 14.1944C0.688657 13.7245 1.06944 13.368 1.55556 13.125C2.38194 12.7037 3.31366 12.3472 4.35069 12.0555C5.38773 11.7639 6.53009 11.618 7.77778 11.618C9.02546 11.618 10.1678 11.7639 11.2049 12.0555C12.2419 12.3472 13.1736 12.7037 14 13.125C14.4861 13.368 14.8669 13.7245 15.1424 14.1944C15.4178 14.6643 15.5556 15.1666 15.5556 15.7014V18.4236H0ZM1.94444 16.4791H13.6111V15.7014C13.6111 15.5231 13.5666 15.3611 13.4774 15.2153C13.3883 15.0694 13.2708 14.956 13.125 14.875C12.5417 14.5833 11.7922 14.2916 10.8767 14C9.96123 13.7083 8.92824 13.5625 7.77778 13.5625C6.62731 13.5625 5.59433 13.7083 4.67882 14C3.76331 14.2916 3.01389 14.5833 2.43056 14.875C2.28472 14.956 2.16725 15.0694 2.07813 15.2153C1.989 15.3611 1.94444 15.5231 1.94444 15.7014V16.4791ZM7.77778 8.70136C7.77778 8.70136 7.91146 8.70136 8.17882 8.70136C8.44618 8.70136 8.77025 8.51097 9.15104 8.13018C9.53183 7.74939 9.72222 7.29164 9.72222 6.75692C9.72222 6.2222 9.53183 5.76444 9.15104 5.38365C8.77025 5.00287 8.3125 4.81247 7.77778 4.81247C7.24306 4.81247 6.7853 5.00287 6.40451 5.38365C6.02373 5.76444 5.83333 6.2222 5.83333 6.75692C5.83333 7.29164 6.02373 7.74939 6.40451 8.13018C6.7853 8.51097 7.24306 8.70136 7.77778 8.70136Z" fill="#8B0000"/>
</svg>
