<svg width="25" height="28" viewBox="0 0 25 28" fill="none" xmlns="http://www.w3.org/2000/svg">
<path d="M19.7392 17.8403L18.2322 16.3333C18.9452 15.669 19.5042 14.8831 19.9093 13.9757C20.3144 13.0683 20.5169 12.1042 20.5169 11.0833C20.5169 10.0625 20.3144 9.10648 19.9093 8.21528C19.5042 7.32407 18.9452 6.5463 18.2322 5.88195L19.7392 4.32639C20.6466 5.18519 21.3676 6.19792 21.9024 7.36458C22.4371 8.53125 22.7044 9.77083 22.7044 11.0833C22.7044 12.3958 22.4371 13.6354 21.9024 14.8021C21.3676 15.9688 20.6466 16.9815 19.7392 17.8403ZM16.6281 14.7292L15.0725 13.1736C15.3642 12.8981 15.5991 12.5862 15.7774 12.2378C15.9556 11.8895 16.0447 11.5046 16.0447 11.0833C16.0447 10.662 15.9556 10.2772 15.7774 9.92882C15.5991 9.58044 15.3642 9.26852 15.0725 8.99306L16.6281 7.4375C17.1466 7.90741 17.5517 8.45428 17.8433 9.07813C18.135 9.70197 18.2808 10.3704 18.2808 11.0833C18.2808 11.7963 18.135 12.4647 17.8433 13.0885C17.5517 13.7124 17.1466 14.2593 16.6281 14.7292ZM9.09333 14.9722C8.02389 14.9722 7.10838 14.5914 6.3468 13.8299C5.58523 13.0683 5.20444 12.1528 5.20444 11.0833C5.20444 10.0139 5.58523 9.09838 6.3468 8.33681C7.10838 7.57523 8.02389 7.19445 9.09333 7.19445C10.1628 7.19445 11.0783 7.57523 11.8399 8.33681C12.6014 9.09838 12.9822 10.0139 12.9822 11.0833C12.9822 12.1528 12.6014 13.0683 11.8399 13.8299C11.0783 14.5914 10.1628 14.9722 9.09333 14.9722ZM1.31555 22.75V20.0278C1.31555 19.4931 1.45328 18.9907 1.72875 18.5208C2.00421 18.0509 2.385 17.6944 2.87111 17.4514C3.6975 17.0301 4.62921 16.6736 5.66625 16.3819C6.70328 16.0903 7.84564 15.9444 9.09333 15.9444C10.341 15.9444 11.4834 16.0903 12.5204 16.3819C13.5575 16.6736 14.4892 17.0301 15.3156 17.4514C15.8017 17.6944 16.1825 18.0509 16.4579 18.5208C16.7334 18.9907 16.8711 19.4931 16.8711 20.0278V22.75H1.31555ZM3.26 20.8056H14.9267V20.0278C14.9267 19.8495 14.8821 19.6875 14.793 19.5417C14.7039 19.3958 14.5864 19.2824 14.4406 19.2014C13.8572 18.9097 13.1078 18.6181 12.1923 18.3264C11.2768 18.0347 10.2438 17.8889 9.09333 17.8889C7.94287 17.8889 6.90988 18.0347 5.99437 18.3264C5.07886 18.6181 4.32944 18.9097 3.74611 19.2014C3.60027 19.2824 3.4828 19.3958 3.39368 19.5417C3.30456 19.6875 3.26 19.8495 3.26 20.0278V20.8056ZM9.09333 13.0278C9.09333 13.0278 9.22701 13.0278 9.49437 13.0278C9.76173 13.0278 10.0858 12.8374 10.4666 12.4566C10.8474 12.0758 11.0378 11.6181 11.0378 11.0833C11.0378 10.5486 10.8474 10.0909 10.4666 9.71007C10.0858 9.32928 9.62805 9.13889 9.09333 9.13889C8.55861 9.13889 8.10085 9.32928 7.72007 9.71007C7.33928 10.0909 7.14889 10.5486 7.14889 11.0833C7.14889 11.6181 7.33928 12.0758 7.72007 12.4566C8.10085 12.8374 8.55861 13.0278 9.09333 13.0278Z" fill="#8B0000"/>
</svg>
