<svg width="18" height="18" viewBox="0 0 18 18" fill="none" xmlns="http://www.w3.org/2000/svg">
<path d="M5.8309 17.4927C5.8309 17.4927 5.56365 17.4927 5.02916 17.4927C4.49466 17.4927 3.84678 17.112 3.08552 16.3508C2.32426 15.5895 1.94363 14.6744 1.94363 13.6054V5.6608C1.37674 5.45024 0.911079 5.09795 0.546647 4.60395C0.182216 4.10994 0 3.5471 0 2.91541C0 2.10557 0.283447 1.4172 0.85034 0.850302C1.41723 0.283408 2.1056 -3.8296e-05 2.91545 -3.8296e-05C3.7253 -3.8296e-05 4.41367 0.283408 4.98056 0.850302C5.54746 1.4172 5.8309 2.10557 5.8309 2.91541C5.8309 3.5471 5.64869 4.10994 5.28426 4.60395C4.91983 5.09795 4.45416 5.45024 3.88727 5.6608V13.6054C3.88727 14.1399 4.07758 14.5975 4.45821 14.9781C4.83884 15.3587 5.29641 15.549 5.8309 15.549C6.3654 15.549 6.82297 15.3587 7.2036 14.9781C7.58423 14.5975 7.77454 14.1399 7.77454 13.6054V3.88723C7.77454 2.81823 8.15517 1.9031 8.91643 1.14185C9.67768 0.38059 10.5928 -3.8296e-05 11.6618 -3.8296e-05C12.7308 -3.8296e-05 13.6459 0.38059 14.4072 1.14185C15.1685 1.9031 15.5491 2.81823 15.5491 3.88723V11.8318C16.116 12.0424 16.5816 12.3947 16.9461 12.8887C17.3105 13.3827 17.4927 13.9455 17.4927 14.5772C17.4927 15.3871 17.2093 16.0754 16.6424 16.6423C16.0755 17.2092 15.3871 17.4927 14.5773 17.4927C13.7674 17.4927 13.079 17.2092 12.5121 16.6423C11.9453 16.0754 11.6618 15.3871 11.6618 14.5772C11.6618 13.9455 11.844 13.3786 12.2085 12.8765C12.5729 12.3744 13.0386 12.0262 13.6054 11.8318V3.88723C13.6054 3.35273 13.4151 2.89517 13.0345 2.51454C12.6539 2.13391 12.1963 1.9436 11.6618 1.9436C11.1273 1.9436 10.6697 2.13391 10.2891 2.51454C9.90849 2.89517 9.71817 3.35273 9.71817 3.88723V13.6054C9.71817 14.6744 9.33755 15.5895 8.57629 16.3508C7.81503 17.112 6.8999 17.4927 5.8309 17.4927ZM2.91545 3.88723C3.1908 3.88723 3.42161 3.7941 3.60787 3.60783C3.79414 3.42157 3.88727 3.19076 3.88727 2.91541C3.88727 2.64007 3.79414 2.40926 3.60787 2.22299C3.42161 2.03673 3.1908 1.9436 2.91545 1.9436C2.6401 1.9436 2.4093 2.03673 2.22303 2.22299C2.03677 2.40926 1.94363 2.64007 1.94363 2.91541C1.94363 3.19076 2.03677 3.42157 2.22303 3.60783C2.4093 3.7941 2.6401 3.88723 2.91545 3.88723ZM14.5773 15.549C14.8526 15.549 15.0834 15.4559 15.2697 15.2696C15.4559 15.0834 15.5491 14.8526 15.5491 14.5772C15.5491 14.3019 15.4559 14.0711 15.2697 13.8848C15.0834 13.6985 14.8526 13.6054 14.5773 13.6054C14.3019 13.6054 14.0711 13.6985 13.8848 13.8848C13.6986 14.0711 13.6054 14.3019 13.6054 14.5772C13.6054 14.8526 13.6986 15.0834 13.8848 15.2696C14.0711 15.4559 14.3019 15.549 14.5773 15.549Z" fill="#8B0000"/>
</svg>
