<svg width="25" height="28" viewBox="0 0 25 28" fill="none" xmlns="http://www.w3.org/2000/svg">
<path d="M9.08957 22.7405C9.08957 22.7405 8.82232 22.7405 8.28782 22.7405C7.75332 22.7405 7.10544 22.3599 6.34419 21.5987C5.58293 20.8374 5.2023 19.9223 5.2023 18.8533V10.9087C4.63541 10.6981 4.16975 10.3458 3.80531 9.85181C3.44088 9.3578 3.25867 8.79496 3.25867 8.16328C3.25867 7.35343 3.54211 6.66506 4.10901 6.09817C4.6759 5.53127 5.36427 5.24783 6.17412 5.24783C6.98397 5.24783 7.67234 5.53127 8.23923 6.09817C8.80612 6.66506 9.08957 7.35343 9.08957 8.16328C9.08957 8.79496 8.90736 9.3578 8.54292 9.85181C8.17849 10.3458 7.71283 10.6981 7.14594 10.9087V18.8533C7.14594 19.3878 7.33625 19.8453 7.71688 20.226C8.09751 20.6066 8.55507 20.7969 9.08957 20.7969C9.62407 20.7969 10.0816 20.6066 10.4623 20.226C10.8429 19.8453 11.0332 19.3878 11.0332 18.8533V9.1351C11.0332 8.0661 11.4138 7.15097 12.1751 6.38971C12.9363 5.62845 13.8515 5.24783 14.9205 5.24783C15.9895 5.24783 16.9046 5.62845 17.6659 6.38971C18.4271 7.15097 18.8077 8.0661 18.8077 9.1351V17.0797C19.3746 17.2903 19.8403 17.6425 20.2047 18.1366C20.5692 18.6306 20.7514 19.1934 20.7514 19.8251C20.7514 20.6349 20.4679 21.3233 19.901 21.8902C19.3341 22.4571 18.6458 22.7405 17.8359 22.7405C17.0261 22.7405 16.3377 22.4571 15.7708 21.8902C15.2039 21.3233 14.9205 20.6349 14.9205 19.8251C14.9205 19.1934 15.1027 18.6265 15.4671 18.1244C15.8316 17.6223 16.2972 17.2741 16.8641 17.0797V9.1351C16.8641 8.6006 16.6738 8.14303 16.2932 7.7624C15.9125 7.38177 15.455 7.19146 14.9205 7.19146C14.386 7.19146 13.9284 7.38177 13.5478 7.7624C13.1672 8.14303 12.9768 8.6006 12.9768 9.1351V18.8533C12.9768 19.9223 12.5962 20.8374 11.835 21.5987C11.0737 22.3599 10.1586 22.7405 9.08957 22.7405ZM6.17412 9.1351C6.44947 9.1351 6.68027 9.04196 6.86654 8.8557C7.0528 8.66943 7.14594 8.43863 7.14594 8.16328C7.14594 7.88793 7.0528 7.65712 6.86654 7.47086C6.68027 7.28459 6.44947 7.19146 6.17412 7.19146C5.89877 7.19146 5.66796 7.28459 5.4817 7.47086C5.29543 7.65712 5.2023 7.88793 5.2023 8.16328C5.2023 8.43863 5.29543 8.66943 5.4817 8.8557C5.66796 9.04196 5.89877 9.1351 6.17412 9.1351ZM17.8359 20.7969C18.1113 20.7969 18.3421 20.7038 18.5283 20.5175C18.7146 20.3312 18.8077 20.1004 18.8077 19.8251C18.8077 19.5497 18.7146 19.3189 18.5283 19.1327C18.3421 18.9464 18.1113 18.8533 17.8359 18.8533C17.5606 18.8533 17.3298 18.9464 17.1435 19.1327C16.9572 19.3189 16.8641 19.5497 16.8641 19.8251C16.8641 20.1004 16.9572 20.3312 17.1435 20.5175C17.3298 20.7038 17.5606 20.7969 17.8359 20.7969Z" fill="#8B0000"/>
</svg>
