<svg width="27" height="27" viewBox="0 0 27 27" fill="none" xmlns="http://www.w3.org/2000/svg">
<path d="M4.75 10.5498L7.32292 11.6383C7.63079 11.0226 7.94965 10.4288 8.27951 9.85706C8.60938 9.2853 8.97222 8.71354 9.36806 8.14178L7.52083 7.77893L4.75 10.5498ZM9.43403 13.2876L13.1944 17.015C14.1181 16.6632 15.1076 16.1244 16.1632 15.3987C17.2188 14.673 18.2083 13.8484 19.1319 12.9248C20.6713 11.3854 21.8753 9.67563 22.7439 7.79542C23.6126 5.91521 23.9919 4.18344 23.8819 2.60011C22.2986 2.49016 20.5613 2.8695 18.6701 3.73813C16.7789 4.60677 15.0637 5.81076 13.5243 7.35011C12.6007 8.27372 11.776 9.26331 11.0503 10.3189C10.3247 11.3744 9.78588 12.364 9.43403 13.2876ZM15.3056 11.1435C15.3056 11.1435 15.1791 11.0171 14.9262 10.7642C14.6733 10.5113 14.5469 10.0165 14.5469 9.2798C14.5469 8.54311 14.7998 7.92187 15.3056 7.41608C15.8113 6.9103 16.4381 6.6574 17.1858 6.6574C17.9334 6.6574 18.5602 6.9103 19.066 7.41608C19.5718 7.92187 19.8247 8.54311 19.8247 9.2798C19.8247 10.0165 19.5718 10.6377 19.066 11.1435C18.5602 11.6493 17.9334 11.9022 17.1858 11.9022C16.4381 11.9022 15.8113 11.6493 15.3056 11.1435ZM15.9323 21.7321L18.7031 18.9612L18.3403 17.114C17.7685 17.5098 17.1968 17.8672 16.625 18.186C16.0532 18.5049 15.4595 18.8183 14.8438 19.1262L15.9323 21.7321ZM26.2569 0.192124C26.6748 2.853 26.4164 5.44241 25.4818 7.96035C24.5472 10.4783 22.9363 12.8808 20.6493 15.1678L21.309 18.4334C21.397 18.8733 21.375 19.3021 21.2431 19.7199C21.1111 20.1377 20.8912 20.5006 20.5833 20.8084L15.0417 26.3501L12.2708 19.8518L6.63021 14.2112L0.131944 11.4404L5.64063 5.89872C5.9485 5.59085 6.31684 5.37094 6.74566 5.239C7.17448 5.10706 7.6088 5.08506 8.04861 5.17303L11.3142 5.83275C13.6013 3.54571 15.9983 1.92939 18.5052 0.983791C21.0122 0.0381893 23.5961 -0.2257 26.2569 0.192124ZM2.47396 18.4005C3.24363 17.6308 4.18374 17.2404 5.29427 17.2295C6.4048 17.2185 7.34491 17.5978 8.11458 18.3675C8.88426 19.1371 9.2636 20.0773 9.2526 21.1878C9.24161 22.2983 8.85127 23.2384 8.0816 24.0081C7.53183 24.5579 6.61372 25.0307 5.32726 25.4265C4.0408 25.8223 2.26505 26.1742 0 26.4821C0.30787 24.217 0.659722 22.4413 1.05556 21.1548C1.45139 19.8683 1.92419 18.9502 2.47396 18.4005ZM4.35417 20.2477C4.13426 20.4676 3.91435 20.8689 3.69444 21.4517C3.47454 22.0344 3.3206 22.6227 3.23264 23.2164C3.82639 23.1285 4.41464 22.98 4.9974 22.7711C5.58015 22.5622 5.98148 22.3478 6.20139 22.1279C6.46528 21.864 6.60822 21.5451 6.63021 21.1713C6.6522 20.7974 6.53125 20.4786 6.26736 20.2147C6.00347 19.9508 5.68461 19.8244 5.31076 19.8354C4.93692 19.8463 4.61806 19.9838 4.35417 20.2477Z" fill="#8B0000"/>
</svg>
