<svg width="32" height="38" viewBox="0 0 32 38" fill="none" xmlns="http://www.w3.org/2000/svg">
<path d="M7.62153 16.3941L10.1944 17.4827C10.5023 16.8669 10.8212 16.2732 11.151 15.7014C11.4809 15.1297 11.8438 14.5579 12.2396 13.9861L10.3924 13.6233L7.62153 16.3941ZM12.3056 19.132L16.066 22.8594C16.9896 22.5076 17.9792 21.9688 19.0347 21.2431C20.0903 20.5174 21.0799 19.6927 22.0035 18.7691C23.5428 17.2298 24.7468 15.52 25.6155 13.6398C26.4841 11.7596 26.8634 10.0278 26.7535 8.44447C25.1701 8.33452 23.4329 8.71386 21.5417 9.58249C19.6505 10.4511 17.9352 11.6551 16.3958 13.1945C15.4722 14.1181 14.6476 15.1077 13.9219 16.1632C13.1962 17.2188 12.6574 18.2084 12.3056 19.132ZM18.1771 16.9879C18.1771 16.9879 18.0506 16.8614 17.7977 16.6085C17.5448 16.3556 17.4184 15.8608 17.4184 15.1242C17.4184 14.3875 17.6713 13.7662 18.1771 13.2604C18.6829 12.7547 19.3096 12.5018 20.0573 12.5018C20.805 12.5018 21.4317 12.7547 21.9375 13.2604C22.4433 13.7662 22.6962 14.3875 22.6962 15.1242C22.6962 15.8608 22.4433 16.4821 21.9375 16.9879C21.4317 17.4937 20.805 17.7466 20.0573 17.7466C19.3096 17.7466 18.6829 17.4937 18.1771 16.9879ZM18.8038 27.5764L21.5747 24.8056L21.2118 22.9584C20.64 23.3542 20.0683 23.7115 19.4965 24.0304C18.9248 24.3493 18.331 24.6626 17.7153 24.9705L18.8038 27.5764ZM29.1285 6.03648C29.5463 8.69736 29.2879 11.2868 28.3533 13.8047C27.4187 16.3227 25.8079 18.7251 23.5208 21.0122L24.1806 24.2778C24.2685 24.7176 24.2465 25.1464 24.1146 25.5643C23.9826 25.9821 23.7627 26.3449 23.4549 26.6528L17.9132 32.1945L15.1424 25.6962L9.50174 20.0556L3.00347 17.2847L8.51215 11.7431C8.82002 11.4352 9.18837 11.2153 9.61719 11.0834C10.046 10.9514 10.4803 10.9294 10.9201 11.0174L14.1858 11.6771C16.4728 9.39007 18.8698 7.77375 21.3767 6.82815C23.8837 5.88255 26.4676 5.61866 29.1285 6.03648ZM5.34549 24.2448C6.11516 23.4751 7.05527 23.0848 8.1658 23.0738C9.27633 23.0628 10.2164 23.4422 10.9861 24.2118C11.7558 24.9815 12.1351 25.9216 12.1241 27.0321C12.1131 28.1427 11.7228 29.0828 10.9531 29.8525C10.4034 30.4022 9.48524 30.875 8.19878 31.2709C6.91233 31.6667 5.13657 32.0185 2.87153 32.3264C3.1794 30.0614 3.53125 28.2856 3.92708 26.9992C4.32292 25.7127 4.79572 24.7946 5.34549 24.2448ZM7.22569 26.092C7.00579 26.3119 6.78588 26.7133 6.56597 27.296C6.34606 27.8788 6.19213 28.467 6.10417 29.0608C6.69792 28.9728 7.28617 28.8244 7.86892 28.6155C8.45168 28.4066 8.85301 28.1922 9.07292 27.9722C9.33681 27.7084 9.47975 27.3895 9.50174 27.0157C9.52373 26.6418 9.40278 26.3229 9.13889 26.0591C8.875 25.7952 8.55613 25.6687 8.18229 25.6797C7.80845 25.6907 7.48958 25.8282 7.22569 26.092Z" fill="#8B0000"/>
</svg>
