<svg width="20" height="20" viewBox="0 0 20 20" fill="none" xmlns="http://www.w3.org/2000/svg">
<path d="M9.71818 19.4364C9.71818 19.4364 9.38209 19.4364 8.70991 19.4364C8.03774 19.4364 7.11046 19.1813 5.92809 18.6711C4.74571 18.1609 3.7172 17.4685 2.84257 16.5938C1.96793 15.7192 1.27551 14.6907 0.765306 13.5083C0.255102 12.3259 0 11.0626 0 9.71823C0 8.37388 0.255102 7.11052 0.765306 5.92814C1.27551 4.74576 1.96793 3.71725 2.84257 2.84262C3.7172 1.96798 4.74571 1.27556 5.92809 0.765357C7.11046 0.255153 8.37383 5.09024e-05 9.71818 5.09024e-05C11.0625 5.09024e-05 12.3259 0.255153 13.5083 0.765357C14.6906 1.27556 15.7191 1.96798 16.5938 2.84262C17.4684 3.71725 18.1608 4.74576 18.671 5.92814C19.1812 7.11052 19.4364 8.37388 19.4364 9.71823C19.4364 11.0626 19.1812 12.3259 18.671 13.5083C18.1608 14.6907 17.4684 15.7192 16.5938 16.5938C15.7191 17.4685 14.6906 18.1609 13.5083 18.6711C12.3259 19.1813 11.0625 19.4364 9.71818 19.4364ZM8.74636 17.4442V15.5491C8.21186 15.5491 7.75429 15.3588 7.37367 14.9782C6.99304 14.5976 6.80272 14.14 6.80272 13.6055V12.6337L2.138 7.96895C2.08941 8.2605 2.04487 8.55205 2.00437 8.84359C1.96388 9.13514 1.94364 9.42668 1.94364 9.71823C1.94364 11.6781 2.58746 13.3949 3.87512 14.8689C5.16278 16.3428 6.78653 17.2012 8.74636 17.4442ZM15.4519 14.966C16.116 14.2372 16.6221 13.4233 16.9704 12.5243C17.3186 11.6254 17.4927 10.69 17.4927 9.71823C17.4927 8.13092 17.0513 6.6813 16.1686 5.36934C15.2859 4.05739 14.1076 3.10987 12.6336 2.52678V2.9155C12.6336 3.45 12.4433 3.90757 12.0627 4.2882C11.6821 4.66882 11.2245 4.85914 10.69 4.85914H8.74636V6.80277C8.74636 7.07812 8.65323 7.30893 8.46696 7.49519C8.2807 7.68146 8.04989 7.77459 7.77454 7.77459H5.83091V9.71823H11.6618C11.9372 9.71823 12.168 9.81136 12.3542 9.99762C12.5405 10.1839 12.6336 10.4147 12.6336 10.69V13.6055H13.6054C14.0266 13.6055 14.4072 13.731 14.7473 13.9821C15.0875 14.2331 15.3223 14.5611 15.4519 14.966Z" fill="#737373"/>
</svg>
