<svg width="25" height="28" viewBox="0 0 25 28" fill="none" xmlns="http://www.w3.org/2000/svg">
<path d="M12.005 23.7123C12.005 23.7123 11.6689 23.7123 10.9967 23.7123C10.3246 23.7123 9.3973 23.4572 8.21492 22.947C7.03254 22.4368 6.00404 21.7444 5.1294 20.8698C4.25477 19.9951 3.56235 18.9666 3.05214 17.7843C2.54194 16.6019 2.28683 15.3385 2.28683 13.9942C2.28683 12.6498 2.54194 11.3865 3.05214 10.2041C3.56235 9.0217 4.25477 7.99319 5.1294 7.11856C6.00404 6.24392 7.03254 5.5515 8.21492 5.0413C9.3973 4.53109 10.6607 4.27599 12.005 4.27599C13.3494 4.27599 14.6127 4.53109 15.7951 5.0413C16.9775 5.5515 18.006 6.24392 18.8806 7.11856C19.7553 7.99319 20.4477 9.0217 20.9579 10.2041C21.4681 11.3865 21.7232 12.6498 21.7232 13.9942C21.7232 15.3385 21.4681 16.6019 20.9579 17.7843C20.4477 18.9666 19.7553 19.9951 18.8806 20.8698C18.006 21.7444 16.9775 22.4368 15.7951 22.947C14.6127 23.4572 13.3494 23.7123 12.005 23.7123ZM11.0332 21.7201V19.8251C10.4987 19.8251 10.0411 19.6348 9.6605 19.2541C9.27987 18.8735 9.08956 18.4159 9.08956 17.8814V16.9096L4.42483 12.2449C4.37624 12.5364 4.3317 12.828 4.29121 13.1195C4.25072 13.4111 4.23047 13.7026 4.23047 13.9942C4.23047 15.954 4.8743 17.6709 6.16196 19.1448C7.44962 20.6187 9.07336 21.4772 11.0332 21.7201ZM17.7387 19.242C18.4028 18.5131 18.909 17.6992 19.2572 16.8003C19.6054 15.9014 19.7796 14.966 19.7796 13.9942C19.7796 12.4069 19.3382 10.9572 18.4554 9.64528C17.5727 8.33333 16.3944 7.38581 14.9205 6.80272V7.19144C14.9205 7.72594 14.7301 8.18351 14.3495 8.56414C13.9689 8.94476 13.5113 9.13508 12.9768 9.13508H11.0332V11.0787C11.0332 11.3541 10.9401 11.5849 10.7538 11.7711C10.5675 11.9574 10.3367 12.0505 10.0614 12.0505H8.11774V13.9942H13.9486C14.224 13.9942 14.4548 14.0873 14.6411 14.2736C14.8273 14.4598 14.9205 14.6906 14.9205 14.966V17.8814H15.8923C16.3134 17.8814 16.694 18.007 17.0342 18.258C17.3743 18.5091 17.6092 18.8371 17.7387 19.242Z" fill="#737373"/>
</svg>
