<svg width="25" height="28" viewBox="0 0 25 28" fill="none" xmlns="http://www.w3.org/2000/svg">
<path d="M12.01 23.7222C10.6651 23.7222 9.40121 23.467 8.21834 22.9565C7.03547 22.4461 6.00653 21.7534 5.13153 20.8784C4.25653 20.0034 3.56382 18.9745 3.05341 17.7916C2.54299 16.6087 2.28778 15.3449 2.28778 13.9999C2.28778 12.655 2.54299 11.3911 3.05341 10.2083C3.56382 9.02541 4.25653 7.99647 5.13153 7.12147C6.00653 6.24647 7.03547 5.55376 8.21834 5.04335C9.40121 4.53293 10.6651 4.27772 12.01 4.27772C13.3549 4.27772 14.6188 4.53293 15.8017 5.04335C16.9845 5.55376 18.0135 6.24647 18.8885 7.12147C19.7635 7.99647 20.4562 9.02541 20.9666 10.2083C21.477 11.3911 21.7322 12.655 21.7322 13.9999V15.4097C21.7322 16.3657 21.4041 17.1799 20.7479 17.8524C20.0916 18.5248 19.2855 18.8611 18.3294 18.8611C17.7623 18.8611 17.2276 18.7395 16.7253 18.4965C16.223 18.2534 15.8017 17.905 15.4614 17.4513C14.9915 17.9212 14.4608 18.2737 13.8694 18.5086C13.2779 18.7436 12.6582 18.8611 12.01 18.8611C10.6651 18.8611 9.51868 18.3871 8.57077 17.4392C7.62285 16.4913 7.14889 15.3449 7.14889 13.9999C7.14889 12.655 7.62285 11.5086 8.57077 10.5607C9.51868 9.61279 10.6651 9.13883 12.01 9.13883C13.3549 9.13883 14.5013 9.61279 15.4492 10.5607C16.3972 11.5086 16.8711 12.655 16.8711 13.9999V15.4097C16.8711 15.831 17.0088 16.1874 17.2843 16.4791C17.5598 16.7708 17.9082 16.9166 18.3294 16.9166C18.7507 16.9166 19.0991 16.7708 19.3746 16.4791C19.65 16.1874 19.7878 15.831 19.7878 15.4097V13.9999C19.7878 11.8286 19.0343 9.98953 17.5274 8.48258C16.0204 6.97564 14.1813 6.22217 12.01 6.22217C9.83871 6.22217 7.99959 6.97564 6.49264 8.48258C4.9857 9.98953 4.23223 11.8286 4.23223 13.9999C4.23223 16.1712 4.9857 18.0104 6.49264 19.5173C7.99959 21.0243 9.83871 21.7777 12.01 21.7777H16.8711V23.7222H12.01ZM12.01 16.9166C12.01 16.9166 12.2125 16.9166 12.6176 16.9166C13.0227 16.9166 13.5088 16.633 14.076 16.0659C14.6431 15.4988 14.9267 14.8101 14.9267 13.9999C14.9267 13.1898 14.6431 12.5011 14.076 11.934C13.5088 11.3668 12.8202 11.0833 12.01 11.0833C11.1998 11.0833 10.5112 11.3668 9.94403 11.934C9.3769 12.5011 9.09334 13.1898 9.09334 13.9999C9.09334 14.8101 9.3769 15.4988 9.94403 16.0659C10.5112 16.633 11.1998 16.9166 12.01 16.9166Z" fill="#737373"/>
</svg>
