<svg width="20" height="20" viewBox="0 0 20 20" fill="none" xmlns="http://www.w3.org/2000/svg">
<path d="M9.72222 19.4445C8.37731 19.4445 7.11343 19.1892 5.93056 18.6788C4.74769 18.1684 3.71875 17.4757 2.84375 16.6007C1.96875 15.7257 1.27604 14.6968 0.765625 13.5139C0.255208 12.331 0 11.0671 0 9.72224C0 8.37733 0.255208 7.11344 0.765625 5.93057C1.27604 4.7477 1.96875 3.71876 2.84375 2.84376C3.71875 1.96876 4.74769 1.27605 5.93056 0.765638C7.11343 0.255222 8.37731 1.32322e-05 9.72222 1.32322e-05C11.0671 1.32322e-05 12.331 0.255222 13.5139 0.765638C14.6968 1.27605 15.7257 1.96876 16.6007 2.84376C17.4757 3.71876 18.1684 4.7477 18.6788 5.93057C19.1892 7.11344 19.4444 8.37733 19.4444 9.72224V11.132C19.4444 12.088 19.1163 12.9022 18.4601 13.5747C17.8038 14.2471 16.9977 14.5833 16.0417 14.5833C15.4745 14.5833 14.9398 14.4618 14.4375 14.2188C13.9352 13.9757 13.5139 13.6273 13.1736 13.1736C12.7037 13.6435 12.173 13.996 11.5816 14.2309C10.9902 14.4659 10.3704 14.5833 9.72222 14.5833C8.37731 14.5833 7.2309 14.1094 6.28299 13.1615C5.33507 12.2136 4.86111 11.0671 4.86111 9.72224C4.86111 8.37733 5.33507 7.23092 6.28299 6.283C7.2309 5.33508 8.37731 4.86112 9.72222 4.86112C11.0671 4.86112 12.2135 5.33508 13.1615 6.283C14.1094 7.23092 14.5833 8.37733 14.5833 9.72224V11.132C14.5833 11.5533 14.7211 11.9097 14.9965 12.2014C15.272 12.4931 15.6204 12.6389 16.0417 12.6389C16.463 12.6389 16.8113 12.4931 17.0868 12.2014C17.3623 11.9097 17.5 11.5533 17.5 11.132V9.72224C17.5 7.55094 16.7465 5.71182 15.2396 4.20487C13.7326 2.69793 11.8935 1.94446 9.72222 1.94446C7.55093 1.94446 5.71181 2.69793 4.20486 4.20487C2.69792 5.71182 1.94444 7.55094 1.94444 9.72224C1.94444 11.8935 2.69792 13.7327 4.20486 15.2396C5.71181 16.7465 7.55093 17.5 9.72222 17.5H14.5833V19.4445H9.72222ZM9.72222 12.6389C9.72222 12.6389 9.92477 12.6389 10.3299 12.6389C10.735 12.6389 11.2211 12.3553 11.7882 11.7882C12.3553 11.2211 12.6389 10.5324 12.6389 9.72224C12.6389 8.91205 12.3553 8.22339 11.7882 7.65626C11.2211 7.08913 10.5324 6.80557 9.72222 6.80557C8.91204 6.80557 8.22338 7.08913 7.65625 7.65626C7.08912 8.22339 6.80556 8.91205 6.80556 9.72224C6.80556 10.5324 7.08912 11.2211 7.65625 11.7882C8.22338 12.3553 8.91204 12.6389 9.72222 12.6389Z" fill="#737373"/>
</svg>
