<svg width="30" height="36" viewBox="0 0 30 36" fill="none" xmlns="http://www.w3.org/2000/svg">
<path d="M20.625 30.5V26.75H17.5L21.875 20.5V24.25H25L20.625 30.5ZM10 30.5C9.64583 30.5 9.34896 30.3802 9.10938 30.1406C8.86979 29.901 8.75 29.6042 8.75 29.25V9.25C8.75 8.89583 8.86979 8.59896 9.10938 8.35938C9.34896 8.11979 9.64583 8 10 8H12.5V5.5H17.5V8H20C20.3542 8 20.651 8.11979 20.8906 8.35938C21.1302 8.59896 21.25 8.89583 21.25 9.25V18C20.8125 18 20.3854 18.0365 19.9688 18.1094C19.5521 18.1823 19.1458 18.2917 18.75 18.4375V10.5H11.25V28H14.1875C14.3542 28.4792 14.5573 28.9271 14.7969 29.3438C15.0365 29.7604 15.3229 30.1458 15.6562 30.5H10Z" fill="#8B0000"/>
</svg>
