<svg width="17" height="25" viewBox="0 0 17 25" fill="none" xmlns="http://www.w3.org/2000/svg">
<path d="M11.875 25V21.25H8.75L13.125 15V18.75H16.25L11.875 25ZM1.25 25C0.895833 25 0.598958 24.8802 0.359375 24.6406C0.119792 24.401 0 24.1042 0 23.75V3.75C0 3.39583 0.119792 3.09896 0.359375 2.85938C0.598958 2.61979 0.895833 2.5 1.25 2.5H3.75V0H8.75V2.5H11.25C11.6042 2.5 11.901 2.61979 12.1406 2.85938C12.3802 3.09896 12.5 3.39583 12.5 3.75V12.5C12.0625 12.5 11.6354 12.5365 11.2188 12.6094C10.8021 12.6823 10.3958 12.7917 10 12.9375V5H2.5V22.5H5.4375C5.60417 22.9792 5.80729 23.4271 6.04688 23.8438C6.28646 24.2604 6.57292 24.6458 6.90625 25H1.25Z" fill="#8B0000"/>
</svg>
