<svg width="19" height="25" viewBox="0 0 19 25" fill="none" xmlns="http://www.w3.org/2000/svg">
<path d="M9.0625 25C8.52083 25 8.03125 24.8698 7.59375 24.6094C7.15625 24.349 6.8125 24 6.5625 23.5625C5.875 23.5625 5.28646 23.3177 4.79688 22.8281C4.30729 22.3385 4.0625 21.75 4.0625 21.0625V16.625C2.83333 15.8125 1.84896 14.7396 1.10938 13.4062C0.369792 12.0729 0 10.625 0 9.0625C0 6.54167 0.880208 4.40104 2.64062 2.64062C4.40104 0.880208 6.54167 0 9.0625 0C11.5833 0 13.724 0.880208 15.4844 2.64062C17.2448 4.40104 18.125 6.54167 18.125 9.0625C18.125 10.6667 17.7552 12.125 17.0156 13.4375C16.276 14.75 15.2917 15.8125 14.0625 16.625V21.0625C14.0625 21.75 13.8177 22.3385 13.3281 22.8281C12.8385 23.3177 12.25 23.5625 11.5625 23.5625C11.3125 24 10.9688 24.349 10.5312 24.6094C10.0938 24.8698 9.60417 25 9.0625 25ZM6.5625 21.0625H11.5625V19.9375H6.5625V21.0625ZM6.5625 18.6875H11.5625V17.5H6.5625V18.6875ZM6.3125 15H8.125V11.625L5.375 8.875L6.6875 7.5625L9.0625 9.9375L11.4375 7.5625L12.75 8.875L10 11.625V15H11.8125C12.9375 14.4583 13.8542 13.6615 14.5625 12.6094C15.2708 11.5573 15.625 10.375 15.625 9.0625C15.625 7.22917 14.9896 5.67708 13.7188 4.40625C12.4479 3.13542 10.8958 2.5 9.0625 2.5C7.22917 2.5 5.67708 3.13542 4.40625 4.40625C3.13542 5.67708 2.5 7.22917 2.5 9.0625C2.5 10.375 2.85417 11.5573 3.5625 12.6094C4.27083 13.6615 5.1875 14.4583 6.3125 15Z" fill="#8B0000"/>
</svg>
