<svg width="30" height="36" viewBox="0 0 30 36" fill="none" xmlns="http://www.w3.org/2000/svg">
<path d="M15 30.5C14.4583 30.5 13.9688 30.3698 13.5312 30.1094C13.0938 29.849 12.75 29.5 12.5 29.0625C11.8125 29.0625 11.224 28.8177 10.7344 28.3281C10.2448 27.8385 10 27.25 10 26.5625V22.125C8.77083 21.3125 7.78646 20.2396 7.04688 18.9062C6.30729 17.5729 5.9375 16.125 5.9375 14.5625C5.9375 12.0417 6.81771 9.90104 8.57812 8.14062C10.3385 6.38021 12.4792 5.5 15 5.5C17.5208 5.5 19.6615 6.38021 21.4219 8.14062C23.1823 9.90104 24.0625 12.0417 24.0625 14.5625C24.0625 16.1667 23.6927 17.625 22.9531 18.9375C22.2135 20.25 21.2292 21.3125 20 22.125V26.5625C20 27.25 19.7552 27.8385 19.2656 28.3281C18.776 28.8177 18.1875 29.0625 17.5 29.0625C17.25 29.5 16.9062 29.849 16.4688 30.1094C16.0312 30.3698 15.5417 30.5 15 30.5ZM12.5 26.5625H17.5V25.4375H12.5V26.5625ZM12.5 24.1875H17.5V23H12.5V24.1875ZM12.25 20.5H14.0625V17.125L11.3125 14.375L12.625 13.0625L15 15.4375L17.375 13.0625L18.6875 14.375L15.9375 17.125V20.5H17.75C18.875 19.9583 19.7917 19.1615 20.5 18.1094C21.2083 17.0573 21.5625 15.875 21.5625 14.5625C21.5625 12.7292 20.9271 11.1771 19.6562 9.90625C18.3854 8.63542 16.8333 8 15 8C13.1667 8 11.6146 8.63542 10.3438 9.90625C9.07292 11.1771 8.4375 12.7292 8.4375 14.5625C8.4375 15.875 8.79167 17.0573 9.5 18.1094C10.2083 19.1615 11.125 19.9583 12.25 20.5Z" fill="#8B0000"/>
</svg>
