<svg width="30" height="36" viewBox="0 0 30 36" fill="none" xmlns="http://www.w3.org/2000/svg">
<path d="M11.25 20.8125C11.25 20.8125 11.1406 20.8125 10.9219 20.8125C10.7031 20.8125 10.4427 20.6615 10.1406 20.3594C9.83854 20.0573 9.6875 19.6875 9.6875 19.25C9.6875 18.8125 9.83854 18.4427 10.1406 18.1406C10.4427 17.8385 10.8125 17.6875 11.25 17.6875C11.6875 17.6875 12.0573 17.8385 12.3594 18.1406C12.6615 18.4427 12.8125 18.8125 12.8125 19.25C12.8125 19.6875 12.6615 20.0573 12.3594 20.3594C12.0573 20.6615 11.6875 20.8125 11.25 20.8125ZM18.75 20.8125C18.75 20.8125 18.6406 20.8125 18.4219 20.8125C18.2031 20.8125 17.9427 20.6615 17.6406 20.3594C17.3385 20.0573 17.1875 19.6875 17.1875 19.25C17.1875 18.8125 17.3385 18.4427 17.6406 18.1406C17.9427 17.8385 18.3125 17.6875 18.75 17.6875C19.1875 17.6875 19.5573 17.8385 19.8594 18.1406C20.1615 18.4427 20.3125 18.8125 20.3125 19.25C20.3125 19.6875 20.1615 20.0573 19.8594 20.3594C19.5573 20.6615 19.1875 20.8125 18.75 20.8125ZM15 28C17.7917 28 20.1562 27.0312 22.0938 25.0938C24.0312 23.1562 25 20.7917 25 18C25 17.5 24.9688 17.0156 24.9062 16.5469C24.8438 16.0781 24.7292 15.625 24.5625 15.1875C24.125 15.2917 23.6875 15.3698 23.25 15.4219C22.8125 15.474 22.3542 15.5 21.875 15.5C19.9792 15.5 18.1875 15.0938 16.5 14.2812C14.8125 13.4688 13.375 12.3333 12.1875 10.875C11.5208 12.5 10.5677 13.9115 9.32812 15.1094C8.08854 16.3073 6.64583 17.2083 5 17.8125C5 17.8542 5 17.8854 5 17.9062C5 17.9271 5 17.9583 5 18C5 20.7917 5.96875 23.1562 7.90625 25.0938C9.84375 27.0312 12.2083 28 15 28ZM15 30.5C13.2708 30.5 11.6458 30.1719 10.125 29.5156C8.60417 28.8594 7.28125 27.9688 6.15625 26.8438C5.03125 25.7188 4.14062 24.3958 3.48438 22.875C2.82812 21.3542 2.5 19.7292 2.5 18C2.5 16.2708 2.82812 14.6458 3.48438 13.125C4.14062 11.6042 5.03125 10.2812 6.15625 9.15625C7.28125 8.03125 8.60417 7.14062 10.125 6.48438C11.6458 5.82812 13.2708 5.5 15 5.5C16.7292 5.5 18.3542 5.82812 19.875 6.48438C21.3958 7.14062 22.7188 8.03125 23.8438 9.15625C24.9688 10.2812 25.8594 11.6042 26.5156 13.125C27.1719 14.6458 27.5 16.2708 27.5 18C27.5 19.7292 27.1719 21.3542 26.5156 22.875C25.8594 24.3958 24.9688 25.7188 23.8438 26.8438C22.7188 27.9688 21.3958 28.8594 19.875 29.5156C18.3542 30.1719 16.7292 30.5 15 30.5ZM13.3125 8.15625C14.1875 9.61458 15.375 10.7865 16.875 11.6719C18.375 12.5573 20.0417 13 21.875 13C22.1667 13 22.4479 12.9844 22.7188 12.9531C22.9896 12.9219 23.2708 12.8854 23.5625 12.8438C22.6875 11.3854 21.5 10.2135 20 9.32812C18.5 8.44271 16.8333 8 15 8C14.7083 8 14.4271 8.01562 14.1562 8.04688C13.8854 8.07812 13.6042 8.11458 13.3125 8.15625ZM5.53125 14.8438C6.59375 14.2396 7.52083 13.4583 8.3125 12.5C9.10417 11.5417 9.69792 10.4688 10.0938 9.28125C9.03125 9.88542 8.10417 10.6667 7.3125 11.625C6.52083 12.5833 5.92708 13.6562 5.53125 14.8438Z" fill="#8B0000"/>
</svg>
