<svg width="20" height="24" viewBox="0 0 20 24" fill="none" xmlns="http://www.w3.org/2000/svg">
<path d="M5 19.5C4.375 19.5 3.75694 19.3472 3.14583 19.0417C2.53472 18.7361 2.04167 18.3333 1.66667 17.8333C2.02778 17.8333 2.39583 17.691 2.77083 17.4062C3.14583 17.1215 3.33333 16.7083 3.33333 16.1667C3.33333 15.4722 3.57639 14.8819 4.0625 14.3958C4.54861 13.9097 5.13889 13.6667 5.83333 13.6667C6.52778 13.6667 7.11806 13.9097 7.60417 14.3958C8.09028 14.8819 8.33333 15.4722 8.33333 16.1667C8.33333 17.0833 8.00694 17.8681 7.35417 18.5208C6.70139 19.1736 5.91667 19.5 5 19.5ZM5 17.8333C5.45833 17.8333 5.85069 17.6701 6.17708 17.3437C6.50347 17.0174 6.66667 16.625 6.66667 16.1667C6.66667 15.9306 6.58681 15.7326 6.42708 15.5729C6.26736 15.4132 6.06944 15.3333 5.83333 15.3333C5.59722 15.3333 5.39931 15.4132 5.23958 15.5729C5.07986 15.7326 5 15.9306 5 16.1667C5 16.4861 4.96181 16.7778 4.88542 17.0417C4.80903 17.3056 4.70833 17.5556 4.58333 17.7917C4.65278 17.8194 4.72222 17.8333 4.79167 17.8333C4.86111 17.8333 4.93056 17.8333 5 17.8333ZM9.79167 14.5L7.5 12.2083L14.9583 4.75C15.1111 4.59722 15.3021 4.51736 15.5312 4.51042C15.7604 4.50347 15.9583 4.58333 16.125 4.75L17.25 5.875C17.4167 6.04167 17.5 6.23611 17.5 6.45833C17.5 6.68056 17.4167 6.875 17.25 7.04167L9.79167 14.5Z" fill="#8B0000"/>
</svg>
