<svg width="19" height="16" viewBox="0 0 19 16" fill="none" xmlns="http://www.w3.org/2000/svg">
<path d="M2.5 10.8333C1.80556 10.8333 1.21528 10.5903 0.729167 10.1042C0.243056 9.61807 0 9.02779 0 8.33334C0 7.6389 0.243056 7.04862 0.729167 6.56251C1.21528 6.0764 1.80556 5.83334 2.5 5.83334V4.16668C2.5 3.70834 2.66319 3.31598 2.98958 2.98959C3.31597 2.6632 3.70833 2.50001 4.16667 2.50001H6.66667C6.66667 1.80557 6.90972 1.21529 7.39583 0.729176C7.88194 0.243065 8.47222 9.70066e-06 9.16667 9.70066e-06C9.86111 9.70066e-06 10.4514 0.243065 10.9375 0.729176C11.4236 1.21529 11.6667 1.80557 11.6667 2.50001H14.1667C14.625 2.50001 15.0174 2.6632 15.3438 2.98959C15.6701 3.31598 15.8333 3.70834 15.8333 4.16668V5.83334C16.5278 5.83334 17.1181 6.0764 17.6042 6.56251C18.0903 7.04862 18.3333 7.6389 18.3333 8.33334C18.3333 9.02779 18.0903 9.61807 17.6042 10.1042C17.1181 10.5903 16.5278 10.8333 15.8333 10.8333V14.1667C15.8333 14.625 15.6701 15.0174 15.3438 15.3438C15.0174 15.6701 14.625 15.8333 14.1667 15.8333H4.16667C3.70833 15.8333 3.31597 15.6701 2.98958 15.3438C2.66319 15.0174 2.5 14.625 2.5 14.1667V10.8333ZM6.66667 9.16668C6.66667 9.16668 6.75347 9.16668 6.92708 9.16668C7.10069 9.16668 7.30903 9.04515 7.55208 8.80209C7.79514 8.55904 7.91667 8.2639 7.91667 7.91668C7.91667 7.56945 7.79514 7.27432 7.55208 7.03126C7.30903 6.7882 7.01389 6.66668 6.66667 6.66668C6.31944 6.66668 6.02431 6.7882 5.78125 7.03126C5.53819 7.27432 5.41667 7.56945 5.41667 7.91668C5.41667 8.2639 5.53819 8.55904 5.78125 8.80209C6.02431 9.04515 6.31944 9.16668 6.66667 9.16668ZM11.6667 9.16668C11.6667 9.16668 11.7535 9.16668 11.9271 9.16668C12.1007 9.16668 12.309 9.04515 12.5521 8.80209C12.7951 8.55904 12.9167 8.2639 12.9167 7.91668C12.9167 7.56945 12.7951 7.27432 12.5521 7.03126C12.309 6.7882 12.0139 6.66668 11.6667 6.66668C11.3194 6.66668 11.0243 6.7882 10.7813 7.03126C10.5382 7.27432 10.4167 7.56945 10.4167 7.91668C10.4167 8.2639 10.5382 8.55904 10.7813 8.80209C11.0243 9.04515 11.3194 9.16668 11.6667 9.16668ZM5.83333 12.5H12.5V10.8333H5.83333V12.5ZM4.16667 14.1667H14.1667V4.16668H4.16667V14.1667Z" fill="#8B0000"/>
</svg>
