<svg width="20" height="24" viewBox="0 0 20 24" fill="none" xmlns="http://www.w3.org/2000/svg">
<path d="M3.33333 14.5C2.63889 14.5 2.04861 14.2569 1.5625 13.7708C1.07639 13.2847 0.833333 12.6944 0.833333 12C0.833333 11.3056 1.07639 10.7153 1.5625 10.2292C2.04861 9.74306 2.63889 9.5 3.33333 9.5V7.83333C3.33333 7.375 3.49653 6.98264 3.82292 6.65625C4.14931 6.32986 4.54167 6.16667 5 6.16667H7.5C7.5 5.47222 7.74306 4.88194 8.22917 4.39583C8.71528 3.90972 9.30556 3.66667 10 3.66667C10.6944 3.66667 11.2847 3.90972 11.7708 4.39583C12.2569 4.88194 12.5 5.47222 12.5 6.16667H15C15.4583 6.16667 15.8507 6.32986 16.1771 6.65625C16.5035 6.98264 16.6667 7.375 16.6667 7.83333V9.5C17.3611 9.5 17.9514 9.74306 18.4375 10.2292C18.9236 10.7153 19.1667 11.3056 19.1667 12C19.1667 12.6944 18.9236 13.2847 18.4375 13.7708C17.9514 14.2569 17.3611 14.5 16.6667 14.5V17.8333C16.6667 18.2917 16.5035 18.684 16.1771 19.0104C15.8507 19.3368 15.4583 19.5 15 19.5H5C4.54167 19.5 4.14931 19.3368 3.82292 19.0104C3.49653 18.684 3.33333 18.2917 3.33333 17.8333V14.5ZM7.5 12.8333C7.5 12.8333 7.58681 12.8333 7.76042 12.8333C7.93403 12.8333 8.14236 12.7118 8.38542 12.4687C8.62847 12.2257 8.75 11.9306 8.75 11.5833C8.75 11.2361 8.62847 10.941 8.38542 10.6979C8.14236 10.4549 7.84722 10.3333 7.5 10.3333C7.15278 10.3333 6.85764 10.4549 6.61458 10.6979C6.37153 10.941 6.25 11.2361 6.25 11.5833C6.25 11.9306 6.37153 12.2257 6.61458 12.4687C6.85764 12.7118 7.15278 12.8333 7.5 12.8333ZM12.5 12.8333C12.5 12.8333 12.5868 12.8333 12.7604 12.8333C12.934 12.8333 13.1424 12.7118 13.3854 12.4687C13.6285 12.2257 13.75 11.9306 13.75 11.5833C13.75 11.2361 13.6285 10.941 13.3854 10.6979C13.1424 10.4549 12.8472 10.3333 12.5 10.3333C12.1528 10.3333 11.8576 10.4549 11.6146 10.6979C11.3715 10.941 11.25 11.2361 11.25 11.5833C11.25 11.9306 11.3715 12.2257 11.6146 12.4687C11.8576 12.7118 12.1528 12.8333 12.5 12.8333ZM6.66667 16.1667H13.3333V14.5H6.66667V16.1667ZM5 17.8333H15V7.83333H5V17.8333Z" fill="#8B0000"/>
</svg>
