<svg width="20" height="24" viewBox="0 0 20 24" fill="none" xmlns="http://www.w3.org/2000/svg">
<path d="M10 20.3333C8.86111 20.3333 7.78472 20.1146 6.77083 19.6771C5.75694 19.2396 4.87153 18.6424 4.11458 17.8854C3.35764 17.1285 2.76042 16.2431 2.32292 15.2292C1.88542 14.2153 1.66667 13.1389 1.66667 12C1.66667 10.8472 1.89236 9.76388 2.34375 8.74999C2.79514 7.7361 3.40625 6.85416 4.17708 6.10416C4.94792 5.35416 5.84722 4.76041 6.875 4.32291C7.90278 3.88541 9 3.66666 10.1667 3.66666C11.2778 3.66666 12.3264 3.85763 13.3125 4.23958C14.2986 4.62152 15.1632 5.1493 15.9063 5.82291C16.6493 6.49652 17.2396 7.29513 17.6771 8.21874C18.1146 9.14235 18.3333 10.1389 18.3333 11.2083C18.3333 12.8055 17.8472 14.0312 16.875 14.8854C15.9028 15.7396 14.7222 16.1667 13.3333 16.1667H11.7917C11.6667 16.1667 11.5799 16.2014 11.5313 16.2708C11.4826 16.3403 11.4583 16.4167 11.4583 16.5C11.4583 16.6667 11.5625 16.9062 11.7708 17.2187C11.9792 17.5312 12.0833 17.8889 12.0833 18.2917C12.0833 18.9861 11.8924 19.5 11.5104 19.8333C11.1285 20.1667 10.625 20.3333 10 20.3333ZM5.41667 12.8333C5.41667 12.8333 5.50694 12.8333 5.6875 12.8333C5.86806 12.8333 6.07639 12.7153 6.3125 12.4792C6.54861 12.243 6.66667 11.9444 6.66667 11.5833C6.66667 11.2222 6.54861 10.9236 6.3125 10.6875C6.07639 10.4514 5.77778 10.3333 5.41667 10.3333C5.05556 10.3333 4.75694 10.4514 4.52083 10.6875C4.28472 10.9236 4.16667 11.2222 4.16667 11.5833C4.16667 11.9444 4.28472 12.243 4.52083 12.4792C4.75694 12.7153 5.05556 12.8333 5.41667 12.8333ZM7.91667 9.49999C7.91667 9.49999 8.00694 9.49999 8.1875 9.49999C8.36806 9.49999 8.57639 9.38194 8.8125 9.14583C9.04861 8.90972 9.16667 8.6111 9.16667 8.24999C9.16667 7.88888 9.04861 7.59027 8.8125 7.35416C8.57639 7.11805 8.27778 6.99999 7.91667 6.99999C7.55556 6.99999 7.25694 7.11805 7.02083 7.35416C6.78472 7.59027 6.66667 7.88888 6.66667 8.24999C6.66667 8.6111 6.78472 8.90972 7.02083 9.14583C7.25694 9.38194 7.55556 9.49999 7.91667 9.49999ZM12.0833 9.49999C12.0833 9.49999 12.1736 9.49999 12.3542 9.49999C12.5347 9.49999 12.7431 9.38194 12.9792 9.14583C13.2153 8.90972 13.3333 8.6111 13.3333 8.24999C13.3333 7.88888 13.2153 7.59027 12.9792 7.35416C12.7431 7.11805 12.4444 6.99999 12.0833 6.99999C11.7222 6.99999 11.4236 7.11805 11.1875 7.35416C10.9514 7.59027 10.8333 7.88888 10.8333 8.24999C10.8333 8.6111 10.9514 8.90972 11.1875 9.14583C11.4236 9.38194 11.7222 9.49999 12.0833 9.49999ZM14.5833 12.8333C14.5833 12.8333 14.6736 12.8333 14.8542 12.8333C15.0347 12.8333 15.2431 12.7153 15.4792 12.4792C15.7153 12.243 15.8333 11.9444 15.8333 11.5833C15.8333 11.2222 15.7153 10.9236 15.4792 10.6875C15.2431 10.4514 14.9444 10.3333 14.5833 10.3333C14.2222 10.3333 13.9236 10.4514 13.6875 10.6875C13.4514 10.9236 13.3333 11.2222 13.3333 11.5833C13.3333 11.9444 13.4514 12.243 13.6875 12.4792C13.9236 12.7153 14.2222 12.8333 14.5833 12.8333ZM10 18.6667C10.125 18.6667 10.2257 18.6319 10.3021 18.5625C10.3785 18.4931 10.4167 18.4028 10.4167 18.2917C10.4167 18.0972 10.3125 17.8681 10.1042 17.6042C9.89583 17.3403 9.79167 16.9444 9.79167 16.4167C9.79167 15.8333 9.99306 15.368 10.3958 15.0208C10.7986 14.6736 11.2917 14.5 11.875 14.5H13.3333C14.25 14.5 15.0347 14.2326 15.6875 13.6979C16.3403 13.1632 16.6667 12.3333 16.6667 11.2083C16.6667 9.52777 16.0243 8.12847 14.7396 7.01041C13.4549 5.89235 11.9306 5.33333 10.1667 5.33333C8.27778 5.33333 6.66667 5.97916 5.33333 7.27083C4 8.56249 3.33333 10.1389 3.33333 12C3.33333 13.8472 3.98264 15.4201 5.28125 16.7187C6.57986 18.0174 8.15278 18.6667 10 18.6667Z" fill="#8B0000"/>
</svg>
