<svg width="20" height="24" viewBox="0 0 20 24" fill="none" xmlns="http://www.w3.org/2000/svg">
<path d="M4.70833 10.3542L6.33333 11.0417C6.52778 10.6528 6.72917 10.2778 6.9375 9.91667C7.14583 9.55556 7.375 9.19444 7.625 8.83333L6.45833 8.60417L4.70833 10.3542ZM7.66667 12.0833L10.0417 14.4375C10.625 14.2153 11.25 13.875 11.9167 13.4167C12.5833 12.9583 13.2083 12.4375 13.7917 11.8542C14.7639 10.8819 15.5243 9.80208 16.0729 8.61458C16.6215 7.42708 16.8611 6.33333 16.7917 5.33333C15.7917 5.26389 14.6944 5.50347 13.5 6.05208C12.3056 6.60069 11.2222 7.36111 10.25 8.33333C9.66667 8.91667 9.14583 9.54167 8.6875 10.2083C8.22917 10.875 7.88889 11.5 7.66667 12.0833ZM11.375 10.7292C11.375 10.7292 11.2951 10.6493 11.1354 10.4896C10.9757 10.3299 10.8958 10.0174 10.8958 9.55208C10.8958 9.08681 11.0556 8.69444 11.375 8.375C11.6944 8.05556 12.0903 7.89583 12.5625 7.89583C13.0347 7.89583 13.4306 8.05556 13.75 8.375C14.0694 8.69444 14.2292 9.08681 14.2292 9.55208C14.2292 10.0174 14.0694 10.4097 13.75 10.7292C13.4306 11.0486 13.0347 11.2083 12.5625 11.2083C12.0903 11.2083 11.6944 11.0486 11.375 10.7292ZM11.7708 17.4167L13.5208 15.6667L13.2917 14.5C12.9306 14.75 12.5694 14.9757 12.2083 15.1771C11.8472 15.3785 11.4722 15.5764 11.0833 15.7708L11.7708 17.4167ZM18.2917 3.8125C18.5556 5.49305 18.3924 7.12847 17.8021 8.71875C17.2118 10.309 16.1944 11.8264 14.75 13.2708L15.1667 15.3333C15.2222 15.6111 15.2083 15.8819 15.125 16.1458C15.0417 16.4097 14.9028 16.6389 14.7083 16.8333L11.2083 20.3333L9.45833 16.2292L5.89583 12.6667L1.79167 10.9167L5.27083 7.41667C5.46528 7.22222 5.69792 7.08333 5.96875 7C6.23958 6.91667 6.51389 6.90278 6.79167 6.95833L8.85417 7.375C10.2986 5.93056 11.8125 4.90972 13.3958 4.3125C14.9792 3.71528 16.6111 3.54861 18.2917 3.8125ZM3.27083 15.3125C3.75694 14.8264 4.35069 14.5799 5.05208 14.5729C5.75347 14.566 6.34722 14.8056 6.83333 15.2917C7.31944 15.7778 7.55903 16.3715 7.55208 17.0729C7.54514 17.7743 7.29861 18.3681 6.8125 18.8542C6.46528 19.2014 5.88542 19.5 5.07292 19.75C4.26042 20 3.13889 20.2222 1.70833 20.4167C1.90278 18.9861 2.125 17.8646 2.375 17.0521C2.625 16.2396 2.92361 15.6597 3.27083 15.3125ZM4.45833 16.4792C4.31944 16.6181 4.18056 16.8715 4.04167 17.2396C3.90278 17.6076 3.80556 17.9792 3.75 18.3542C4.125 18.2986 4.49653 18.2049 4.86458 18.0729C5.23264 17.941 5.48611 17.8056 5.625 17.6667C5.79167 17.5 5.88194 17.2986 5.89583 17.0625C5.90972 16.8264 5.83333 16.625 5.66667 16.4583C5.5 16.2917 5.29861 16.2118 5.0625 16.2188C4.82639 16.2257 4.625 16.3125 4.45833 16.4792Z" fill="#8B0000"/>
</svg>
