<svg width="20" height="24" viewBox="0 0 20 24" fill="none" xmlns="http://www.w3.org/2000/svg">
<path d="M9.16669 16.1667H5.83335C4.68058 16.1667 3.69794 15.7604 2.88544 14.9479C2.07294 14.1354 1.66669 13.1528 1.66669 12C1.66669 10.8472 2.07294 9.8646 2.88544 9.0521C3.69794 8.2396 4.68058 7.83335 5.83335 7.83335H9.16669V9.50002H5.83335C5.13891 9.50002 4.54863 9.74308 4.06252 10.2292C3.57641 10.7153 3.33335 11.3056 3.33335 12C3.33335 12.6945 3.57641 13.2847 4.06252 13.7709C4.54863 14.257 5.13891 14.5 5.83335 14.5H9.16669V16.1667ZM6.66669 12.8334V11.1667H13.3334V12.8334H6.66669ZM10.8334 16.1667V14.5H14.1667C14.8611 14.5 15.4514 14.257 15.9375 13.7709C16.4236 13.2847 16.6667 12.6945 16.6667 12C16.6667 11.3056 16.4236 10.7153 15.9375 10.2292C15.4514 9.74308 14.8611 9.50002 14.1667 9.50002H10.8334V7.83335H14.1667C15.3195 7.83335 16.3021 8.2396 17.1146 9.0521C17.9271 9.8646 18.3334 10.8472 18.3334 12C18.3334 13.1528 17.9271 14.1354 17.1146 14.9479C16.3021 15.7604 15.3195 16.1667 14.1667 16.1667H10.8334Z" fill="#9CA3AF"/>
</svg>
