<svg width="20" height="24" viewBox="0 0 20 24" fill="none" xmlns="http://www.w3.org/2000/svg">
<path d="M3.33335 18.6667C2.87502 18.6667 2.48266 18.5035 2.15627 18.1771C1.82988 17.8507 1.66669 17.4584 1.66669 17V7.00002C1.66669 6.54169 1.82988 6.14933 2.15627 5.82294C2.48266 5.49655 2.87502 5.33335 3.33335 5.33335H16.6667C17.125 5.33335 17.5174 5.49655 17.8438 5.82294C18.1702 6.14933 18.3334 6.54169 18.3334 7.00002V17C18.3334 17.4584 18.1702 17.8507 17.8438 18.1771C17.5174 18.5035 17.125 18.6667 16.6667 18.6667H3.33335ZM10 12.8334L3.33335 8.66669V17H16.6667V8.66669L10 12.8334ZM10 11.1667L16.6667 7.00002H3.33335L10 11.1667Z" fill="#9CA3AF"/>
</svg>
