<svg width="20" height="24" viewBox="0 0 20 24" fill="none" xmlns="http://www.w3.org/2000/svg">
<path d="M9.16667 16.1667H5.83334C4.68056 16.1667 3.69792 15.7604 2.88542 14.9479C2.07292 14.1354 1.66667 13.1528 1.66667 12C1.66667 10.8472 2.07292 9.8646 2.88542 9.0521C3.69792 8.2396 4.68056 7.83335 5.83334 7.83335H9.16667V9.50002H5.83334C5.13889 9.50002 4.54861 9.74308 4.0625 10.2292C3.57639 10.7153 3.33333 11.3056 3.33333 12C3.33333 12.6945 3.57639 13.2847 4.0625 13.7709C4.54861 14.257 5.13889 14.5 5.83334 14.5H9.16667V16.1667ZM6.66667 12.8334V11.1667H13.3333V12.8334H6.66667ZM10.8333 16.1667V14.5H14.1667C14.8611 14.5 15.4514 14.257 15.9375 13.7709C16.4236 13.2847 16.6667 12.6945 16.6667 12C16.6667 11.3056 16.4236 10.7153 15.9375 10.2292C15.4514 9.74308 14.8611 9.50002 14.1667 9.50002H10.8333V7.83335H14.1667C15.3194 7.83335 16.3021 8.2396 17.1146 9.0521C17.9271 9.8646 18.3333 10.8472 18.3333 12C18.3333 13.1528 17.9271 14.1354 17.1146 14.9479C16.3021 15.7604 15.3194 16.1667 14.1667 16.1667H10.8333Z" fill="#9CA3AF"/>
</svg>
