<svg width="17" height="9" viewBox="0 0 17 9" fill="none" xmlns="http://www.w3.org/2000/svg">
<path d="M7.5 8.33331H4.16667C3.01389 8.33331 2.03125 7.92706 1.21875 7.11456C0.40625 6.30206 0 5.31942 0 4.16665C0 3.01387 0.40625 2.03123 1.21875 1.21873C2.03125 0.406229 3.01389 -2.13385e-05 4.16667 -2.13385e-05H7.5V1.66665H4.16667C3.47222 1.66665 2.88194 1.9097 2.39583 2.39581C1.90972 2.88192 1.66667 3.4722 1.66667 4.16665C1.66667 4.86109 1.90972 5.45137 2.39583 5.93748C2.88194 6.42359 3.47222 6.66665 4.16667 6.66665H7.5V8.33331ZM5 4.99998V3.33331H11.6667V4.99998H5ZM9.16667 8.33331V6.66665H12.5C13.1944 6.66665 13.7847 6.42359 14.2708 5.93748C14.7569 5.45137 15 4.86109 15 4.16665C15 3.4722 14.7569 2.88192 14.2708 2.39581C13.7847 1.9097 13.1944 1.66665 12.5 1.66665H9.16667V-2.13385e-05H12.5C13.6528 -2.13385e-05 14.6354 0.406229 15.4479 1.21873C16.2604 2.03123 16.6667 3.01387 16.6667 4.16665C16.6667 5.31942 16.2604 6.30206 15.4479 7.11456C14.6354 7.92706 13.6528 8.33331 12.5 8.33331H9.16667Z" fill="#9CA3AF"/>
</svg>
