<svg width="17" height="14" viewBox="0 0 17 14" fill="none" xmlns="http://www.w3.org/2000/svg">
<path d="M1.66667 13.3333C1.20833 13.3333 0.815972 13.1701 0.489583 12.8437C0.163194 12.5173 0 12.125 0 11.6666V1.66665C0 1.20831 0.163194 0.815952 0.489583 0.489563C0.815972 0.163174 1.20833 -2.07424e-05 1.66667 -2.07424e-05H15C15.4583 -2.07424e-05 15.8507 0.163174 16.1771 0.489563C16.5035 0.815952 16.6667 1.20831 16.6667 1.66665V11.6666C16.6667 12.125 16.5035 12.5173 16.1771 12.8437C15.8507 13.1701 15.4583 13.3333 15 13.3333H1.66667ZM8.33333 7.49998L1.66667 3.33331V11.6666H15V3.33331L8.33333 7.49998ZM8.33333 5.83331L15 1.66665H1.66667L8.33333 5.83331Z" fill="#9CA3AF"/>
</svg>
