<svg width="36" height="44" viewBox="0 0 36 44" fill="none" xmlns="http://www.w3.org/2000/svg">
<path d="M17.8125 34C17.9125 34 18.0125 33.975 18.1125 33.925C18.2125 33.875 18.2875 33.825 18.3375 33.775L30.6375 21.475C30.9375 21.175 31.1563 20.8375 31.2938 20.4625C31.4313 20.0875 31.5 19.7125 31.5 19.3375C31.5 18.9375 31.4313 18.5562 31.2938 18.1937C31.1563 17.8312 30.9375 17.5125 30.6375 17.2375L24.2625 10.8625C23.9875 10.5625 23.6688 10.3437 23.3063 10.2062C22.9438 10.0687 22.5625 10 22.1625 10C21.7875 10 21.4125 10.0687 21.0375 10.2062C20.6625 10.3437 20.325 10.5625 20.025 10.8625L19.6125 11.275L22.3875 14.0875C22.7625 14.4375 23.0375 14.8375 23.2125 15.2875C23.3875 15.7375 23.475 16.2125 23.475 16.7125C23.475 17.7625 23.1188 18.6437 22.4063 19.3562C21.6938 20.0687 20.8125 20.425 19.7625 20.425C19.2625 20.425 18.7812 20.3375 18.3187 20.1625C17.8562 19.9875 17.45 19.725 17.1 19.375L14.2875 16.6L7.725 23.1625C7.65 23.2375 7.59375 23.3187 7.55625 23.4062C7.51875 23.4937 7.5 23.5875 7.5 23.6875C7.5 23.8875 7.575 24.0687 7.725 24.2312C7.875 24.3937 8.05 24.475 8.25 24.475C8.35 24.475 8.45 24.45 8.55 24.4C8.65 24.35 8.725 24.3 8.775 24.25L13.875 19.15L15.975 21.25L10.9125 26.35C10.8375 26.425 10.7812 26.5062 10.7437 26.5937C10.7062 26.6812 10.6875 26.775 10.6875 26.875C10.6875 27.075 10.7625 27.25 10.9125 27.4C11.0625 27.55 11.2375 27.625 11.4375 27.625C11.5375 27.625 11.6375 27.6 11.7375 27.55C11.8375 27.5 11.9125 27.45 11.9625 27.4L17.0625 22.3375L19.1625 24.4375L14.1 29.5375C14.025 29.5875 13.9687 29.6625 13.9312 29.7625C13.8937 29.8625 13.875 29.9625 13.875 30.0625C13.875 30.2625 13.95 30.4375 14.1 30.5875C14.25 30.7375 14.425 30.8125 14.625 30.8125C14.725 30.8125 14.8187 30.7937 14.9062 30.7562C14.9937 30.7187 15.075 30.6625 15.15 30.5875L20.25 25.525L22.35 27.625L17.25 32.725C17.175 32.8 17.1187 32.8812 17.0812 32.9687C17.0437 33.0562 17.025 33.15 17.025 33.25C17.025 33.45 17.1062 33.625 17.2687 33.775C17.4312 33.925 17.6125 34 17.8125 34ZM17.775 37C16.85 37 16.0312 36.6938 15.3187 36.0812C14.6062 35.4687 14.1875 34.7 14.0625 33.775C13.2125 33.65 12.5 33.3 11.925 32.725C11.35 32.15 11 31.4375 10.875 30.5875C10.025 30.4625 9.31875 30.1062 8.75625 29.5187C8.19375 28.9312 7.85 28.225 7.725 27.4C6.775 27.275 6 26.8625 5.4 26.1625C4.8 25.4625 4.5 24.6375 4.5 23.6875C4.5 23.1875 4.59375 22.7062 4.78125 22.2437C4.96875 21.7812 5.2375 21.375 5.5875 21.025L14.2875 12.3625L19.2 17.275C19.25 17.35 19.325 17.4062 19.425 17.4437C19.525 17.4812 19.625 17.5 19.725 17.5C19.95 17.5 20.1375 17.4312 20.2875 17.2937C20.4375 17.1562 20.5125 16.975 20.5125 16.75C20.5125 16.65 20.4937 16.55 20.4562 16.45C20.4187 16.35 20.3625 16.275 20.2875 16.225L14.925 10.8625C14.65 10.5625 14.3312 10.3437 13.9687 10.2062C13.6062 10.0687 13.225 10 12.825 10C12.45 10 12.075 10.0687 11.7 10.2062C11.325 10.3437 10.9875 10.5625 10.6875 10.8625L5.4 16.1875C5.175 16.4125 4.9875 16.675 4.8375 16.975C4.6875 17.275 4.5875 17.575 4.5375 17.875C4.4875 18.175 4.4875 18.4812 4.5375 18.7937C4.5875 19.1062 4.6875 19.4 4.8375 19.675L2.6625 21.85C2.2375 21.275 1.925 20.6437 1.725 19.9562C1.525 19.2687 1.45 18.575 1.5 17.875C1.55 17.175 1.725 16.4937 2.025 15.8312C2.325 15.1687 2.7375 14.575 3.2625 14.05L8.55 8.7625C9.15 8.1875 9.81875 7.75 10.5562 7.45C11.2937 7.15 12.05 7 12.825 7C13.6 7 14.3562 7.15 15.0937 7.45C15.8312 7.75 16.4875 8.1875 17.0625 8.7625L17.475 9.175L17.8875 8.7625C18.4875 8.1875 19.1562 7.75 19.8937 7.45C20.6312 7.15 21.3875 7 22.1625 7C22.9375 7 23.6938 7.15 24.4313 7.45C25.1688 7.75 25.825 8.1875 26.4 8.7625L32.7375 15.1C33.3125 15.675 33.75 16.3375 34.05 17.0875C34.35 17.8375 34.5 18.6 34.5 19.375C34.5 20.15 34.35 20.9062 34.05 21.6437C33.75 22.3812 33.3125 23.0375 32.7375 23.6125L20.4375 35.875C20.0875 36.225 19.6812 36.5 19.2187 36.7C18.7562 36.9 18.275 37 17.775 37Z" fill="#8B0000"/>
</svg>
