<svg width="20" height="24" viewBox="0 0 20 24" fill="none" xmlns="http://www.w3.org/2000/svg">
<path d="M10 20.3334C10 20.3334 9.71183 20.3334 9.13544 20.3334C8.55905 20.3334 7.76391 20.1146 6.75002 19.6771C5.73613 19.2396 4.85419 18.6459 4.10419 17.8959C3.35419 17.1459 2.76044 16.2639 2.32294 15.25C1.88544 14.2362 1.66669 13.1528 1.66669 12C1.66669 10.8473 1.88544 9.76393 2.32294 8.75004C2.76044 7.73615 3.35419 6.85421 4.10419 6.10421C4.85419 5.35421 5.73613 4.76046 6.75002 4.32296C7.76391 3.88546 8.84724 3.66671 10 3.66671C11.1528 3.66671 12.2361 3.88546 13.25 4.32296C14.2639 4.76046 15.1459 5.35421 15.8959 6.10421C16.6459 6.85421 17.2396 7.73615 17.6771 8.75004C18.1146 9.76393 18.3334 10.8473 18.3334 12C18.3334 13.1528 18.1146 14.2362 17.6771 15.25C17.2396 16.2639 16.6459 17.1459 15.8959 17.8959C15.1459 18.6459 14.2639 19.2396 13.25 19.6771C12.2361 20.1146 11.1528 20.3334 10 20.3334ZM9.16669 18.625V17C8.70835 17 8.31599 16.8368 7.9896 16.5105C7.66322 16.1841 7.50002 15.7917 7.50002 15.3334V14.5L3.50002 10.5C3.45835 10.75 3.42016 11 3.38544 11.25C3.35071 11.5 3.33335 11.75 3.33335 12C3.33335 13.6806 3.88544 15.1528 4.9896 16.4167C6.09377 17.6806 7.48613 18.4167 9.16669 18.625ZM14.9167 16.5C15.4861 15.875 15.9202 15.1771 16.2188 14.4063C16.5174 13.6355 16.6667 12.8334 16.6667 12C16.6667 10.6389 16.2882 9.39587 15.5313 8.27087C14.7743 7.14587 13.7639 6.33337 12.5 5.83337V6.16671C12.5 6.62504 12.3368 7.0174 12.0104 7.34379C11.684 7.67018 11.2917 7.83337 10.8334 7.83337H9.16669V9.50004C9.16669 9.73615 9.08683 9.93407 8.9271 10.0938C8.76738 10.2535 8.56947 10.3334 8.33335 10.3334H6.66669V12H11.6667C11.9028 12 12.1007 12.0799 12.2604 12.2396C12.4202 12.3993 12.5 12.5973 12.5 12.8334V15.3334H13.3334C13.6945 15.3334 14.0209 15.441 14.3125 15.6563C14.6042 15.8716 14.8056 16.1528 14.9167 16.5Z" fill="#9CA3AF"/>
</svg>
