<svg width="17" height="17" viewBox="0 0 17 17" fill="none" xmlns="http://www.w3.org/2000/svg">
<path d="M8.33333 16.6666C8.33333 16.6666 8.04514 16.6666 7.46875 16.6666C6.89236 16.6666 6.09722 16.4479 5.08333 16.0104C4.06944 15.5729 3.1875 14.9791 2.4375 14.2291C1.6875 13.4791 1.09375 12.5972 0.65625 11.5833C0.21875 10.5694 0 9.48607 0 8.33329C0 7.18051 0.21875 6.09718 0.65625 5.08329C1.09375 4.0694 1.6875 3.18746 2.4375 2.43746C3.1875 1.68746 4.06944 1.09371 5.08333 0.656207C6.09722 0.218707 7.18056 -4.26769e-05 8.33333 -4.26769e-05C9.48611 -4.26769e-05 10.5694 0.218707 11.5833 0.656207C12.5972 1.09371 13.4792 1.68746 14.2292 2.43746C14.9792 3.18746 15.5729 4.0694 16.0104 5.08329C16.4479 6.09718 16.6667 7.18051 16.6667 8.33329C16.6667 9.48607 16.4479 10.5694 16.0104 11.5833C15.5729 12.5972 14.9792 13.4791 14.2292 14.2291C13.4792 14.9791 12.5972 15.5729 11.5833 16.0104C10.5694 16.4479 9.48611 16.6666 8.33333 16.6666ZM7.5 14.9583V13.3333C7.04167 13.3333 6.64931 13.1701 6.32292 12.8437C5.99653 12.5173 5.83333 12.125 5.83333 11.6666V10.8333L1.83333 6.83329C1.79167 7.08329 1.75347 7.33329 1.71875 7.58329C1.68403 7.83329 1.66667 8.08329 1.66667 8.33329C1.66667 10.0138 2.21875 11.4861 3.32292 12.75C4.42708 14.0138 5.81945 14.75 7.5 14.9583ZM13.25 12.8333C13.8194 12.2083 14.2535 11.5104 14.5521 10.7395C14.8507 9.96871 15 9.16663 15 8.33329C15 6.97218 14.6215 5.72912 13.8646 4.60412C13.1076 3.47912 12.0972 2.66662 10.8333 2.16662V2.49996C10.8333 2.95829 10.6701 3.35065 10.3438 3.67704C10.0174 4.00343 9.625 4.16662 9.16667 4.16662H7.5V5.83329C7.5 6.0694 7.42014 6.26732 7.26042 6.42704C7.1007 6.58676 6.90278 6.66662 6.66667 6.66662H5V8.33329H10C10.2361 8.33329 10.434 8.41315 10.5938 8.57288C10.7535 8.7326 10.8333 8.93051 10.8333 9.16663V11.6666H11.6667C12.0278 11.6666 12.3542 11.7743 12.6458 11.9895C12.9375 12.2048 13.1389 12.4861 13.25 12.8333Z" fill="#9CA3AF"/>
</svg>
