<svg width="30" height="36" viewBox="0 0 30 36" fill="none" xmlns="http://www.w3.org/2000/svg">
<path d="M4.96875 29.25V25.5H8.84375L5.65625 15.0625C5.09375 14.75 4.63021 14.2917 4.26562 13.6875C3.90104 13.0833 3.71875 12.4375 3.71875 11.75C3.71875 10.7083 4.08333 9.82292 4.8125 9.09375C5.54167 8.36458 6.42708 8 7.46875 8C8.28125 8 9.00521 8.23438 9.64062 8.70312C10.276 9.17188 10.7188 9.77083 10.9688 10.5H14.9688V9.25C14.9688 8.89583 15.0885 8.59896 15.3281 8.35938C15.5677 8.11979 15.8646 8 16.2188 8C16.4062 8 16.5885 8.04167 16.7656 8.125C16.9427 8.20833 17.0938 8.33333 17.2188 8.5L19.3438 6.5C19.5312 6.3125 19.7552 6.19271 20.0156 6.14062C20.276 6.08854 20.5312 6.125 20.7812 6.25L25.6562 8.5C25.9062 8.625 26.0781 8.80729 26.1719 9.04688C26.2656 9.28646 26.2604 9.52083 26.1562 9.75C26.0312 10 25.849 10.1615 25.6094 10.2344C25.3698 10.3073 25.1354 10.2917 24.9062 10.1875L20.4062 8.125L17.4688 10.875V12.625L20.4062 15.3125L24.9062 13.25C25.1354 13.1458 25.375 13.1354 25.625 13.2188C25.875 13.3021 26.0521 13.4583 26.1562 13.6875C26.2812 13.9375 26.2917 14.1771 26.1875 14.4062C26.0833 14.6354 25.9062 14.8125 25.6562 14.9375L20.7812 17.25C20.5312 17.375 20.276 17.4115 20.0156 17.3594C19.7552 17.3073 19.5312 17.1875 19.3438 17L17.2188 15C17.0938 15.125 16.9427 15.2396 16.7656 15.3438C16.5885 15.4479 16.4062 15.5 16.2188 15.5C15.8646 15.5 15.5677 15.3802 15.3281 15.1406C15.0885 14.901 14.9688 14.6042 14.9688 14.25V13H10.9688C10.9062 13.1667 10.8385 13.3229 10.7656 13.4688C10.6927 13.6146 10.5938 13.7708 10.4688 13.9375L16.7188 25.5H21.2188V29.25H4.96875ZM7.46875 13C7.46875 13 7.55729 13 7.73438 13C7.91146 13 8.11979 12.8802 8.35938 12.6406C8.59896 12.401 8.71875 12.1042 8.71875 11.75C8.71875 11.3958 8.59896 11.099 8.35938 10.8594C8.11979 10.6198 7.82292 10.5 7.46875 10.5C7.11458 10.5 6.81771 10.6198 6.57812 10.8594C6.33854 11.099 6.21875 11.3958 6.21875 11.75C6.21875 12.1042 6.33854 12.401 6.57812 12.6406C6.81771 12.8802 7.11458 13 7.46875 13ZM11.4062 25.5H13.8438L8.46875 15.5C8.46875 15.5 8.44792 15.5 8.40625 15.5C8.36458 15.5 8.34375 15.5 8.34375 15.5L11.4062 25.5Z" fill="#8B0000"/>
</svg>
