<svg width="23" height="24" viewBox="0 0 23 24" fill="none" xmlns="http://www.w3.org/2000/svg">
<path d="M1.25 23.1323V19.3823H5.125L1.9375 8.94482C1.375 8.63232 0.911458 8.17399 0.546875 7.56982C0.182292 6.96566 0 6.31982 0 5.63232C0 4.59066 0.364583 3.70524 1.09375 2.97607C1.82292 2.24691 2.70833 1.88232 3.75 1.88232C4.5625 1.88232 5.28646 2.1167 5.92188 2.58545C6.55729 3.0542 7 3.65316 7.25 4.38232H11.25V3.13232C11.25 2.77816 11.3698 2.48128 11.6094 2.2417C11.849 2.00212 12.1458 1.88232 12.5 1.88232C12.6875 1.88232 12.8698 1.92399 13.0469 2.00732C13.224 2.09066 13.375 2.21566 13.5 2.38232L15.625 0.382324C15.8125 0.194824 16.0365 0.0750326 16.2969 0.0229492C16.5573 -0.0291341 16.8125 0.00732422 17.0625 0.132324L21.9375 2.38232C22.1875 2.50732 22.3594 2.68962 22.4531 2.9292C22.5469 3.16878 22.5417 3.40316 22.4375 3.63232C22.3125 3.88232 22.1302 4.04378 21.8906 4.1167C21.651 4.18962 21.4167 4.17399 21.1875 4.06982L16.6875 2.00732L13.75 4.75732V6.50732L16.6875 9.19482L21.1875 7.13232C21.4167 7.02816 21.6562 7.01774 21.9062 7.10107C22.1562 7.18441 22.3333 7.34066 22.4375 7.56982C22.5625 7.81982 22.5729 8.05941 22.4688 8.28857C22.3646 8.51774 22.1875 8.69482 21.9375 8.81982L17.0625 11.1323C16.8125 11.2573 16.5573 11.2938 16.2969 11.2417C16.0365 11.1896 15.8125 11.0698 15.625 10.8823L13.5 8.88232C13.375 9.00732 13.224 9.12191 13.0469 9.22607C12.8698 9.33024 12.6875 9.38232 12.5 9.38232C12.1458 9.38232 11.849 9.26253 11.6094 9.02295C11.3698 8.78337 11.25 8.48649 11.25 8.13232V6.88232H7.25C7.1875 7.04899 7.11979 7.20524 7.04688 7.35107C6.97396 7.49691 6.875 7.65316 6.75 7.81982L13 19.3823H17.5V23.1323H1.25ZM3.75 6.88232C3.75 6.88232 3.83854 6.88232 4.01562 6.88232C4.19271 6.88232 4.40104 6.76253 4.64062 6.52295C4.88021 6.28337 5 5.98649 5 5.63232C5 5.27816 4.88021 4.98128 4.64062 4.7417C4.40104 4.50212 4.10417 4.38232 3.75 4.38232C3.39583 4.38232 3.09896 4.50212 2.85938 4.7417C2.61979 4.98128 2.5 5.27816 2.5 5.63232C2.5 5.98649 2.61979 6.28337 2.85938 6.52295C3.09896 6.76253 3.39583 6.88232 3.75 6.88232ZM7.6875 19.3823H10.125L4.75 9.38232C4.75 9.38232 4.72917 9.38232 4.6875 9.38232C4.64583 9.38232 4.625 9.38232 4.625 9.38232L7.6875 19.3823Z" fill="#8B0000"/>
</svg>
