<svg width="25" height="28" viewBox="0 0 25 28" fill="none" xmlns="http://www.w3.org/2000/svg">
<path d="M9.5755 18.3673L16.3782 13.9942L9.5755 9.62099V18.3673ZM12.005 23.7123C10.6607 23.7123 9.39733 23.4572 8.21495 22.947C7.03257 22.4368 6.00407 21.7444 5.12943 20.8698C4.2548 19.9951 3.56238 18.9666 3.05217 17.7843C2.54197 16.6019 2.28687 15.3385 2.28687 13.9942C2.28687 12.6498 2.54197 11.3865 3.05217 10.2041C3.56238 9.0217 4.2548 7.99319 5.12943 7.11856C6.00407 6.24392 7.03257 5.5515 8.21495 5.0413C9.39733 4.53109 10.6607 4.27599 12.005 4.27599C13.3494 4.27599 14.6128 4.53109 15.7951 5.0413C16.9775 5.5515 18.006 6.24392 18.8806 7.11856C19.7553 7.99319 20.4477 9.0217 20.9579 10.2041C21.4681 11.3865 21.7232 12.6498 21.7232 13.9942C21.7232 15.3385 21.4681 16.6019 20.9579 17.7843C20.4477 18.9666 19.7553 19.9951 18.8806 20.8698C18.006 21.7444 16.9775 22.4368 15.7951 22.947C14.6128 23.4572 13.3494 23.7123 12.005 23.7123ZM12.005 21.7687C14.1754 21.7687 16.0138 21.0155 17.5201 19.5092C19.0264 18.0029 19.7796 16.1646 19.7796 13.9942C19.7796 11.8238 19.0264 9.98542 17.5201 8.4791C16.0138 6.97278 14.1754 6.21963 12.005 6.21963C9.83465 6.21963 7.99629 6.97278 6.48998 8.4791C4.98366 9.98542 4.2305 11.8238 4.2305 13.9942C4.2305 16.1646 4.98366 18.0029 6.48998 19.5092C7.99629 21.0155 9.83465 21.7687 12.005 21.7687Z" fill="white"/>
</svg>
