<svg width="36" height="44" viewBox="0 0 36 44" fill="none" xmlns="http://www.w3.org/2000/svg">
<path d="M5.96252 35.5V31H10.6125L6.78752 18.475C6.11252 18.1 5.55627 17.55 5.11877 16.825C4.68127 16.1 4.46252 15.325 4.46252 14.5C4.46252 13.25 4.90002 12.1875 5.77502 11.3125C6.65002 10.4375 7.71252 10 8.96252 10C9.93752 10 10.8063 10.2812 11.5688 10.8437C12.3313 11.4062 12.8625 12.125 13.1625 13H17.9625V11.5C17.9625 11.075 18.1063 10.7187 18.3938 10.4312C18.6813 10.1437 19.0375 10 19.4625 10C19.6875 10 19.9063 10.05 20.1188 10.15C20.3313 10.25 20.5125 10.4 20.6625 10.6L23.2125 8.2C23.4375 7.975 23.7063 7.83125 24.0188 7.76875C24.3313 7.70625 24.6375 7.75 24.9375 7.9L30.7875 10.6C31.0875 10.75 31.2938 10.9687 31.4063 11.2562C31.5188 11.5437 31.5125 11.825 31.3875 12.1C31.2375 12.4 31.0188 12.5938 30.7313 12.6812C30.4438 12.7687 30.1625 12.75 29.8875 12.625L24.4875 10.15L20.9625 13.45V15.55L24.4875 18.775L29.8875 16.3C30.1625 16.175 30.45 16.1625 30.75 16.2625C31.05 16.3625 31.2625 16.55 31.3875 16.825C31.5375 17.125 31.55 17.4125 31.425 17.6875C31.3 17.9625 31.0875 18.175 30.7875 18.325L24.9375 21.1C24.6375 21.25 24.3313 21.2937 24.0188 21.2312C23.7063 21.1687 23.4375 21.025 23.2125 20.8L20.6625 18.4C20.5125 18.55 20.3313 18.6875 20.1188 18.8125C19.9063 18.9375 19.6875 19 19.4625 19C19.0375 19 18.6813 18.8562 18.3938 18.5687C18.1063 18.2812 17.9625 17.925 17.9625 17.5V16H13.1625C13.0875 16.2 13.0063 16.3875 12.9188 16.5625C12.8313 16.7375 12.7125 16.925 12.5625 17.125L20.0625 31H25.4625V35.5H5.96252ZM8.96252 16C8.96252 16 9.06877 16 9.28127 16C9.49377 16 9.74377 15.8562 10.0313 15.5687C10.3188 15.2812 10.4625 14.925 10.4625 14.5C10.4625 14.075 10.3188 13.7188 10.0313 13.4312C9.74377 13.1437 9.38752 13 8.96252 13C8.53752 13 8.18127 13.1437 7.89377 13.4312C7.60627 13.7188 7.46252 14.075 7.46252 14.5C7.46252 14.925 7.60627 15.2812 7.89377 15.5687C8.18127 15.8562 8.53752 16 8.96252 16ZM13.6875 31H16.6125L10.1625 19C10.1625 19 10.1375 19 10.0875 19C10.0375 19 10.0125 19 10.0125 19L13.6875 31Z" fill="#E60000"/>
</svg>
