<svg width="20" height="20" viewBox="0 0 20 20" fill="none" xmlns="http://www.w3.org/2000/svg">
<path d="M7.28863 14.0913L14.0914 9.71817L7.28863 5.34499V14.0913ZM9.71817 19.4363C8.37383 19.4363 7.11047 19.1812 5.92809 18.671C4.74571 18.1608 3.7172 17.4684 2.84257 16.5938C1.96793 15.7191 1.27551 14.6906 0.765306 13.5083C0.255102 12.3259 0 11.0625 0 9.71817C0 8.37382 0.255102 7.11045 0.765306 5.92808C1.27551 4.7457 1.96793 3.71719 2.84257 2.84256C3.7172 1.96792 4.74571 1.2755 5.92809 0.765297C7.11047 0.255093 8.37383 -9.53674e-06 9.71817 -9.53674e-06C11.0625 -9.53674e-06 12.3259 0.255093 13.5083 0.765297C14.6906 1.2755 15.7191 1.96792 16.5938 2.84256C17.4684 3.71719 18.1608 4.7457 18.671 5.92808C19.1812 7.11045 19.4363 8.37382 19.4363 9.71817C19.4363 11.0625 19.1812 12.3259 18.671 13.5083C18.1608 14.6906 17.4684 15.7191 16.5938 16.5938C15.7191 17.4684 14.6906 18.1608 13.5083 18.671C12.3259 19.1812 11.0625 19.4363 9.71817 19.4363ZM9.71817 17.4927C11.8886 17.4927 13.7269 16.7395 15.2332 15.2332C16.7396 13.7269 17.4927 11.8886 17.4927 9.71817C17.4927 7.54777 16.7396 5.70942 15.2332 4.2031C13.7269 2.69678 11.8886 1.94362 9.71817 1.94362C7.54778 1.94362 5.70943 2.69678 4.20311 4.2031C2.69679 5.70942 1.94363 7.54777 1.94363 9.71817C1.94363 11.8886 2.69679 13.7269 4.20311 15.2332C5.70943 16.7395 7.54778 17.4927 9.71817 17.4927Z" fill="white"/>
</svg>
