<svg width="23" height="23" viewBox="0 0 23 23" fill="none" xmlns="http://www.w3.org/2000/svg">
<path d="M8.4375 22.5C7.375 22.5 6.45833 22.1302 5.6875 21.3906C4.91667 20.651 4.47917 19.7604 4.375 18.7188C3.125 18.5521 2.08333 18 1.25 17.0625C0.416667 16.125 0 15.0208 0 13.75C0 13.3125 0.0572917 12.8802 0.171875 12.4531C0.286458 12.026 0.458333 11.625 0.6875 11.25C0.458333 10.875 0.286458 10.4792 0.171875 10.0625C0.0572917 9.64583 0 9.20833 0 8.75C0 7.47917 0.416667 6.38021 1.25 5.45312C2.08333 4.52604 3.11458 3.97917 4.34375 3.8125C4.40625 2.75 4.83333 1.84896 5.625 1.10938C6.41667 0.369791 7.35417 0 8.4375 0C8.97917 0 9.48438 0.104166 9.95312 0.3125C10.4219 0.520834 10.8542 0.802084 11.25 1.15625C11.625 0.802084 12.0521 0.520834 12.5312 0.3125C13.0104 0.104166 13.5208 0 14.0625 0C15.1458 0 16.0781 0.364584 16.8594 1.09375C17.6406 1.82292 18.0625 2.71875 18.125 3.78125C19.3542 3.94792 20.3906 4.5 21.2344 5.4375C22.0781 6.375 22.5 7.47917 22.5 8.75C22.5 9.20833 22.4427 9.64583 22.3281 10.0625C22.2135 10.4792 22.0417 10.875 21.8125 11.25C22.0417 11.625 22.2135 12.026 22.3281 12.4531C22.4427 12.8802 22.5 13.3125 22.5 13.75C22.5 15.0417 22.0781 16.151 21.2344 17.0781C20.3906 18.0052 19.3438 18.5521 18.0938 18.7188C17.9896 19.7604 17.5573 20.651 16.7969 21.3906C16.0365 22.1302 15.125 22.5 14.0625 22.5C13.5417 22.5 13.0365 22.401 12.5469 22.2031C12.0573 22.0052 11.625 21.7292 11.25 21.375C10.8542 21.7292 10.4167 22.0052 9.9375 22.2031C9.45833 22.401 8.95833 22.5 8.4375 22.5ZM12.5 4.0625V18.4375C12.5 18.875 12.651 19.2448 12.9531 19.5469C13.2552 19.849 13.625 20 14.0625 20C14.4792 20 14.8385 19.8333 15.1406 19.5C15.4427 19.1667 15.6042 18.7917 15.625 18.375C15.1875 18.2083 14.7865 17.9844 14.4219 17.7031C14.0573 17.4219 13.7292 17.0833 13.4375 16.6875C13.2292 16.3958 13.151 16.0833 13.2031 15.75C13.2552 15.4167 13.4271 15.1458 13.7188 14.9375C14.0104 14.7292 14.3229 14.651 14.6562 14.7031C14.9896 14.7552 15.2604 14.9271 15.4688 15.2188C15.6979 15.5521 15.9896 15.8073 16.3438 15.9844C16.6979 16.1615 17.0833 16.25 17.5 16.25C18.1875 16.25 18.776 16.0052 19.2656 15.5156C19.7552 15.026 20 14.4375 20 13.75C20 13.6458 19.9948 13.5417 19.9844 13.4375C19.974 13.3333 19.9479 13.2292 19.9062 13.125C19.5521 13.3333 19.1719 13.4896 18.7656 13.5938C18.3594 13.6979 17.9375 13.75 17.5 13.75C17.1458 13.75 16.849 13.6302 16.6094 13.3906C16.3698 13.151 16.25 12.8542 16.25 12.5C16.25 12.1458 16.3698 11.849 16.6094 11.6094C16.849 11.3698 17.1458 11.25 17.5 11.25C18.1875 11.25 18.776 11.0052 19.2656 10.5156C19.7552 10.026 20 9.4375 20 8.75C20 8.0625 19.7552 7.47917 19.2656 7C18.776 6.52083 18.1875 6.27083 17.5 6.25C17.2708 6.625 16.974 6.95312 16.6094 7.23438C16.2448 7.51562 15.8438 7.73958 15.4062 7.90625C15.0729 8.03125 14.75 8.02083 14.4375 7.875C14.125 7.72917 13.9167 7.48958 13.8125 7.15625C13.7083 6.82292 13.724 6.5 13.8594 6.1875C13.9948 5.875 14.2292 5.66667 14.5625 5.5625C14.875 5.45833 15.1302 5.27083 15.3281 5C15.526 4.72917 15.625 4.41667 15.625 4.0625C15.625 3.625 15.474 3.25521 15.1719 2.95312C14.8698 2.65104 14.5 2.5 14.0625 2.5C13.625 2.5 13.2552 2.65104 12.9531 2.95312C12.651 3.25521 12.5 3.625 12.5 4.0625ZM10 18.4375V4.0625C10 3.625 9.84896 3.25521 9.54688 2.95312C9.24479 2.65104 8.875 2.5 8.4375 2.5C8 2.5 7.63021 2.65104 7.32812 2.95312C7.02604 3.25521 6.875 3.625 6.875 4.0625C6.875 4.39583 6.96875 4.70312 7.15625 4.98438C7.34375 5.26562 7.59375 5.45833 7.90625 5.5625C8.23958 5.66667 8.47917 5.875 8.625 6.1875C8.77083 6.5 8.79167 6.82292 8.6875 7.15625C8.5625 7.48958 8.34375 7.72917 8.03125 7.875C7.71875 8.02083 7.39583 8.03125 7.0625 7.90625C6.625 7.73958 6.22396 7.51562 5.85938 7.23438C5.49479 6.95312 5.19792 6.625 4.96875 6.25C4.30208 6.27083 3.72396 6.52604 3.23438 7.01562C2.74479 7.50521 2.5 8.08333 2.5 8.75C2.5 9.4375 2.74479 10.026 3.23438 10.5156C3.72396 11.0052 4.3125 11.25 5 11.25C5.35417 11.25 5.65104 11.3698 5.89062 11.6094C6.13021 11.849 6.25 12.1458 6.25 12.5C6.25 12.8542 6.13021 13.151 5.89062 13.3906C5.65104 13.6302 5.35417 13.75 5 13.75C4.5625 13.75 4.14062 13.6979 3.73438 13.5938C3.32812 13.4896 2.94792 13.3333 2.59375 13.125C2.55208 13.2292 2.52604 13.3333 2.51562 13.4375C2.50521 13.5417 2.5 13.6458 2.5 13.75C2.5 14.4375 2.74479 15.026 3.23438 15.5156C3.72396 16.0052 4.3125 16.25 5 16.25C5.41667 16.25 5.80208 16.1615 6.15625 15.9844C6.51042 15.8073 6.80208 15.5521 7.03125 15.2188C7.23958 14.9271 7.51042 14.7552 7.84375 14.7031C8.17708 14.651 8.48958 14.7292 8.78125 14.9375C9.07292 15.1458 9.24479 15.4167 9.29688 15.75C9.34896 16.0833 9.27083 16.3958 9.0625 16.6875C8.77083 17.0833 8.4375 17.4271 8.0625 17.7188C7.6875 18.0104 7.28125 18.2396 6.84375 18.4062C6.86458 18.8229 7.03125 19.1927 7.34375 19.5156C7.65625 19.8385 8.02083 20 8.4375 20C8.875 20 9.24479 19.849 9.54688 19.5469C9.84896 19.2448 10 18.875 10 18.4375Z" fill="#E60000"/>
</svg>
