<svg width="30" height="36" viewBox="0 0 30 36" fill="none" xmlns="http://www.w3.org/2000/svg">
<path d="M23.1562 14.25L21.7812 11.25L18.7812 9.875L21.7812 8.5L23.1562 5.5L24.5312 8.5L27.5312 9.875L24.5312 11.25L23.1562 14.25ZM25.6562 23L24.6562 20.875L22.5312 19.875L24.6562 18.875L25.6562 16.75L26.6562 18.875L28.7812 19.875L26.6562 20.875L25.6562 23ZM9.40625 30.5L9.03125 27.5625C8.88542 27.5 8.72917 27.4167 8.5625 27.3125C8.39583 27.2083 8.26042 27.1042 8.15625 27L5.40625 28.1875L2.3125 22.75L4.65625 21C4.65625 20.8333 4.65625 20.6667 4.65625 20.5C4.65625 20.3333 4.65625 20.1667 4.65625 20L2.3125 18.25L5.40625 12.8125L8.15625 14C8.26042 13.8958 8.39583 13.7917 8.5625 13.6875C8.72917 13.5833 8.88542 13.5 9.03125 13.4375L9.40625 10.5H15.6562L16.0312 13.4375C16.1771 13.5 16.3333 13.5833 16.5 13.6875C16.6667 13.7917 16.8021 13.8958 16.9062 14L19.6562 12.8125L22.75 18.25L20.4062 20C20.4062 20.1667 20.4062 20.3333 20.4062 20.5C20.4062 20.6667 20.4062 20.8333 20.4062 21L22.75 22.75L19.6562 28.1875L16.9062 27C16.8021 27.1042 16.6667 27.2083 16.5 27.3125C16.3333 27.4167 16.1771 27.5 16.0312 27.5625L15.6562 30.5H9.40625ZM12.5312 24.25C12.5312 24.25 12.7917 24.25 13.3125 24.25C13.8333 24.25 14.4583 23.8854 15.1875 23.1562C15.9167 22.4271 16.2812 21.5417 16.2812 20.5C16.2812 19.4583 15.9167 18.5729 15.1875 17.8438C14.4583 17.1146 13.5729 16.75 12.5312 16.75C11.4896 16.75 10.6042 17.1146 9.875 17.8438C9.14583 18.5729 8.78125 19.4583 8.78125 20.5C8.78125 21.5417 9.14583 22.4271 9.875 23.1562C10.6042 23.8854 11.4896 24.25 12.5312 24.25ZM11.5938 28H13.4688L13.7188 25.75C14.3229 25.5833 14.8385 25.3698 15.2656 25.1094C15.6927 24.849 16.1146 24.5 16.5312 24.0625L18.5938 25L19.4688 23.4375L17.6562 22.0625C17.8229 21.5833 17.9062 21.0625 17.9062 20.5C17.9062 19.9375 17.8229 19.4167 17.6562 18.9375L19.4688 17.5625L18.5938 16L16.5312 16.9375C16.1146 16.5 15.6927 16.151 15.2656 15.8906C14.8385 15.6302 14.3229 15.4167 13.7188 15.25L13.4688 13H11.5938L11.3438 15.25C10.7396 15.4167 10.224 15.6302 9.79688 15.8906C9.36979 16.151 8.94792 16.5 8.53125 16.9375L6.46875 16L5.59375 17.5625L7.40625 18.9375C7.23958 19.4167 7.15104 19.9375 7.14062 20.5C7.13021 21.0625 7.21875 21.5833 7.40625 22.0625L5.59375 23.4375L6.46875 25L8.53125 24.0625C8.94792 24.5 9.36979 24.849 9.79688 25.1094C10.224 25.3698 10.7396 25.5833 11.3438 25.75L11.5938 28Z" fill="#E60000"/>
</svg>
