<svg width="36" height="44" viewBox="0 0 36 44" fill="none" xmlns="http://www.w3.org/2000/svg">
<path d="M6 37C5.175 37 4.46875 36.7063 3.88125 36.1187C3.29375 35.5312 3 34.825 3 34V16C3 15.175 3.29375 14.4688 3.88125 13.8812C4.46875 13.2937 5.175 13 6 13H12V10C12 9.175 12.2938 8.46875 12.8813 7.88125C13.4688 7.29375 14.175 7 15 7H21C21.825 7 22.5312 7.29375 23.1188 7.88125C23.7063 8.46875 24 9.175 24 10V13H30C30.825 13 31.5313 13.2937 32.1188 13.8812C32.7063 14.4688 33 15.175 33 16V34C33 34.825 32.7063 35.5312 32.1188 36.1187C31.5313 36.7063 30.825 37 30 37H6ZM6 34H30V16H6V34ZM15 13H21V10H15V13ZM16.5 26.5V31H19.5V26.5H24V23.5H19.5V19H16.5V23.5H12V26.5H16.5Z" fill="#E60000"/>
</svg>
