<svg width="25" height="28" viewBox="0 0 25 28" fill="none" xmlns="http://www.w3.org/2000/svg">
<path d="M12.005 23.7125C10.6607 23.7125 9.3973 23.4574 8.21492 22.9472C7.03254 22.437 6.00404 21.7445 5.1294 20.8699C4.25477 19.9953 3.56235 18.9668 3.05214 17.7844C2.54194 16.602 2.28683 15.3386 2.28683 13.9943C2.28683 12.6499 2.54194 11.3866 3.05214 10.2042C3.56235 9.02182 4.25477 7.99331 5.1294 7.11868C6.00404 6.24404 7.03254 5.55162 8.21492 5.04142C9.3973 4.53122 10.6607 4.27611 12.005 4.27611C13.3494 4.27611 14.6127 4.53122 15.7951 5.04142C16.9775 5.55162 18.006 6.24404 18.8806 7.11868C19.7553 7.99331 20.4477 9.02182 20.9579 10.2042C21.4681 11.3866 21.7232 12.6499 21.7232 13.9943V15.4034C21.7232 16.359 21.3952 17.1729 20.7392 17.8451C20.0832 18.5173 19.2774 18.8534 18.3218 18.8534C17.7549 18.8534 17.2204 18.7319 16.7183 18.4889C16.2162 18.246 15.7951 17.8978 15.455 17.4442C14.9853 17.914 14.4548 18.2662 13.8636 18.5011C13.2724 18.7359 12.6529 18.8534 12.005 18.8534C10.6607 18.8534 9.51473 18.3796 8.56721 17.4321C7.61968 16.4846 7.14592 15.3386 7.14592 13.9943C7.14592 12.6499 7.61968 11.504 8.56721 10.5565C9.51473 9.60896 10.6607 9.1352 12.005 9.1352C13.3494 9.1352 14.4953 9.60896 15.4428 10.5565C16.3903 11.504 16.8641 12.6499 16.8641 13.9943V15.4034C16.8641 15.8245 17.0018 16.1809 17.2771 16.4724C17.5525 16.764 17.9007 16.9097 18.3218 16.9097C18.7429 16.9097 19.0912 16.764 19.3665 16.4724C19.6419 16.1809 19.7796 15.8245 19.7796 15.4034V13.9943C19.7796 11.8239 19.0264 9.98554 17.5201 8.47922C16.0138 6.97291 14.1754 6.21975 12.005 6.21975C9.83462 6.21975 7.99626 6.97291 6.48995 8.47922C4.98363 9.98554 4.23047 11.8239 4.23047 13.9943C4.23047 16.1647 4.98363 18.003 6.48995 19.5094C7.99626 21.0157 9.83462 21.7688 12.005 21.7688H16.8641V23.7125H12.005ZM12.005 16.9097C12.005 16.9097 12.2075 16.9097 12.6124 16.9097C13.0173 16.9097 13.5032 16.6263 14.0701 16.0594C14.637 15.4925 14.9205 14.8041 14.9205 13.9943C14.9205 13.1844 14.637 12.4961 14.0701 11.9292C13.5032 11.3623 12.8149 11.0788 12.005 11.0788C11.1952 11.0788 10.5068 11.3623 9.9399 11.9292C9.373 12.4961 9.08956 13.1844 9.08956 13.9943C9.08956 14.8041 9.373 15.4925 9.9399 16.0594C10.5068 16.6263 11.1952 16.9097 12.005 16.9097Z" fill="#94A3B8"/>
</svg>
