<svg width="36" height="44" viewBox="0 0 36 44" fill="none" xmlns="http://www.w3.org/2000/svg">
<path d="M9 34C9 34 8.6875 34 8.0625 34C7.4375 34 6.6875 33.5625 5.8125 32.6875C4.9375 31.8125 4.5 30.75 4.5 29.5H1.5V13C1.5 12.175 1.79375 11.4688 2.38125 10.8812C2.96875 10.2937 3.675 10 4.5 10H25.5V16H30L34.5 22V29.5H31.5C31.5 30.75 31.0625 31.8125 30.1875 32.6875C29.3125 33.5625 28.25 34 27 34C25.75 34 24.6875 33.5625 23.8125 32.6875C22.9375 31.8125 22.5 30.75 22.5 29.5H13.5C13.5 30.75 13.0625 31.8125 12.1875 32.6875C11.3125 33.5625 10.25 34 9 34ZM9 31C9 31 9.10625 31 9.31875 31C9.53125 31 9.78125 30.8562 10.0688 30.5687C10.3563 30.2812 10.5 29.925 10.5 29.5C10.5 29.075 10.3563 28.7188 10.0688 28.4312C9.78125 28.1437 9.425 28 9 28C8.575 28 8.21875 28.1437 7.93125 28.4312C7.64375 28.7188 7.5 29.075 7.5 29.5C7.5 29.925 7.64375 30.2812 7.93125 30.5687C8.21875 30.8562 8.575 31 9 31ZM4.5 26.5H5.7C6.125 26.05 6.6125 25.6875 7.1625 25.4125C7.7125 25.1375 8.325 25 9 25C9.675 25 10.2875 25.1375 10.8375 25.4125C11.3875 25.6875 11.875 26.05 12.3 26.5H22.5V13H4.5V26.5ZM27 31C27 31 27.1063 31 27.3188 31C27.5313 31 27.7813 30.8562 28.0688 30.5687C28.3563 30.2812 28.5 29.925 28.5 29.5C28.5 29.075 28.3563 28.7188 28.0688 28.4312C27.7813 28.1437 27.425 28 27 28C26.575 28 26.2188 28.1437 25.9313 28.4312C25.6438 28.7188 25.5 29.075 25.5 29.5C25.5 29.925 25.6438 30.2812 25.9313 30.5687C26.2188 30.8562 26.575 31 27 31ZM25.5 23.5H31.875L28.5 19H25.5V23.5Z" fill="#E60000"/>
</svg>
