<svg width="25" height="28" viewBox="0 0 25 28" fill="none" xmlns="http://www.w3.org/2000/svg">
<path d="M5.20445 22.75C5.20445 22.75 5.07077 22.75 4.80341 22.75C4.53605 22.75 4.21198 22.5596 3.83119 22.1788C3.4504 21.798 3.26001 21.3403 3.26001 20.8056C3.26001 20.2708 3.4504 19.8131 3.83119 19.4323C4.21198 19.0515 4.66973 18.8611 5.20445 18.8611C5.73918 18.8611 6.19693 19.0515 6.57772 19.4323C6.95851 19.8131 7.1489 20.2708 7.1489 20.8056C7.1489 21.3403 6.95851 21.798 6.57772 22.1788C6.19693 22.5596 5.73918 22.75 5.20445 22.75ZM16.8711 22.75C16.8711 20.8542 16.5146 19.0839 15.8017 17.4392C15.0887 15.7946 14.1165 14.3565 12.885 13.125C11.6535 11.8935 10.2154 10.9213 8.57077 10.2083C6.9261 9.49537 5.15584 9.13889 3.26001 9.13889V6.22222C5.56094 6.22222 7.70793 6.65162 9.70098 7.51042C11.694 8.36921 13.444 9.55208 14.951 11.059C16.4579 12.566 17.6408 14.316 18.4996 16.309C19.3584 18.3021 19.7878 20.4491 19.7878 22.75H16.8711ZM11.0378 22.75C11.0378 21.6644 10.8352 20.6557 10.4301 19.724C10.0251 18.7922 9.46603 17.9699 8.75307 17.2569C8.0401 16.544 7.21776 15.985 6.28605 15.5799C5.35434 15.1748 4.34566 14.9722 3.26001 14.9722V12.0556C4.75075 12.0556 6.14022 12.3351 7.42841 12.8941C8.71661 13.4531 9.84682 14.2188 10.819 15.191C11.7913 16.1632 12.5569 17.2934 13.1159 18.5816C13.6749 19.8698 13.9545 21.2593 13.9545 22.75H11.0378Z" fill="#94A3B8"/>
</svg>
