<svg width="25" height="28" viewBox="0 0 25 28" fill="none" xmlns="http://www.w3.org/2000/svg">
<path d="M12.01 23.7222C12.01 23.7222 11.6738 23.7222 11.0013 23.7222C10.3289 23.7222 9.40121 23.467 8.21834 22.9565C7.03547 22.4461 6.00653 21.7534 5.13153 20.8784C4.25653 20.0034 3.56382 18.9745 3.05341 17.7916C2.54299 16.6087 2.28778 15.3449 2.28778 13.9999C2.28778 12.655 2.54299 11.3911 3.05341 10.2083C3.56382 9.02541 4.25653 7.99647 5.13153 7.12147C6.00653 6.24647 7.03547 5.55376 8.21834 5.04335C9.40121 4.53293 10.6651 4.27772 12.01 4.27772C13.3549 4.27772 14.6188 4.53293 15.8017 5.04335C16.9845 5.55376 18.0135 6.24647 18.8885 7.12147C19.7635 7.99647 20.4562 9.02541 20.9666 10.2083C21.477 11.3911 21.7322 12.655 21.7322 13.9999C21.7322 15.3449 21.477 16.6087 20.9666 17.7916C20.4562 18.9745 19.7635 20.0034 18.8885 20.8784C18.0135 21.7534 16.9845 22.4461 15.8017 22.9565C14.6188 23.467 13.3549 23.7222 12.01 23.7222ZM11.0378 21.7291V19.8333C10.5031 19.8333 10.0453 19.6429 9.66452 19.2621C9.28373 18.8813 9.09334 18.4236 9.09334 17.8888V16.9166L4.42667 12.2499C4.37806 12.5416 4.3335 12.8333 4.29299 13.1249C4.25248 13.4166 4.23223 13.7083 4.23223 13.9999C4.23223 15.9606 4.87632 17.6782 6.16452 19.1527C7.45271 20.6273 9.07713 21.4861 11.0378 21.7291ZM17.7461 19.2499C18.4105 18.5208 18.9168 17.7065 19.2652 16.8072C19.6136 15.9079 19.7878 14.9722 19.7878 13.9999C19.7878 12.412 19.3462 10.9618 18.4631 9.64925C17.58 8.33675 16.4012 7.38883 14.9267 6.8055V7.19439C14.9267 7.72911 14.7363 8.18687 14.3555 8.56765C13.9747 8.94844 13.5169 9.13883 12.9822 9.13883H11.0378V11.0833C11.0378 11.3587 10.9446 11.5896 10.7583 11.776C10.5719 11.9623 10.341 12.0555 10.0656 12.0555H8.12111V13.9999H13.9544C14.2299 13.9999 14.4608 14.0931 14.6472 14.2795C14.8335 14.4658 14.9267 14.6967 14.9267 14.9722V17.8888H15.8989C16.3202 17.8888 16.701 18.0144 17.0413 18.2656C17.3815 18.5167 17.6165 18.8449 17.7461 19.2499Z" fill="#94A3B8"/>
</svg>
