<svg width="18" height="22" viewBox="0 0 18 22" fill="none" xmlns="http://www.w3.org/2000/svg">
<path d="M6.75 11.375H7.5V9.875H8.25C8.4625 9.875 8.64063 9.80312 8.78438 9.65937C8.92813 9.51562 9 9.3375 9 9.125V8.375C9 8.1625 8.92813 7.98438 8.78438 7.84062C8.64063 7.69687 8.4625 7.625 8.25 7.625H6.75V11.375ZM7.5 9.125V8.375H8.25V9.125H7.5ZM9.75 11.375H11.25C11.4625 11.375 11.6406 11.3031 11.7844 11.1594C11.9281 11.0156 12 10.8375 12 10.625V8.375C12 8.1625 11.9281 7.98438 11.7844 7.84062C11.6406 7.69687 11.4625 7.625 11.25 7.625H9.75V11.375ZM10.5 10.625V8.375H11.25V10.625H10.5ZM12.75 11.375H13.5V9.875H14.25V9.125H13.5V8.375H14.25V7.625H12.75V11.375ZM6 15.5C5.5875 15.5 5.23438 15.3531 4.94063 15.0594C4.64688 14.7656 4.5 14.4125 4.5 14V5C4.5 4.5875 4.64688 4.23437 4.94063 3.94062C5.23438 3.64687 5.5875 3.5 6 3.5H15C15.4125 3.5 15.7656 3.64687 16.0594 3.94062C16.3531 4.23437 16.5 4.5875 16.5 5V14C16.5 14.4125 16.3531 14.7656 16.0594 15.0594C15.7656 15.3531 15.4125 15.5 15 15.5H6ZM6 14H15V5H6V14ZM3 18.5C2.5875 18.5 2.23438 18.3531 1.94063 18.0594C1.64687 17.7656 1.5 17.4125 1.5 17V6.5H3V17H13.5V18.5H3Z" fill="#F87171"/>
</svg>
