<svg width="25" height="28" viewBox="0 0 25 28" fill="none" xmlns="http://www.w3.org/2000/svg">
<path d="M5.20445 22.75C4.66973 22.75 4.21198 22.5596 3.83119 22.1788C3.4504 21.798 3.26001 21.3403 3.26001 20.8056V7.19444C3.26001 6.65972 3.4504 6.20197 3.83119 5.82118C4.21198 5.44039 4.66973 5.25 5.20445 5.25H12.01V7.19444H5.20445V20.8056H18.8156V14H20.76V20.8056C20.76 21.3403 20.5696 21.798 20.1888 22.1788C19.808 22.5596 19.3503 22.75 18.8156 22.75H5.20445ZM9.7739 17.5972L8.41279 16.2361L17.4545 7.19444H13.9545V5.25H20.76V12.0556H18.8156V8.55556L9.7739 17.5972Z" fill="#9CA3AF"/>
</svg>
