<svg width="21" height="16" viewBox="0 0 21 16" fill="none" xmlns="http://www.w3.org/2000/svg">
<path d="M1.94444 15.5555C1.40972 15.5555 0.951968 15.3651 0.571181 14.9844C0.190394 14.6036 0 14.1458 0 13.6111V1.94443C0 1.40971 0.190394 0.951954 0.571181 0.571167C0.951968 0.19038 1.40972 -1.33514e-05 1.94444 -1.33514e-05H7.77778L9.72222 1.94443H17.5C18.0347 1.94443 18.4925 2.13482 18.8733 2.51561C19.2541 2.8964 19.4444 3.35415 19.4444 3.88888H8.92014L6.97569 1.94443H1.94444V13.6111L4.27778 5.83332H20.9028L18.3993 14.1701C18.2697 14.5914 18.0307 14.9276 17.6823 15.1788C17.3339 15.43 16.9491 15.5555 16.5278 15.5555H1.94444ZM3.98611 13.6111H16.5278L18.2778 7.77776H5.73611L3.98611 13.6111Z" fill="white"/>
</svg>
