<svg width="18" height="22" viewBox="0 0 18 22" fill="none" xmlns="http://www.w3.org/2000/svg">
<path d="M3 17C2.5875 17 2.23438 16.8531 1.94063 16.5594C1.64687 16.2656 1.5 15.9125 1.5 15.5V6.5C1.5 6.0875 1.64687 5.73438 1.94063 5.44062C2.23438 5.14687 2.5875 5 3 5H15C15.4125 5 15.7656 5.14687 16.0594 5.44062C16.3531 5.73438 16.5 6.0875 16.5 6.5V15.5C16.5 15.9125 16.3531 16.2656 16.0594 16.5594C15.7656 16.8531 15.4125 17 15 17H3ZM3 15.5H15V8H3V15.5ZM5.625 14.75L4.575 13.7L6.50625 11.75L4.55625 9.8L5.625 8.75L8.625 11.75L5.625 14.75ZM9 14.75V13.25H13.5V14.75H9Z" fill="#FACC15"/>
</svg>
