<svg width="14" height="15" viewBox="0 0 14 15" fill="none" xmlns="http://www.w3.org/2000/svg">
<path d="M4.95 10.95L6 9.8625L4.3875 8.25L6 6.6375L4.95 5.55L2.25 8.25L4.95 10.95ZM8.55 10.95L11.25 8.25L8.55 5.55L7.5 6.6375L9.1125 8.25L7.5 9.8625L8.55 10.95ZM1.5 15C1.0875 15 0.734375 14.8531 0.440625 14.5594C0.146875 14.2656 0 13.9125 0 13.5V3C0 2.5875 0.146875 2.23437 0.440625 1.94062C0.734375 1.64687 1.0875 1.5 1.5 1.5H4.65C4.8125 1.05 5.08438 0.687499 5.46563 0.412499C5.84688 0.1375 6.275 -9.53674e-07 6.75 -9.53674e-07C7.225 -9.53674e-07 7.65313 0.1375 8.03438 0.412499C8.41563 0.687499 8.6875 1.05 8.85 1.5H12C12.4125 1.5 12.7656 1.64687 13.0594 1.94062C13.3531 2.23437 13.5 2.5875 13.5 3V13.5C13.5 13.9125 13.3531 14.2656 13.0594 14.5594C12.7656 14.8531 12.4125 15 12 15H1.5ZM1.5 13.5H12V3H1.5V13.5ZM6.75 2.4375C6.75 2.4375 6.79063 2.4375 6.87188 2.4375C6.95313 2.4375 7.04688 2.38437 7.15313 2.27812C7.25938 2.17187 7.3125 2.0375 7.3125 1.875C7.3125 1.7125 7.25938 1.57812 7.15313 1.47187C7.04688 1.36562 6.9125 1.3125 6.75 1.3125C6.5875 1.3125 6.45313 1.36562 6.34688 1.47187C6.24063 1.57812 6.1875 1.7125 6.1875 1.875C6.1875 2.0375 6.24063 2.17187 6.34688 2.27812C6.45313 2.38437 6.5875 2.4375 6.75 2.4375Z" fill="#60A5FA"/>
</svg>
