<svg width="18" height="22" viewBox="0 0 18 22" fill="none" xmlns="http://www.w3.org/2000/svg">
<path d="M7.2 13.7L8.25 12.6125L6.6375 11L8.25 9.3875L7.2 8.3L4.5 11L7.2 13.7ZM10.8 13.7L13.5 11L10.8 8.3L9.75 9.3875L11.3625 11L9.75 12.6125L10.8 13.7ZM3.75 17.75C3.3375 17.75 2.98438 17.6031 2.69063 17.3094C2.39687 17.0156 2.25 16.6625 2.25 16.25V5.75C2.25 5.3375 2.39687 4.98437 2.69063 4.69062C2.98438 4.39687 3.3375 4.25 3.75 4.25H6.9C7.0625 3.8 7.33438 3.4375 7.71563 3.1625C8.09688 2.8875 8.525 2.75 9 2.75C9.475 2.75 9.90313 2.8875 10.2844 3.1625C10.6656 3.4375 10.9375 3.8 11.1 4.25H14.25C14.6625 4.25 15.0156 4.39687 15.3094 4.69062C15.6031 4.98437 15.75 5.3375 15.75 5.75V16.25C15.75 16.6625 15.6031 17.0156 15.3094 17.3094C15.0156 17.6031 14.6625 17.75 14.25 17.75H3.75ZM3.75 16.25H14.25V5.75H3.75V16.25ZM9 5.1875C9 5.1875 9.04063 5.1875 9.12188 5.1875C9.20313 5.1875 9.29688 5.13437 9.40313 5.02812C9.50938 4.92187 9.5625 4.7875 9.5625 4.625C9.5625 4.4625 9.50938 4.32812 9.40313 4.22187C9.29688 4.11562 9.1625 4.0625 9 4.0625C8.8375 4.0625 8.70313 4.11562 8.59688 4.22187C8.49063 4.32812 8.4375 4.4625 8.4375 4.625C8.4375 4.7875 8.49063 4.92187 8.59688 5.02812C8.70313 5.13437 8.8375 5.1875 9 5.1875Z" fill="#60A5FA"/>
</svg>
