<svg width="18" height="18" viewBox="0 0 18 18" fill="none" xmlns="http://www.w3.org/2000/svg">
<path d="M1.94444 17.5C1.40972 17.5 0.951968 17.3096 0.571181 16.9288C0.190394 16.548 0 16.0903 0 15.5556V1.94444C0 1.40972 0.190394 0.951967 0.571181 0.57118C0.951968 0.190393 1.40972 0 1.94444 0H8.75V1.94444H1.94444V15.5556H15.5556V8.75H17.5V15.5556C17.5 16.0903 17.3096 16.548 16.9288 16.9288C16.548 17.3096 16.0903 17.5 15.5556 17.5H1.94444ZM6.51389 12.3472L5.15278 10.9861L14.1944 1.94444H10.6944V0H17.5V6.80556H15.5556V3.30556L6.51389 12.3472Z" fill="#9CA3AF"/>
</svg>
