<svg width="25" height="28" viewBox="0 0 25 28" fill="none" xmlns="http://www.w3.org/2000/svg">
<path d="M4.23223 21.7778C3.6975 21.7778 3.23975 21.5874 2.85896 21.2067C2.47817 20.8259 2.28778 20.3681 2.28778 19.8334V8.16672C2.28778 7.632 2.47817 7.17424 2.85896 6.79346C3.23975 6.41267 3.6975 6.22228 4.23223 6.22228H10.0656L12.01 8.16672H19.7878C20.3225 8.16672 20.7803 8.35711 21.161 8.7379C21.5418 9.11869 21.7322 9.57644 21.7322 10.1112H11.2079L9.26348 8.16672H4.23223V19.8334L6.56556 12.0556H23.1906L20.6871 20.3924C20.5575 20.8137 20.3185 21.1499 19.9701 21.4011C19.6217 21.6523 19.2369 21.7778 18.8156 21.7778H4.23223ZM6.27389 19.8334H18.8156L20.5656 14.0001H8.02389L6.27389 19.8334Z" fill="white"/>
</svg>
