<svg width="18" height="22" viewBox="0 0 18 22" fill="none" xmlns="http://www.w3.org/2000/svg">
<path d="M3 13.25C2.375 13.25 1.84375 13.0312 1.40625 12.5938C0.96875 12.1562 0.75 11.625 0.75 11C0.75 10.375 0.96875 9.84375 1.40625 9.40625C1.84375 8.96875 2.375 8.75 3 8.75V7.25C3 6.8375 3.14688 6.48438 3.44063 6.19062C3.73438 5.89687 4.0875 5.75 4.5 5.75H6.75C6.75 5.125 6.96875 4.59375 7.40625 4.15625C7.84375 3.71875 8.375 3.5 9 3.5C9.625 3.5 10.1562 3.71875 10.5938 4.15625C11.0312 4.59375 11.25 5.125 11.25 5.75H13.5C13.9125 5.75 14.2656 5.89687 14.5594 6.19062C14.8531 6.48438 15 6.8375 15 7.25V8.75C15.625 8.75 16.1563 8.96875 16.5938 9.40625C17.0312 9.84375 17.25 10.375 17.25 11C17.25 11.625 17.0312 12.1562 16.5938 12.5938C16.1563 13.0312 15.625 13.25 15 13.25V16.25C15 16.6625 14.8531 17.0156 14.5594 17.3094C14.2656 17.6031 13.9125 17.75 13.5 17.75H4.5C4.0875 17.75 3.73438 17.6031 3.44063 17.3094C3.14688 17.0156 3 16.6625 3 16.25V13.25ZM6.75 11.75C6.75 11.75 6.82813 11.75 6.98438 11.75C7.14063 11.75 7.32813 11.6406 7.54688 11.4219C7.76563 11.2031 7.875 10.9375 7.875 10.625C7.875 10.3125 7.76563 10.0469 7.54688 9.82812C7.32813 9.60938 7.0625 9.5 6.75 9.5C6.4375 9.5 6.17188 9.60938 5.95312 9.82812C5.73438 10.0469 5.625 10.3125 5.625 10.625C5.625 10.9375 5.73438 11.2031 5.95312 11.4219C6.17188 11.6406 6.4375 11.75 6.75 11.75ZM11.25 11.75C11.25 11.75 11.3281 11.75 11.4844 11.75C11.6406 11.75 11.8281 11.6406 12.0469 11.4219C12.2656 11.2031 12.375 10.9375 12.375 10.625C12.375 10.3125 12.2656 10.0469 12.0469 9.82812C11.8281 9.60938 11.5625 9.5 11.25 9.5C10.9375 9.5 10.6719 9.60938 10.4531 9.82812C10.2344 10.0469 10.125 10.3125 10.125 10.625C10.125 10.9375 10.2344 11.2031 10.4531 11.4219C10.6719 11.6406 10.9375 11.75 11.25 11.75ZM6 14.75H12V13.25H6V14.75ZM4.5 16.25H13.5V7.25H4.5V16.25Z" fill="#8B0000"/>
</svg>
