<svg width="16" height="18" viewBox="0 0 16 18" fill="none" xmlns="http://www.w3.org/2000/svg">
<path d="M1.94146 15.5556H13.6081L12.2227 5.83333H3.32688L1.94146 15.5556ZM7.77479 3.88889C8.05026 3.88889 8.28116 3.79572 8.4675 3.60938C8.65384 3.42303 8.74701 3.19213 8.74701 2.91667C8.74701 2.6412 8.65384 2.4103 8.4675 2.22396C8.28116 2.03762 8.05026 1.94444 7.77479 1.94444C7.49933 1.94444 7.26843 2.03762 7.08208 2.22396C6.89574 2.4103 6.80257 2.6412 6.80257 2.91667C6.80257 3.19213 6.89574 3.42303 7.08208 3.60938C7.26843 3.79572 7.49933 3.88889 7.77479 3.88889ZM10.5213 3.88889H12.2227C12.7088 3.88889 13.1301 4.05093 13.4866 4.375C13.8431 4.69907 14.0618 5.09606 14.1428 5.56597L15.5283 15.2882C15.6093 15.8715 15.4594 16.386 15.0786 16.8316C14.6978 17.2772 14.2077 17.5 13.6081 17.5H1.94146C1.34192 17.5 0.851761 17.2772 0.470973 16.8316C0.0901864 16.386 -0.0596979 15.8715 0.0213207 15.2882L1.40674 5.56597C1.48776 5.09606 1.70651 4.69907 2.06299 4.375C2.41947 4.05093 2.84077 3.88889 3.32688 3.88889H5.02827C4.97965 3.72685 4.93915 3.56887 4.90674 3.41493C4.87433 3.26099 4.85813 3.09491 4.85813 2.91667C4.85813 2.10648 5.14169 1.41782 5.70882 0.850695C6.27595 0.283564 6.96461 0 7.77479 0C8.58498 0 9.27364 0.283564 9.84076 0.850695C10.4079 1.41782 10.6915 2.10648 10.6915 2.91667C10.6915 3.09491 10.6753 3.26099 10.6428 3.41493C10.6104 3.56887 10.5699 3.72685 10.5213 3.88889Z" fill="#8B0000"/>
</svg>
