<svg width="25" height="28" viewBox="0 0 25 28" fill="none" xmlns="http://www.w3.org/2000/svg">
<path d="M6.17666 20.8056H17.8433L16.4579 11.0833H7.56208L6.17666 20.8056ZM12.01 9.13889C12.2855 9.13889 12.5164 9.04572 12.7027 8.85938C12.889 8.67303 12.9822 8.44213 12.9822 8.16667C12.9822 7.8912 12.889 7.6603 12.7027 7.47396C12.5164 7.28762 12.2855 7.19444 12.01 7.19444C11.7345 7.19444 11.5036 7.28762 11.3173 7.47396C11.1309 7.6603 11.0378 7.8912 11.0378 8.16667C11.0378 8.44213 11.1309 8.67303 11.3173 8.85938C11.5036 9.04572 11.7345 9.13889 12.01 9.13889ZM14.7565 9.13889H16.4579C16.944 9.13889 17.3653 9.30093 17.7218 9.625C18.0783 9.94907 18.297 10.3461 18.378 10.816L19.7635 20.5382C19.8445 21.1215 19.6946 21.636 19.3138 22.0816C18.933 22.5272 18.4429 22.75 17.8433 22.75H6.17666C5.57712 22.75 5.08696 22.5272 4.70617 22.0816C4.32539 21.636 4.1755 21.1215 4.25652 20.5382L5.64194 10.816C5.72295 10.3461 5.9417 9.94907 6.29819 9.625C6.65467 9.30093 7.07596 9.13889 7.56208 9.13889H9.26346C9.21485 8.97685 9.17434 8.81887 9.14194 8.66493C9.10953 8.51099 9.09333 8.34491 9.09333 8.16667C9.09333 7.35648 9.37689 6.66782 9.94402 6.10069C10.5111 5.53356 11.1998 5.25 12.01 5.25C12.8202 5.25 13.5088 5.53356 14.076 6.10069C14.6431 6.66782 14.9267 7.35648 14.9267 8.16667C14.9267 8.34491 14.9105 8.51099 14.878 8.66493C14.8456 8.81887 14.8051 8.97685 14.7565 9.13889Z" fill="#8B0000"/>
</svg>
