<svg width="13" height="20" viewBox="0 0 13 20" fill="none" xmlns="http://www.w3.org/2000/svg">
<path d="M9.23227 19.4363V16.5209H6.80272L10.2041 11.6618V14.5773H12.6336L9.23227 19.4363ZM0.971817 19.4363C0.696469 19.4363 0.465663 19.3432 0.279398 19.1569C0.0931325 18.9707 0 18.7399 0 18.4645V2.91544C0 2.64009 0.0931325 2.40929 0.279398 2.22302C0.465663 2.03676 0.696469 1.94362 0.971817 1.94362H2.91545V-9.53674e-06H6.80272V1.94362H8.74636C9.02171 1.94362 9.25251 2.03676 9.43878 2.22302C9.62504 2.40929 9.71817 2.64009 9.71817 2.91544V9.71817C9.37804 9.71817 9.046 9.74651 8.72206 9.8032C8.39812 9.85989 8.08228 9.94492 7.77454 10.0583V3.88726H1.94363V17.4927H4.22741C4.35698 17.8652 4.5149 18.2135 4.70117 18.5374C4.88743 18.8613 5.11014 19.161 5.36929 19.4363H0.971817Z" fill="#8B0000"/>
</svg>
