<svg width="25" height="28" viewBox="0 0 25 28" fill="none" xmlns="http://www.w3.org/2000/svg">
<path d="M16.3782 23.7123V20.7969H13.9487L17.35 15.9378V18.8533H19.7796L16.3782 23.7123ZM8.11775 23.7123C7.8424 23.7123 7.6116 23.6192 7.42533 23.4329C7.23907 23.2467 7.14594 23.0159 7.14594 22.7405V7.19144C7.14594 6.9161 7.23907 6.68529 7.42533 6.49902C7.6116 6.31276 7.8424 6.21963 8.11775 6.21963H10.0614V4.27599H13.9487V6.21963H15.8923C16.1676 6.21963 16.3984 6.31276 16.5847 6.49902C16.771 6.68529 16.8641 6.9161 16.8641 7.19144V13.9942C16.524 13.9942 16.1919 14.0225 15.868 14.0792C15.5441 14.1359 15.2282 14.2209 14.9205 14.3343V8.16326H9.08957V21.7687H11.3733C11.5029 22.1412 11.6608 22.4895 11.8471 22.8134C12.0334 23.1373 12.2561 23.437 12.5152 23.7123H8.11775Z" fill="#8B0000"/>
</svg>
