<svg width="20" height="20" viewBox="0 0 20 20" fill="none" xmlns="http://www.w3.org/2000/svg">
<path d="M9.72222 19.4445C9.72222 19.4445 9.386 19.4445 8.71354 19.4445C8.04109 19.4445 7.11343 19.1892 5.93056 18.6788C4.74769 18.1684 3.71875 17.4757 2.84375 16.6007C1.96875 15.7257 1.27604 14.6968 0.765625 13.5139C0.255208 12.331 0 11.0671 0 9.72224C0 8.37733 0.255208 7.11344 0.765625 5.93057C1.27604 4.7477 1.96875 3.71876 2.84375 2.84376C3.71875 1.96876 4.74769 1.27605 5.93056 0.765638C7.11343 0.255222 8.37731 1.33514e-05 9.72222 1.33514e-05C11.0671 1.33514e-05 12.331 0.255222 13.5139 0.765638C14.6968 1.27605 15.7257 1.96876 16.6007 2.84376C17.4757 3.71876 18.1684 4.7477 18.6788 5.93057C19.1892 7.11344 19.4444 8.37733 19.4444 9.72224C19.4444 11.0671 19.1892 12.331 18.6788 13.5139C18.1684 14.6968 17.4757 15.7257 16.6007 16.6007C15.7257 17.4757 14.6968 18.1684 13.5139 18.6788C12.331 19.1892 11.0671 19.4445 9.72222 19.4445ZM9.72222 17.5C10.6296 17.5 11.4844 17.3582 12.2865 17.0747C13.0885 16.7911 13.8218 16.3901 14.4861 15.8715L13.1007 14.4861C12.6308 14.8264 12.1082 15.0897 11.533 15.2761C10.9578 15.4624 10.3542 15.5556 9.72222 15.5556C8.10185 15.5556 6.72454 14.9884 5.59028 13.8542C4.45602 12.7199 3.88889 11.3426 3.88889 9.72224C3.88889 8.10186 4.45602 6.72455 5.59028 5.59029C6.72454 4.45603 8.10185 3.8889 9.72222 3.8889C11.3426 3.8889 12.7199 4.45603 13.8542 5.59029C14.9884 6.72455 15.5556 8.10186 15.5556 9.72224C15.5556 10.3542 15.4583 10.9618 15.2639 11.5452C15.0694 12.1285 14.8021 12.6551 14.4618 13.125L15.8472 14.5104C16.3657 13.8461 16.7708 13.1088 17.0625 12.2986C17.3542 11.4884 17.5 10.6296 17.5 9.72224C17.5 7.55094 16.7465 5.71182 15.2396 4.20487C13.7326 2.69793 11.8935 1.94446 9.72222 1.94446C7.55093 1.94446 5.71181 2.69793 4.20486 4.20487C2.69792 5.71182 1.94444 7.55094 1.94444 9.72224C1.94444 11.8935 2.69792 13.7327 4.20486 15.2396C5.71181 16.7465 7.55093 17.5 9.72222 17.5ZM9.72222 13.6111C10.0787 13.6111 10.423 13.5666 10.7552 13.4774C11.0874 13.3883 11.3993 13.2546 11.691 13.0764L10.2083 11.5938C10.1273 11.6262 10.0463 11.6464 9.96528 11.6545C9.88426 11.6626 9.80324 11.6667 9.72222 11.6667C9.1875 11.6667 8.72975 11.4763 8.34896 11.0955C7.96817 10.7147 7.77778 10.257 7.77778 9.72224C7.77778 9.18751 7.96817 8.72976 8.34896 8.34897C8.72975 7.96818 9.1875 7.77779 9.72222 7.77779C10.2569 7.77779 10.7147 7.96818 11.0955 8.34897C11.4763 8.72976 11.6667 9.18751 11.6667 9.72224C11.6667 9.81946 11.6626 9.91263 11.6545 10.0017C11.6464 10.0909 11.6262 10.1759 11.5938 10.257L13.0521 11.7153C13.2303 11.4236 13.3681 11.1117 13.4653 10.7795C13.5625 10.4474 13.6111 10.0949 13.6111 9.72224C13.6111 8.65279 13.2303 7.73728 12.4688 6.97571C11.7072 6.21413 10.7917 5.83335 9.72222 5.83335C8.65278 5.83335 7.73727 6.21413 6.97569 6.97571C6.21412 7.73728 5.83333 8.65279 5.83333 9.72224C5.83333 10.7917 6.21412 11.7072 6.97569 12.4688C7.73727 13.2303 8.65278 13.6111 9.72222 13.6111Z" fill="#8B0000"/>
</svg>
