<svg width="25" height="28" viewBox="0 0 25 28" fill="none" xmlns="http://www.w3.org/2000/svg">
<path d="M12.01 23.7222C12.01 23.7222 11.6738 23.7222 11.0013 23.7222C10.3289 23.7222 9.40121 23.467 8.21834 22.9566C7.03547 22.4462 6.00653 21.7535 5.13153 20.8785C4.25653 20.0035 3.56382 18.9745 3.05341 17.7917C2.54299 16.6088 2.28778 15.3449 2.28778 14C2.28778 12.6551 2.54299 11.3912 3.05341 10.2083C3.56382 9.02547 4.25653 7.99653 5.13153 7.12153C6.00653 6.24653 7.03547 5.55383 8.21834 5.04341C9.40121 4.53299 10.6651 4.27778 12.01 4.27778C13.3549 4.27778 14.6188 4.53299 15.8017 5.04341C16.9845 5.55383 18.0135 6.24653 18.8885 7.12153C19.7635 7.99653 20.4562 9.02547 20.9666 10.2083C21.477 11.3912 21.7322 12.6551 21.7322 14C21.7322 15.3449 21.477 16.6088 20.9666 17.7917C20.4562 18.9745 19.7635 20.0035 18.8885 20.8785C18.0135 21.7535 16.9845 22.4462 15.8017 22.9566C14.6188 23.467 13.3549 23.7222 12.01 23.7222ZM12.01 21.7778C12.9174 21.7778 13.7722 21.636 14.5742 21.3524C15.3763 21.0689 16.1095 20.6678 16.7739 20.1493L15.3885 18.7639C14.9186 19.1042 14.396 19.3675 13.8208 19.5538C13.2455 19.7402 12.6419 19.8333 12.01 19.8333C10.3896 19.8333 9.01232 19.2662 7.87806 18.132C6.7438 16.9977 6.17667 15.6204 6.17667 14C6.17667 12.3796 6.7438 11.0023 7.87806 9.86806C9.01232 8.7338 10.3896 8.16667 12.01 8.16667C13.6304 8.16667 15.0077 8.7338 16.1419 9.86806C17.2762 11.0023 17.8433 12.3796 17.8433 14C17.8433 14.632 17.7461 15.2396 17.5517 15.8229C17.3572 16.4063 17.0899 16.9329 16.7496 17.4028L18.135 18.7882C18.6535 18.1238 19.0586 17.3866 19.3503 16.5764C19.6419 15.7662 19.7878 14.9074 19.7878 14C19.7878 11.8287 19.0343 9.98959 17.5274 8.48265C16.0204 6.9757 14.1813 6.22223 12.01 6.22223C9.83871 6.22223 7.99959 6.9757 6.49264 8.48265C4.9857 9.98959 4.23223 11.8287 4.23223 14C4.23223 16.1713 4.9857 18.0104 6.49264 19.5174C7.99959 21.0243 9.83871 21.7778 12.01 21.7778ZM12.01 17.8889C12.3665 17.8889 12.7108 17.8443 13.043 17.7552C13.3752 17.6661 13.6871 17.5324 13.9788 17.3542L12.4961 15.8715C12.4151 15.9039 12.3341 15.9242 12.2531 15.9323C12.172 15.9404 12.091 15.9445 12.01 15.9445C11.4753 15.9445 11.0175 15.7541 10.6367 15.3733C10.256 14.9925 10.0656 14.5347 10.0656 14C10.0656 13.4653 10.256 13.0075 10.6367 12.6267C11.0175 12.246 11.4753 12.0556 12.01 12.0556C12.5447 12.0556 13.0025 12.246 13.3833 12.6267C13.7641 13.0075 13.9544 13.4653 13.9544 14C13.9544 14.0972 13.9504 14.1904 13.9423 14.2795C13.9342 14.3686 13.9139 14.4537 13.8815 14.5347L15.3399 15.9931C15.5181 15.7014 15.6558 15.3895 15.7531 15.0573C15.8503 14.7251 15.8989 14.3727 15.8989 14C15.8989 12.9306 15.5181 12.0151 14.7565 11.2535C13.995 10.4919 13.0794 10.1111 12.01 10.1111C10.9406 10.1111 10.025 10.4919 9.26348 11.2535C8.5019 12.0151 8.12111 12.9306 8.12111 14C8.12111 15.0695 8.5019 15.985 9.26348 16.7465C10.025 17.5081 10.9406 17.8889 12.01 17.8889Z" fill="#8B0000"/>
</svg>
