<svg width="20" height="20" viewBox="0 0 20 20" fill="none" xmlns="http://www.w3.org/2000/svg">
<path d="M6.80272 11.9048C6.80272 11.9048 6.71769 11.9048 6.54762 11.9048C6.37755 11.9048 6.17509 11.7873 5.94023 11.5525C5.70538 11.3176 5.58795 11.0301 5.58795 10.69C5.58795 10.3498 5.70538 10.0624 5.94023 9.82749C6.17509 9.59264 6.46259 9.47521 6.80272 9.47521C7.14286 9.47521 7.43035 9.59264 7.66521 9.82749C7.90007 10.0624 8.01749 10.3498 8.01749 10.69C8.01749 11.0301 7.90007 11.3176 7.66521 11.5525C7.43035 11.7873 7.14286 11.9048 6.80272 11.9048ZM12.6336 11.9048C12.6336 11.9048 12.5486 11.9048 12.3785 11.9048C12.2085 11.9048 12.006 11.7873 11.7711 11.5525C11.5363 11.3176 11.4189 11.0301 11.4189 10.69C11.4189 10.3498 11.5363 10.0624 11.7711 9.82749C12.006 9.59264 12.2935 9.47521 12.6336 9.47521C12.9738 9.47521 13.2613 9.59264 13.4961 9.82749C13.731 10.0624 13.8484 10.3498 13.8484 10.69C13.8484 11.0301 13.731 11.3176 13.4961 11.5525C13.2613 11.7873 12.9738 11.9048 12.6336 11.9048ZM9.71817 17.4927C11.8886 17.4927 13.7269 16.7395 15.2332 15.2332C16.7396 13.7269 17.4927 11.8886 17.4927 9.71817C17.4927 9.32944 17.4684 8.95286 17.4198 8.58843C17.3712 8.224 17.2822 7.87171 17.1526 7.53158C16.8124 7.61256 16.4723 7.6733 16.1322 7.71379C15.792 7.75428 15.4357 7.77453 15.0632 7.77453C13.5892 7.77453 12.1963 7.45869 10.8844 6.82701C9.5724 6.19533 8.45481 5.31259 7.53159 4.17881C7.01328 5.44217 6.27227 6.53951 5.30855 7.47084C4.34483 8.40216 3.22319 9.10268 1.94363 9.57239C1.94363 9.60479 1.94363 9.62908 1.94363 9.64528C1.94363 9.66148 1.94363 9.68577 1.94363 9.71817C1.94363 11.8886 2.69679 13.7269 4.20311 15.2332C5.70943 16.7395 7.54778 17.4927 9.71817 17.4927ZM9.71817 19.4363C8.37383 19.4363 7.11047 19.1812 5.92809 18.671C4.74571 18.1608 3.7172 17.4684 2.84257 16.5938C1.96793 15.7191 1.27551 14.6906 0.765306 13.5083C0.255102 12.3259 0 11.0625 0 9.71817C0 8.37382 0.255102 7.11045 0.765306 5.92808C1.27551 4.7457 1.96793 3.71719 2.84257 2.84256C3.7172 1.96792 4.74571 1.2755 5.92809 0.765297C7.11047 0.255093 8.37383 -9.53674e-06 9.71817 -9.53674e-06C11.0625 -9.53674e-06 12.3259 0.255093 13.5083 0.765297C14.6906 1.2755 15.7191 1.96792 16.5938 2.84256C17.4684 3.71719 18.1608 4.7457 18.671 5.92808C19.1812 7.11045 19.4363 8.37382 19.4363 9.71817C19.4363 11.0625 19.1812 12.3259 18.671 13.5083C18.1608 14.6906 17.4684 15.7191 16.5938 16.5938C15.7191 17.4684 14.6906 18.1608 13.5083 18.671C12.3259 19.1812 11.0625 19.4363 9.71817 19.4363ZM8.40622 2.0651C9.08649 3.19889 10.0097 4.10997 11.1759 4.79834C12.3421 5.48671 13.6378 5.8309 15.0632 5.8309C15.2899 5.8309 15.5086 5.81875 15.7191 5.79445C15.9297 5.77016 16.1484 5.74181 16.3751 5.70942C15.6949 4.57563 14.7716 3.66455 13.6054 2.97618C12.4393 2.28781 11.1435 1.94362 9.71817 1.94362C9.49142 1.94362 9.27276 1.95577 9.0622 1.98007C8.85164 2.00436 8.63298 2.03271 8.40622 2.0651ZM2.35666 7.26433C3.1827 6.79461 3.90347 6.18723 4.51895 5.44217C5.13444 4.69711 5.59605 3.86296 5.90379 2.93974C5.07775 3.40945 4.35698 4.01684 3.7415 4.7619C3.12601 5.50696 2.6644 6.3411 2.35666 7.26433Z" fill="#8B0000"/>
</svg>
