<svg width="25" height="28" viewBox="0 0 25 28" fill="none" xmlns="http://www.w3.org/2000/svg">
<path d="M9.08953 16.1808C9.08953 16.1808 9.00449 16.1808 8.83442 16.1808C8.66436 16.1808 8.46189 16.0633 8.22704 15.8285C7.99218 15.5936 7.87475 15.3061 7.87475 14.966C7.87475 14.6258 7.99218 14.3384 8.22704 14.1035C8.46189 13.8686 8.74939 13.7512 9.08953 13.7512C9.42966 13.7512 9.71716 13.8686 9.95201 14.1035C10.1869 14.3384 10.3043 14.6258 10.3043 14.966C10.3043 15.3061 10.1869 15.5936 9.95201 15.8285C9.71716 16.0633 9.42966 16.1808 9.08953 16.1808ZM14.9204 16.1808C14.9204 16.1808 14.8354 16.1808 14.6653 16.1808C14.4953 16.1808 14.2928 16.0633 14.0579 15.8285C13.8231 15.5936 13.7057 15.3061 13.7057 14.966C13.7057 14.6258 13.8231 14.3384 14.0579 14.1035C14.2928 13.8686 14.5803 13.7512 14.9204 13.7512C15.2606 13.7512 15.5481 13.8686 15.7829 14.1035C16.0178 14.3384 16.1352 14.6258 16.1352 14.966C16.1352 15.3061 16.0178 15.5936 15.7829 15.8285C15.5481 16.0633 15.2606 16.1808 14.9204 16.1808ZM12.005 21.7687C14.1754 21.7687 16.0137 21.0155 17.52 19.5092C19.0264 18.0029 19.7795 16.1646 19.7795 13.9942C19.7795 13.6054 19.7552 13.2289 19.7066 12.8644C19.658 12.5 19.569 12.1477 19.4394 11.8076C19.0992 11.8886 18.7591 11.9493 18.419 11.9898C18.0788 12.0303 17.7225 12.0505 17.35 12.0505C15.8761 12.0505 14.4831 11.7347 13.1712 11.103C11.8592 10.4713 10.7416 9.58859 9.81839 8.45481C9.30009 9.71817 8.55908 10.8155 7.59536 11.7468C6.63164 12.6782 5.51 13.3787 4.23044 13.8484C4.23044 13.8808 4.23044 13.9051 4.23044 13.9213C4.23044 13.9375 4.23044 13.9618 4.23044 13.9942C4.23044 16.1646 4.9836 18.0029 6.48991 19.5092C7.99623 21.0155 9.83459 21.7687 12.005 21.7687ZM12.005 23.7123C10.6606 23.7123 9.39727 23.4572 8.21489 22.947C7.03251 22.4368 6.00401 21.7444 5.12937 20.8698C4.25473 19.9951 3.56231 18.9666 3.05211 17.7843C2.54191 16.6019 2.2868 15.3385 2.2868 13.9942C2.2868 12.6498 2.54191 11.3865 3.05211 10.2041C3.56231 9.0217 4.25473 7.99319 5.12937 7.11856C6.00401 6.24392 7.03251 5.5515 8.21489 5.0413C9.39727 4.53109 10.6606 4.27599 12.005 4.27599C13.3493 4.27599 14.6127 4.53109 15.7951 5.0413C16.9774 5.5515 18.006 6.24392 18.8806 7.11856C19.7552 7.99319 20.4476 9.0217 20.9578 10.2041C21.4681 11.3865 21.7232 12.6498 21.7232 13.9942C21.7232 15.3385 21.4681 16.6019 20.9578 17.7843C20.4476 18.9666 19.7552 19.9951 18.8806 20.8698C18.006 21.7444 16.9774 22.4368 15.7951 22.947C14.6127 23.4572 13.3493 23.7123 12.005 23.7123ZM10.693 6.3411C11.3733 7.47489 12.2965 8.38597 13.4627 9.07434C14.6289 9.76271 15.9246 10.1069 17.35 10.1069C17.5767 10.1069 17.7954 10.0947 18.006 10.0705C18.2165 10.0462 18.4352 10.0178 18.6619 9.98542C17.9817 8.85163 17.0584 7.94055 15.8922 7.25218C14.7261 6.56381 13.4303 6.21963 12.005 6.21963C11.7782 6.21963 11.5596 6.23177 11.349 6.25607C11.1384 6.28036 10.9198 6.30871 10.693 6.3411ZM4.64346 11.5403C5.46951 11.0706 6.19027 10.4632 6.80576 9.71817C7.42124 8.97311 7.88285 8.13897 8.1906 7.21574C7.36455 7.68545 6.64379 8.29284 6.0283 9.0379C5.41282 9.78296 4.9512 10.6171 4.64346 11.5403Z" fill="#8B0000"/>
</svg>
