<svg width="25" height="28" viewBox="0 0 25 28" fill="none" xmlns="http://www.w3.org/2000/svg">
<path d="M8.12113 19.8333H15.8989V17.8888H8.12113V19.8333ZM8.12113 15.9444H15.8989V13.9999H8.12113V15.9444ZM6.17668 23.7222C5.64196 23.7222 5.18421 23.5318 4.80342 23.151C4.42263 22.7702 4.23224 22.3124 4.23224 21.7777V6.22217C4.23224 5.68744 4.42263 5.22969 4.80342 4.8489C5.18421 4.46812 5.64196 4.27772 6.17668 4.27772H13.9545L19.7878 10.1111V21.7777C19.7878 22.3124 19.5974 22.7702 19.2166 23.151C18.8358 23.5318 18.3781 23.7222 17.8434 23.7222H6.17668ZM12.9822 11.0833V6.22217H6.17668V21.7777H17.8434V11.0833H12.9822ZM6.17668 6.22217V11.0833V21.7777V6.22217Z" fill="white"/>
</svg>
