<svg width="15" height="16" viewBox="0 0 15 16" fill="none" xmlns="http://www.w3.org/2000/svg">
<path d="M4.22921 13.5459C4.22921 13.5459 4.15288 13.5459 4.00021 13.5459C3.84754 13.5459 3.66248 13.4372 3.44505 13.2197C3.22761 13.0023 3.11889 12.7409 3.11889 12.4356C3.11889 12.1302 3.22761 11.8689 3.44505 11.6514C3.66248 11.434 3.92387 11.3253 4.22921 11.3253C4.53455 11.3253 4.79594 11.434 5.01337 11.6514C5.23081 11.8689 5.33953 12.1302 5.33953 12.4356C5.33953 12.7409 5.23081 13.0023 5.01337 13.2197C4.79594 13.4372 4.53455 13.5459 4.22921 13.5459ZM9.7808 13.5459C9.7808 13.5459 9.70447 13.5459 9.5518 13.5459C9.39913 13.5459 9.21408 13.4372 8.99664 13.2197C8.7792 13.0023 8.67048 12.7409 8.67048 12.4356C8.67048 12.1302 8.7792 11.8689 8.99664 11.6514C9.21408 11.434 9.47546 11.3253 9.7808 11.3253C10.0861 11.3253 10.3475 11.434 10.565 11.6514C10.7824 11.8689 10.8911 12.1302 10.8911 12.4356C10.8911 12.7409 10.7824 13.0023 10.565 13.2197C10.3475 13.4372 10.0861 13.5459 9.7808 13.5459ZM3.75732 4.66335L5.08971 7.43915H8.97582L10.5025 4.66335H3.75732ZM3.22992 3.55303H11.4185C11.6313 3.55303 11.7933 3.64787 11.9043 3.83755C12.0153 4.02723 12.0199 4.21922 11.9182 4.41353L9.94735 7.96655C9.84557 8.1516 9.7091 8.29502 9.53792 8.3968C9.36675 8.49858 9.17938 8.54946 8.97582 8.54946H4.83989L4.22921 9.65978H10.8911V10.7701H4.22921C3.81284 10.7701 3.49825 10.5874 3.28544 10.2219C3.07263 9.8564 3.06338 9.49324 3.25768 9.13238L4.00715 7.77224L2.00857 3.55303H0.898254V2.44271H2.70252L3.22992 3.55303Z" fill="white"/>
</svg>
