<svg width="12" height="12" viewBox="0 0 12 12" fill="none" xmlns="http://www.w3.org/2000/svg">
<path d="M3.33096 11.1031C3.33096 11.1031 3.25462 11.1031 3.10195 11.1031C2.94928 11.1031 2.76423 10.9944 2.54679 10.777C2.32936 10.5596 2.22064 10.2982 2.22064 9.99283C2.22064 9.68749 2.32936 9.42611 2.54679 9.20867C2.76423 8.99123 3.02562 8.88251 3.33096 8.88251C3.63629 8.88251 3.89768 8.99123 4.11512 9.20867C4.33256 9.42611 4.44127 9.68749 4.44127 9.99283C4.44127 10.2982 4.33256 10.5596 4.11512 10.777C3.89768 10.9944 3.63629 11.1031 3.33096 11.1031ZM8.88255 11.1031C8.88255 11.1031 8.80621 11.1031 8.65355 11.1031C8.50088 11.1031 8.31582 10.9944 8.09839 10.777C7.88095 10.5596 7.77223 10.2982 7.77223 9.99283C7.77223 9.68749 7.88095 9.42611 8.09839 9.20867C8.31582 8.99123 8.57721 8.88251 8.88255 8.88251C9.18789 8.88251 9.44927 8.99123 9.66671 9.20867C9.88415 9.42611 9.99287 9.68749 9.99287 9.99283C9.99287 10.2982 9.88415 10.5596 9.66671 10.777C9.44927 10.9944 9.18789 11.1031 8.88255 11.1031ZM2.85907 2.2206L4.19145 4.9964H8.07757L9.60426 2.2206H2.85907ZM2.33167 1.11028H10.5203C10.7331 1.11028 10.895 1.20512 11.006 1.3948C11.1171 1.58448 11.1217 1.77647 11.0199 1.97078L9.0491 5.5238C8.94732 5.70885 8.81084 5.85227 8.63967 5.95405C8.46849 6.05583 8.28113 6.10672 8.07757 6.10672H3.94163L3.33096 7.21703H9.99287V8.32735H3.33096C2.91459 8.32735 2.6 8.14461 2.38718 7.77913C2.17437 7.41365 2.16512 7.05049 2.35943 6.68963L3.10889 5.32949L1.11032 1.11028H0V-3.62396e-05H1.80427L2.33167 1.11028Z" fill="white"/>
</svg>
