<svg width="16" height="20" viewBox="0 0 16 20" fill="none" xmlns="http://www.w3.org/2000/svg">
<path d="M3.88889 15.5556H11.6667V13.6111H3.88889V15.5556ZM3.88889 11.6667H11.6667V9.72224H3.88889V11.6667ZM1.94444 19.4445C1.40972 19.4445 0.951968 19.2541 0.571181 18.8733C0.190394 18.4925 0 18.0347 0 17.5V1.94446C0 1.40973 0.190394 0.951981 0.571181 0.571194C0.951968 0.190407 1.40972 1.33514e-05 1.94444 1.33514e-05H9.72222L15.5556 5.83335V17.5C15.5556 18.0347 15.3652 18.4925 14.9844 18.8733C14.6036 19.2541 14.1458 19.4445 13.6111 19.4445H1.94444ZM8.75 6.80557V1.94446H1.94444V17.5H13.6111V6.80557H8.75ZM1.94444 1.94446V6.80557V17.5V1.94446Z" fill="white"/>
</svg>
