<svg width="20" height="20" viewBox="0 0 20 20" fill="none" xmlns="http://www.w3.org/2000/svg">
<path d="M13.125 8.75001C13.5301 8.75001 13.8744 8.60823 14.158 8.32467C14.4416 8.0411 14.5833 7.69677 14.5833 7.29168C14.5833 6.88659 14.4416 6.54226 14.158 6.25869C13.8744 5.97513 13.5301 5.83335 13.125 5.83335C12.7199 5.83335 12.3756 5.97513 12.092 6.25869C11.8084 6.54226 11.6667 6.88659 11.6667 7.29168C11.6667 7.69677 11.8084 8.0411 12.092 8.32467C12.3756 8.60823 12.7199 8.75001 13.125 8.75001ZM6.31944 8.75001C6.72454 8.75001 7.06887 8.60823 7.35243 8.32467C7.636 8.0411 7.77778 7.69677 7.77778 7.29168C7.77778 6.88659 7.636 6.54226 7.35243 6.25869C7.06887 5.97513 6.72454 5.83335 6.31944 5.83335C5.91435 5.83335 5.57002 5.97513 5.28646 6.25869C5.00289 6.54226 4.86111 6.88659 4.86111 7.29168C4.86111 7.69677 5.00289 8.0411 5.28646 8.32467C5.57002 8.60823 5.91435 8.75001 6.31944 8.75001ZM9.72222 15.0695C9.72222 15.0695 9.99769 15.0695 10.5486 15.0695C11.0995 15.0695 11.8247 14.7575 12.724 14.1337C13.6233 13.5099 14.2755 12.6875 14.6806 11.6667H13.0764C12.7199 12.2662 12.2459 12.7402 11.6545 13.0886C11.0631 13.4369 10.419 13.6111 9.72222 13.6111C9.02546 13.6111 8.38137 13.4369 7.78993 13.0886C7.1985 12.7402 6.72454 12.2662 6.36806 11.6667H4.76389C5.16898 12.6875 5.82118 13.5099 6.72049 14.1337C7.61979 14.7575 8.62037 15.0695 9.72222 15.0695ZM9.72222 19.4445C9.72222 19.4445 9.386 19.4445 8.71354 19.4445C8.04109 19.4445 7.11343 19.1892 5.93056 18.6788C4.74769 18.1684 3.71875 17.4757 2.84375 16.6007C1.96875 15.7257 1.27604 14.6968 0.765625 13.5139C0.255208 12.331 0 11.0671 0 9.72224C0 8.37733 0.255208 7.11344 0.765625 5.93057C1.27604 4.7477 1.96875 3.71876 2.84375 2.84376C3.71875 1.96876 4.74769 1.27605 5.93056 0.765638C7.11343 0.255222 8.37731 1.33514e-05 9.72222 1.33514e-05C11.0671 1.33514e-05 12.331 0.255222 13.5139 0.765638C14.6968 1.27605 15.7257 1.96876 16.6007 2.84376C17.4757 3.71876 18.1684 4.7477 18.6788 5.93057C19.1892 7.11344 19.4444 8.37733 19.4444 9.72224C19.4444 11.0671 19.1892 12.331 18.6788 13.5139C18.1684 14.6968 17.4757 15.7257 16.6007 16.6007C15.7257 17.4757 14.6968 18.1684 13.5139 18.6788C12.331 19.1892 11.0671 19.4445 9.72222 19.4445ZM9.72222 17.5C9.72222 17.5 10.265 17.5 11.3507 17.5C12.4363 17.5 13.7326 16.7465 15.2396 15.2396C16.7465 13.7327 17.5 11.8935 17.5 9.72224C17.5 7.55094 16.7465 5.71182 15.2396 4.20487C13.7326 2.69793 11.8935 1.94446 9.72222 1.94446C7.55093 1.94446 5.71181 2.69793 4.20486 4.20487C2.69792 5.71182 1.94444 7.55094 1.94444 9.72224C1.94444 11.8935 2.69792 13.7327 4.20486 15.2396C5.71181 16.7465 7.55093 17.5 9.72222 17.5Z" fill="#8B0000"/>
</svg>
