<svg width="25" height="28" viewBox="0 0 25 28" fill="none" xmlns="http://www.w3.org/2000/svg">
<path d="M15.4128 13.0277C15.8179 13.0277 16.1622 12.8859 16.4458 12.6024C16.7293 12.3188 16.8711 11.9745 16.8711 11.5694C16.8711 11.1643 16.7293 10.82 16.4458 10.5364C16.1622 10.2528 15.8179 10.1111 15.4128 10.1111C15.0077 10.1111 14.6634 10.2528 14.3798 10.5364C14.0962 10.82 13.9544 11.1643 13.9544 11.5694C13.9544 11.9745 14.0962 12.3188 14.3798 12.6024C14.6634 12.8859 15.0077 13.0277 15.4128 13.0277ZM8.60723 13.0277C9.01232 13.0277 9.35665 12.8859 9.64021 12.6024C9.92378 12.3188 10.0656 11.9745 10.0656 11.5694C10.0656 11.1643 9.92378 10.82 9.64021 10.5364C9.35665 10.2528 9.01232 10.1111 8.60723 10.1111C8.20213 10.1111 7.8578 10.2528 7.57424 10.5364C7.29067 10.82 7.14889 11.1643 7.14889 11.5694C7.14889 11.9745 7.29067 12.3188 7.57424 12.6024C7.8578 12.8859 8.20213 13.0277 8.60723 13.0277ZM12.01 19.3472C12.01 19.3472 12.2855 19.3472 12.8364 19.3472C13.3873 19.3472 14.1124 19.0352 15.0117 18.4114C15.911 17.7876 16.5632 16.9652 16.9683 15.9444H15.3642C15.0077 16.5439 14.5337 17.0179 13.9423 17.3663C13.3509 17.7146 12.7068 17.8888 12.01 17.8888C11.3132 17.8888 10.6691 17.7146 10.0777 17.3663C9.48628 17.0179 9.01232 16.5439 8.65584 15.9444H7.05167C7.45676 16.9652 8.10896 17.7876 9.00827 18.4114C9.90757 19.0352 10.9082 19.3472 12.01 19.3472ZM12.01 23.7222C12.01 23.7222 11.6738 23.7222 11.0013 23.7222C10.3289 23.7222 9.40121 23.467 8.21834 22.9565C7.03547 22.4461 6.00653 21.7534 5.13153 20.8784C4.25653 20.0034 3.56382 18.9745 3.05341 17.7916C2.54299 16.6087 2.28778 15.3449 2.28778 13.9999C2.28778 12.655 2.54299 11.3911 3.05341 10.2083C3.56382 9.02541 4.25653 7.99647 5.13153 7.12147C6.00653 6.24647 7.03547 5.55376 8.21834 5.04335C9.40121 4.53293 10.6651 4.27772 12.01 4.27772C13.3549 4.27772 14.6188 4.53293 15.8017 5.04335C16.9845 5.55376 18.0135 6.24647 18.8885 7.12147C19.7635 7.99647 20.4562 9.02541 20.9666 10.2083C21.477 11.3911 21.7322 12.655 21.7322 13.9999C21.7322 15.3449 21.477 16.6087 20.9666 17.7916C20.4562 18.9745 19.7635 20.0034 18.8885 20.8784C18.0135 21.7534 16.9845 22.4461 15.8017 22.9565C14.6188 23.467 13.3549 23.7222 12.01 23.7222ZM12.01 21.7777C12.01 21.7777 12.5528 21.7777 13.6385 21.7777C14.7241 21.7777 16.0204 21.0243 17.5274 19.5173C19.0343 18.0104 19.7878 16.1712 19.7878 13.9999C19.7878 11.8286 19.0343 9.98953 17.5274 8.48258C16.0204 6.97564 14.1813 6.22217 12.01 6.22217C9.83871 6.22217 7.99959 6.97564 6.49264 8.48258C4.9857 9.98953 4.23223 11.8286 4.23223 13.9999C4.23223 16.1712 4.9857 18.0104 6.49264 19.5173C7.99959 21.0243 9.83871 21.7777 12.01 21.7777Z" fill="#8B0000"/>
</svg>
