<svg width="20" height="20" viewBox="0 0 20 20" fill="none" xmlns="http://www.w3.org/2000/svg">
<path d="M5.34722 14.0972L12.1528 12.1528L14.0972 5.34724L7.29167 7.29168L5.34722 14.0972ZM9.72222 11.1806C9.31713 11.1806 8.9728 11.0388 8.68924 10.7552C8.40567 10.4717 8.26389 10.1273 8.26389 9.72224C8.26389 9.31714 8.40567 8.97281 8.68924 8.68925C8.9728 8.40568 9.31713 8.2639 9.72222 8.2639C10.1273 8.2639 10.4716 8.40568 10.7552 8.68925C11.0388 8.97281 11.1806 9.31714 11.1806 9.72224C11.1806 10.1273 11.0388 10.4717 10.7552 10.7552C10.4716 11.0388 10.1273 11.1806 9.72222 11.1806ZM9.72222 19.4445C8.37731 19.4445 7.11343 19.1892 5.93056 18.6788C4.74769 18.1684 3.71875 17.4757 2.84375 16.6007C1.96875 15.7257 1.27604 14.6968 0.765625 13.5139C0.255208 12.331 0 11.0671 0 9.72224C0 8.37733 0.255208 7.11344 0.765625 5.93057C1.27604 4.7477 1.96875 3.71876 2.84375 2.84376C3.71875 1.96876 4.74769 1.27605 5.93056 0.765638C7.11343 0.255222 8.37731 1.33514e-05 9.72222 1.33514e-05C11.0671 1.33514e-05 12.331 0.255222 13.5139 0.765638C14.6968 1.27605 15.7257 1.96876 16.6007 2.84376C17.4757 3.71876 18.1684 4.7477 18.6788 5.93057C19.1892 7.11344 19.4444 8.37733 19.4444 9.72224C19.4444 11.0671 19.1892 12.331 18.6788 13.5139C18.1684 14.6968 17.4757 15.7257 16.6007 16.6007C15.7257 17.4757 14.6968 18.1684 13.5139 18.6788C12.331 19.1892 11.0671 19.4445 9.72222 19.4445ZM9.72222 17.5C11.8773 17.5 13.7124 16.7425 15.2274 15.2274C16.7425 13.7124 17.5 11.8773 17.5 9.72224C17.5 7.56714 16.7425 5.73207 15.2274 4.21703C13.7124 2.70198 11.8773 1.94446 9.72222 1.94446C7.56713 1.94446 5.73206 2.70198 4.21701 4.21703C2.70197 5.73207 1.94444 7.56714 1.94444 9.72224C1.94444 11.8773 2.70197 13.7124 4.21701 15.2274C5.73206 16.7425 7.56713 17.5 9.72222 17.5Z" fill="#8B0000"/>
</svg>
