<svg width="20" height="20" viewBox="0 0 20 20" fill="none" xmlns="http://www.w3.org/2000/svg">
<path d="M6.61111 8.7014L8.70139 6.58682L7.34028 5.2014L6.27083 6.27085L4.90972 4.90974L5.95486 3.84029L4.86111 2.74654L2.74653 4.86112L6.61111 8.7014ZM14.5833 16.6979L16.6979 14.5833L15.6042 13.4896L14.5347 14.5347L13.1736 13.1736L14.2188 12.1042L12.8333 10.7431L10.7431 12.8333L14.5833 16.6979ZM5.10417 18.4722H0.972222V14.3403L5.22569 10.0868L0 4.86112L4.86111 1.33514e-05L10.1111 5.25001L13.7812 1.55557C13.9757 1.36112 14.1944 1.21529 14.4375 1.11807C14.6806 1.02085 14.9317 0.972235 15.191 0.972235C15.4502 0.972235 15.7014 1.02085 15.9444 1.11807C16.1875 1.21529 16.4062 1.36112 16.6007 1.55557L17.8889 2.86807C18.0833 3.06251 18.2292 3.28126 18.3264 3.52432C18.4236 3.76737 18.4722 4.01853 18.4722 4.27779C18.4722 4.53705 18.4236 4.78416 18.3264 5.01911C18.2292 5.25406 18.0833 5.46876 17.8889 5.66321L14.2188 9.35765L19.4444 14.5833L14.5833 19.4445L9.35764 14.2188L5.10417 18.4722ZM2.91667 16.5278H4.27778L13.8056 7.02432L12.4201 5.6389L2.91667 15.1667V16.5278ZM13.125 6.34376L12.4201 5.6389L13.8056 7.02432L13.125 6.34376Z" fill="#8B0000"/>
</svg>
