<svg width="25" height="28" viewBox="0 0 25 28" fill="none" xmlns="http://www.w3.org/2000/svg">
<path d="M8.89889 12.9791L10.9892 10.8645L9.62805 9.47911L8.55861 10.5486L7.1975 9.18745L8.24264 8.118L7.14889 7.02425L5.0343 9.13883L8.89889 12.9791ZM16.8711 20.9756L18.9857 18.8611L17.8919 17.7673L16.8225 18.8124L15.4614 17.4513L16.5065 16.3819L15.1211 15.0208L13.0308 17.1111L16.8711 20.9756ZM7.39194 22.7499H3.26V18.618L7.51347 14.3645L2.28778 9.13883L7.14889 4.27772L12.3989 9.52772L16.069 5.83328C16.2635 5.63883 16.4822 5.493 16.7253 5.39578C16.9683 5.29856 17.2195 5.24994 17.4787 5.24994C17.738 5.24994 17.9892 5.29856 18.2322 5.39578C18.4753 5.493 18.694 5.63883 18.8885 5.83328L20.1767 7.14578C20.3711 7.34022 20.5169 7.55897 20.6142 7.80203C20.7114 8.04508 20.76 8.29624 20.76 8.5555C20.76 8.81476 20.7114 9.06187 20.6142 9.29682C20.5169 9.53177 20.3711 9.74647 20.1767 9.94092L16.5065 13.6354L21.7322 18.8611L16.8711 23.7222L11.6454 18.4965L7.39194 22.7499ZM5.20444 20.8055H6.56555L16.0933 11.302L14.7079 9.91661L5.20444 19.4444V20.8055ZM15.4128 10.6215L14.7079 9.91661L16.0933 11.302L15.4128 10.6215Z" fill="#8B0000"/>
</svg>
