<svg width="64" height="64" viewBox="0 0 64 64" fill="none" xmlns="http://www.w3.org/2000/svg">
<g clip-path="url(#clip0_4_957)">
<path d="M3.70575 32C3.70575 24.4959 6.68674 17.2991 11.9929 11.9929C17.2991 6.68673 24.4959 3.70574 32 3.70574C39.5041 3.70574 46.7008 6.68673 52.007 11.9929C57.3132 17.2991 60.2942 24.4959 60.2942 32C60.2942 39.5041 57.3132 46.7008 52.007 52.007C46.7008 57.3132 39.5041 60.2942 32 60.2942C24.4959 60.2942 17.2991 57.3132 11.9929 52.007C6.68674 46.7008 3.70575 39.5041 3.70575 32Z" stroke="#202020" stroke-width="7.11111" stroke-dasharray="177.78 177.78"/>
<path d="M3.70575 32C3.70575 24.4959 6.68674 17.2991 11.9929 11.9929C17.2991 6.68673 24.4959 3.70574 32 3.70574C39.5041 3.70574 46.7008 6.68673 52.007 11.9929C57.3132 17.2991 60.2942 24.4959 60.2942 32C60.2942 39.5041 57.3132 46.7008 52.007 52.007C46.7008 57.3132 39.5041 60.2942 32 60.2942C24.4959 60.2942 17.2991 57.3132 11.9929 52.007C6.68674 46.7008 3.70575 39.5041 3.70575 32Z" stroke="#8B0000" stroke-width="7.11111" stroke-dasharray="170.67 177.78"/>
</g>
<defs>
<clipPath id="clip0_4_957">
<rect width="64" height="64" fill="white" transform="matrix(0 -1 1 0 0 64)"/>
</clipPath>
</defs>
</svg>
