<svg width="13" height="19" viewBox="0 0 13 19" fill="none" xmlns="http://www.w3.org/2000/svg">
<path d="M1.66667 18.3333C1.20833 18.3333 0.815972 18.1701 0.489583 17.8438C0.163194 17.5174 0 17.125 0 16.6667V1.66668C0 1.20834 0.163194 0.815982 0.489583 0.489593C0.815972 0.163204 1.20833 9.62615e-06 1.66667 9.62615e-06H10C10.4583 9.62615e-06 10.8507 0.163204 11.1771 0.489593C11.5035 0.815982 11.6667 1.20834 11.6667 1.66668V4.25001C11.9167 4.34723 12.1181 4.50001 12.2708 4.70834C12.4236 4.91668 12.5 5.15279 12.5 5.41668V7.08334C12.5 7.34723 12.4236 7.58334 12.2708 7.79168C12.1181 8.00001 11.9167 8.15279 11.6667 8.25001V16.6667C11.6667 17.125 11.5035 17.5174 11.1771 17.8438C10.8507 18.1701 10.4583 18.3333 10 18.3333H1.66667ZM1.66667 16.6667H10V1.66668H1.66667V16.6667ZM4.16667 15.8333H7.5C7.73611 15.8333 7.93403 15.7535 8.09375 15.5938C8.25347 15.434 8.33333 15.2361 8.33333 15C8.33333 14.7639 8.25347 14.566 8.09375 14.4063C7.93403 14.2465 7.73611 14.1667 7.5 14.1667H4.16667C3.93056 14.1667 3.73264 14.2465 3.57292 14.4063C3.41319 14.566 3.33333 14.7639 3.33333 15C3.33333 15.2361 3.41319 15.434 3.57292 15.5938C3.73264 15.7535 3.93056 15.8333 4.16667 15.8333Z" fill="#9CA3AF"/>
</svg>
