<svg width="18" height="18" viewBox="0 0 18 18" fill="none" xmlns="http://www.w3.org/2000/svg">
<path d="M13.7569 17.2083L7.875 11.2778C7.55093 11.4074 7.2228 11.5046 6.89063 11.5694C6.55845 11.6343 6.20602 11.6667 5.83333 11.6667C4.21296 11.6667 2.83565 11.0995 1.70139 9.96528C0.56713 8.83102 0 7.4537 0 5.83333C0 5.25 0.0810185 4.69502 0.243056 4.1684C0.405093 3.64178 0.631944 3.14352 0.923611 2.67361L4.47222 6.22222L6.22222 4.47222L2.67361 0.923611C3.14352 0.631944 3.64178 0.405092 4.1684 0.243055C4.69502 0.0810182 5.25 -2.98023e-07 5.83333 -2.98023e-07C7.4537 -2.98023e-07 8.83102 0.567129 9.96528 1.70139C11.0995 2.83565 11.6667 4.21296 11.6667 5.83333C11.6667 6.20602 11.6343 6.55845 11.5694 6.89062C11.5046 7.2228 11.4074 7.55093 11.2778 7.875L17.2083 13.7569C17.4028 13.9514 17.5 14.1863 17.5 14.4618C17.5 14.7373 17.4028 14.9722 17.2083 15.1667L15.1667 17.2083C14.9722 17.4028 14.7373 17.5 14.4618 17.5C14.1863 17.5 13.9514 17.4028 13.7569 17.2083ZM14.4618 15.1424L15.1181 14.4861L8.89583 8.26389C9.1875 7.93981 9.39815 7.56308 9.52778 7.13368C9.65741 6.70428 9.72222 6.27083 9.72222 5.83333C9.72222 4.86111 9.4103 4.01447 8.78646 3.2934C8.16262 2.57234 7.38889 2.13889 6.46528 1.99306L8.26389 3.79167C8.45833 3.98611 8.55556 4.21296 8.55556 4.47222C8.55556 4.73148 8.45833 4.95833 8.26389 5.15278L5.15278 8.26389C4.95833 8.45833 4.73148 8.55556 4.47222 8.55556C4.21296 8.55556 3.98611 8.45833 3.79167 8.26389L1.99306 6.46528C2.13889 7.38889 2.57234 8.16262 3.2934 8.78646C4.01447 9.4103 4.86111 9.72222 5.83333 9.72222C6.25463 9.72222 6.67593 9.65741 7.09722 9.52778C7.51852 9.39815 7.89931 9.1956 8.23958 8.92014L14.4618 15.1424Z" fill="#CBD5E1"/>
</svg>
