<svg width="25" height="28" viewBox="0 0 25 28" fill="none" xmlns="http://www.w3.org/2000/svg">
<path d="M11.0377 20.8056H12.9822V19.8333H13.9544C14.2299 19.8333 14.4608 19.7402 14.6471 19.5538C14.8335 19.3675 14.9266 19.1366 14.9266 18.8611V15.9445C14.9266 15.669 14.8335 15.4381 14.6471 15.2517C14.4608 15.0654 14.2299 14.9722 13.9544 14.9722H11.0377V14H14.9266V12.0556H12.9822V11.0833H11.0377V12.0556H10.0655C9.79005 12.0556 9.55915 12.1487 9.3728 12.3351C9.18646 12.5214 9.09329 12.7523 9.09329 13.0278V15.9445C9.09329 16.2199 9.18646 16.4508 9.3728 16.6372C9.55915 16.8235 9.79005 16.9167 10.0655 16.9167H12.9822V17.8889H9.09329V19.8333H11.0377V20.8056ZM6.17662 23.7222C5.6419 23.7222 5.18415 23.5318 4.80336 23.151C4.42257 22.7703 4.23218 22.3125 4.23218 21.7778V6.22223C4.23218 5.68751 4.42257 5.22975 4.80336 4.84896C5.18415 4.46818 5.6419 4.27778 6.17662 4.27778H13.9544L19.7877 10.1111V21.7778C19.7877 22.3125 19.5973 22.7703 19.2166 23.151C18.8358 23.5318 18.378 23.7222 17.8433 23.7222H6.17662ZM12.9822 10.1111V6.22223H6.17662V21.7778H17.8433V10.1111H12.9822ZM6.17662 6.22223V10.1111V21.7778V6.22223Z" fill="#CBD5E1"/>
</svg>
