<svg width="22" height="19" viewBox="0 0 22 19" fill="none" xmlns="http://www.w3.org/2000/svg">
<path d="M2.91667 12.6389C2.10648 12.6389 1.41782 12.3553 0.850694 11.7882C0.283565 11.2211 0 10.5324 0 9.72223C0 8.91204 0.283565 8.22339 0.850694 7.65626C1.41782 7.08913 2.10648 6.80556 2.91667 6.80556V4.86112C2.91667 4.32639 3.10706 3.86864 3.48785 3.48785C3.86863 3.10707 4.32639 2.91667 4.86111 2.91667H7.77778C7.77778 2.10649 8.06134 1.41783 8.62847 0.8507C9.1956 0.28357 9.88426 5.05149e-06 10.6944 5.05149e-06C11.5046 5.05149e-06 12.1933 0.28357 12.7604 0.8507C13.3275 1.41783 13.6111 2.10649 13.6111 2.91667H16.5278C17.0625 2.91667 17.5203 3.10707 17.901 3.48785C18.2818 3.86864 18.4722 4.32639 18.4722 4.86112V6.80556C19.2824 6.80556 19.9711 7.08913 20.5382 7.65626C21.1053 8.22339 21.3889 8.91204 21.3889 9.72223C21.3889 10.5324 21.1053 11.2211 20.5382 11.7882C19.9711 12.3553 19.2824 12.6389 18.4722 12.6389V16.5278C18.4722 17.0625 18.2818 17.5203 17.901 17.901C17.5203 18.2818 17.0625 18.4722 16.5278 18.4722H4.86111C4.32639 18.4722 3.86863 18.2818 3.48785 17.901C3.10706 17.5203 2.91667 17.0625 2.91667 16.5278V12.6389ZM7.77778 10.6945C7.77778 10.6945 7.87905 10.6945 8.0816 10.6945C8.28414 10.6945 8.5272 10.5527 8.81076 10.2691C9.09433 9.98554 9.23611 9.64121 9.23611 9.23612C9.23611 8.83102 9.09433 8.4867 8.81076 8.20313C8.5272 7.91957 8.18287 7.77778 7.77778 7.77778C7.37269 7.77778 7.02836 7.91957 6.74479 8.20313C6.46123 8.4867 6.31944 8.83102 6.31944 9.23612C6.31944 9.64121 6.46123 9.98554 6.74479 10.2691C7.02836 10.5527 7.37269 10.6945 7.77778 10.6945ZM13.6111 10.6945C13.6111 10.6945 13.7124 10.6945 13.9149 10.6945C14.1175 10.6945 14.3605 10.5527 14.6441 10.2691C14.9277 9.98554 15.0694 9.64121 15.0694 9.23612C15.0694 8.83102 14.9277 8.4867 14.6441 8.20313C14.3605 7.91957 14.0162 7.77778 13.6111 7.77778C13.206 7.77778 12.8617 7.91957 12.5781 8.20313C12.2946 8.4867 12.1528 8.83102 12.1528 9.23612C12.1528 9.64121 12.2946 9.98554 12.5781 10.2691C12.8617 10.5527 13.206 10.6945 13.6111 10.6945ZM6.80556 14.5833H14.5833V12.6389H6.80556V14.5833ZM4.86111 16.5278H16.5278V4.86112H4.86111V16.5278Z" fill="white"/>
</svg>
