<svg width="20" height="24" viewBox="0 0 20 24" fill="none" xmlns="http://www.w3.org/2000/svg">
<path d="M1.66663 19.5V4.5H9.99996V7.83333H18.3333V19.5H1.66663ZM3.33329 17.8333H4.99996V16.1667H3.33329V17.8333ZM3.33329 14.5H4.99996V12.8333H3.33329V14.5ZM3.33329 11.1667H4.99996V9.5H3.33329V11.1667ZM3.33329 7.83333H4.99996V6.16667H3.33329V7.83333ZM6.66663 17.8333H8.33329V16.1667H6.66663V17.8333ZM6.66663 14.5H8.33329V12.8333H6.66663V14.5ZM6.66663 11.1667H8.33329V9.5H6.66663V11.1667ZM6.66663 7.83333H8.33329V6.16667H6.66663V7.83333ZM9.99996 17.8333H16.6666V9.5H9.99996V11.1667H11.6666V12.8333H9.99996V14.5H11.6666V16.1667H9.99996V17.8333ZM13.3333 12.8333V11.1667H15V12.8333H13.3333ZM13.3333 16.1667V14.5H15V16.1667H13.3333Z" fill="#9CA3AF"/>
</svg>
