<svg width="25" height="28" viewBox="0 0 25 28" fill="none" xmlns="http://www.w3.org/2000/svg">
<path d="M11.8884 21.7778C11.9532 21.7778 12.0181 21.7616 12.0829 21.7292C12.1477 21.6968 12.1963 21.6644 12.2287 21.632L20.2009 13.6597C20.3954 13.4653 20.5372 13.2465 20.6263 13.0035C20.7154 12.7604 20.76 12.5174 20.76 12.2743C20.76 12.0151 20.7154 11.7679 20.6263 11.533C20.5372 11.298 20.3954 11.0914 20.2009 10.9132L16.069 6.78126C15.8907 6.58681 15.6841 6.44503 15.4492 6.35591C15.2142 6.26679 14.9671 6.22223 14.7079 6.22223C14.4648 6.22223 14.2218 6.26679 13.9787 6.35591C13.7356 6.44503 13.5169 6.58681 13.3225 6.78126L13.0551 7.04862L14.8537 8.87153C15.0968 9.09839 15.275 9.35765 15.3884 9.64931C15.5019 9.94098 15.5586 10.2488 15.5586 10.5729C15.5586 11.2535 15.3277 11.8247 14.8659 12.2865C14.4041 12.7483 13.8329 12.9792 13.1523 12.9792C12.8282 12.9792 12.5163 12.9225 12.2166 12.809C11.9168 12.6956 11.6535 12.5255 11.4266 12.2986L9.6037 10.5L5.35023 14.7535C5.30162 14.8021 5.26516 14.8548 5.24086 14.9115C5.21655 14.9682 5.2044 15.0289 5.2044 15.0938C5.2044 15.2234 5.25301 15.3409 5.35023 15.4462C5.44745 15.5515 5.56088 15.6042 5.69051 15.6042C5.75532 15.6042 5.82014 15.588 5.88495 15.5556C5.94977 15.5232 5.99838 15.4907 6.03079 15.4583L9.33634 12.1528L10.6975 13.5139L7.4162 16.8195C7.36759 16.8681 7.33113 16.9207 7.30683 16.9774C7.28252 17.0342 7.27037 17.0949 7.27037 17.1597C7.27037 17.2894 7.31898 17.4028 7.4162 17.5C7.51343 17.5972 7.62685 17.6458 7.75648 17.6458C7.8213 17.6458 7.88611 17.6296 7.95093 17.5972C8.01574 17.5648 8.06435 17.5324 8.09676 17.5L11.4023 14.2188L12.7634 15.5799L9.48218 18.8854C9.43356 18.9178 9.39711 18.9664 9.3728 19.0313C9.3485 19.0961 9.33634 19.1609 9.33634 19.2257C9.33634 19.3553 9.38495 19.4688 9.48218 19.566C9.5794 19.6632 9.69282 19.7118 9.82245 19.7118C9.88727 19.7118 9.94803 19.6997 10.0047 19.6754C10.0615 19.651 10.1141 19.6146 10.1627 19.566L13.4683 16.2847L14.8294 17.6458L11.5238 20.9514C11.4752 21 11.4388 21.0527 11.4145 21.1094C11.3902 21.1661 11.378 21.2269 11.378 21.2917C11.378 21.4213 11.4307 21.5347 11.536 21.632C11.6413 21.7292 11.7588 21.7778 11.8884 21.7778ZM11.8641 23.7222C11.2646 23.7222 10.7339 23.5237 10.2721 23.1267C9.8103 22.7298 9.53889 22.2315 9.45787 21.632C8.90694 21.5509 8.44514 21.3241 8.07245 20.9514C7.69977 20.5787 7.47292 20.1169 7.3919 19.566C6.84097 19.485 6.38322 19.2541 6.01863 18.8733C5.65405 18.4925 5.43125 18.0347 5.35023 17.5C4.73449 17.419 4.23218 17.1516 3.84329 16.6979C3.4544 16.2442 3.25995 15.7095 3.25995 15.0938C3.25995 14.7697 3.32072 14.4578 3.44224 14.158C3.56377 13.8582 3.73796 13.5949 3.96481 13.3681L9.6037 7.75348L12.7877 10.9375C12.8201 10.9861 12.8688 11.0226 12.9336 11.0469C12.9984 11.0712 13.0632 11.0833 13.128 11.0833C13.2738 11.0833 13.3954 11.0388 13.4926 10.9497C13.5898 10.8605 13.6384 10.7431 13.6384 10.5972C13.6384 10.5324 13.6263 10.4676 13.602 10.4028C13.5777 10.338 13.5412 10.2894 13.4926 10.257L10.0169 6.78126C9.83866 6.58681 9.63206 6.44503 9.39711 6.35591C9.16215 6.26679 8.91505 6.22223 8.65579 6.22223C8.41273 6.22223 8.16968 6.26679 7.92662 6.35591C7.68356 6.44503 7.46481 6.58681 7.27037 6.78126L3.84329 10.2326C3.69745 10.3785 3.57593 10.5486 3.4787 10.7431C3.38148 10.9375 3.31667 11.132 3.28426 11.3264C3.25185 11.5208 3.25185 11.7193 3.28426 11.9219C3.31667 12.1244 3.38148 12.3148 3.4787 12.4931L2.06898 13.9028C1.79352 13.5301 1.59097 13.121 1.46134 12.6754C1.33171 12.2298 1.2831 11.7801 1.31551 11.3264C1.34792 10.8727 1.46134 10.4311 1.65579 10.0017C1.85023 9.57234 2.11759 9.18751 2.45787 8.84723L5.88495 5.42015C6.27384 5.04746 6.70729 4.7639 7.1853 4.56945C7.66331 4.37501 8.15347 4.27778 8.65579 4.27778C9.1581 4.27778 9.64826 4.37501 10.1263 4.56945C10.6043 4.7639 11.0296 5.04746 11.4023 5.42015L11.6697 5.68751L11.937 5.42015C12.3259 5.04746 12.7594 4.7639 13.2374 4.56945C13.7154 4.37501 14.2056 4.27778 14.7079 4.27778C15.2102 4.27778 15.7003 4.37501 16.1784 4.56945C16.6564 4.7639 17.0817 5.04746 17.4544 5.42015L21.562 9.52778C21.9347 9.90047 22.2183 10.3299 22.4127 10.816C22.6072 11.3021 22.7044 11.7963 22.7044 12.2986C22.7044 12.8009 22.6072 13.2911 22.4127 13.7691C22.2183 14.2471 21.9347 14.6725 21.562 15.0451L13.5898 22.9931C13.363 23.2199 13.0997 23.3982 12.7999 23.5278C12.5001 23.6574 12.1882 23.7222 11.8641 23.7222Z" fill="#CBD5E1"/>
</svg>
