<svg width="20" height="24" viewBox="0 0 20 24" fill="none" xmlns="http://www.w3.org/2000/svg">
<path d="M10 12C10 12 9.77087 12 9.31254 12C8.85421 12 8.29865 11.6736 7.64587 11.0208C6.9931 10.368 6.66671 9.58332 6.66671 8.66666C6.66671 7.74999 6.9931 6.96527 7.64587 6.31249C8.29865 5.65971 9.08337 5.33332 10 5.33332C10.9167 5.33332 11.7014 5.65971 12.3542 6.31249C13.007 6.96527 13.3334 7.74999 13.3334 8.66666C13.3334 9.58332 13.007 10.368 12.3542 11.0208C11.7014 11.6736 10.9167 12 10 12ZM3.33337 18.6667V16.3333C3.33337 15.8611 3.4549 15.4271 3.69796 15.0312C3.94101 14.6354 4.26393 14.3333 4.66671 14.125C5.52782 13.6944 6.40282 13.3715 7.29171 13.1562C8.1806 12.941 9.08337 12.8333 10 12.8333C10.9167 12.8333 11.8195 12.941 12.7084 13.1562C13.5973 13.3715 14.4723 13.6944 15.3334 14.125C15.7362 14.3333 16.0591 14.6354 16.3021 15.0312C16.5452 15.4271 16.6667 15.8611 16.6667 16.3333V18.6667H3.33337ZM5.00004 17H15V16.3333C15 16.1805 14.9618 16.0417 14.8855 15.9167C14.8091 15.7917 14.7084 15.6944 14.5834 15.625C13.8334 15.25 13.0764 14.9687 12.3125 14.7812C11.5487 14.5937 10.7778 14.5 10 14.5C9.22226 14.5 8.45143 14.5937 7.68754 14.7812C6.92365 14.9687 6.16671 15.25 5.41671 15.625C5.29171 15.6944 5.19101 15.7917 5.11462 15.9167C5.03824 16.0417 5.00004 16.1805 5.00004 16.3333V17ZM10 10.3333C10 10.3333 10.1146 10.3333 10.3438 10.3333C10.573 10.3333 10.8507 10.1701 11.1771 9.84374C11.5035 9.51735 11.6667 9.12499 11.6667 8.66666C11.6667 8.20832 11.5035 7.81596 11.1771 7.48957C10.8507 7.16318 10.4584 6.99999 10 6.99999C9.54171 6.99999 9.14935 7.16318 8.82296 7.48957C8.49657 7.81596 8.33337 8.20832 8.33337 8.66666C8.33337 9.12499 8.49657 9.51735 8.82296 9.84374C9.14935 10.1701 9.54171 10.3333 10 10.3333Z" fill="#9CA3AF"/>
</svg>
