<svg width="14" height="14" viewBox="0 0 14 14" fill="none" xmlns="http://www.w3.org/2000/svg">
<path d="M6.66667 6.66668C6.66667 6.66668 6.4375 6.66668 5.97917 6.66668C5.52083 6.66668 4.96528 6.34029 4.3125 5.68751C3.65972 5.03473 3.33333 4.25001 3.33333 3.33334C3.33333 2.41668 3.65972 1.63195 4.3125 0.979176C4.96528 0.326399 5.75 9.77516e-06 6.66667 9.77516e-06C7.58333 9.77516e-06 8.36806 0.326399 9.02083 0.979176C9.67361 1.63195 10 2.41668 10 3.33334C10 4.25001 9.67361 5.03473 9.02083 5.68751C8.36806 6.34029 7.58333 6.66668 6.66667 6.66668ZM0 13.3333V11C0 10.5278 0.121528 10.0938 0.364583 9.69793C0.607639 9.30209 0.930556 9.00001 1.33333 8.79168C2.19444 8.36112 3.06944 8.0382 3.95833 7.82293C4.84722 7.60765 5.75 7.50001 6.66667 7.50001C7.58333 7.50001 8.48611 7.60765 9.375 7.82293C10.2639 8.0382 11.1389 8.36112 12 8.79168C12.4028 9.00001 12.7257 9.30209 12.9688 9.69793C13.2118 10.0938 13.3333 10.5278 13.3333 11V13.3333H0ZM1.66667 11.6667H11.6667V11C11.6667 10.8472 11.6285 10.7083 11.5521 10.5833C11.4757 10.4583 11.375 10.3611 11.25 10.2917C10.5 9.91668 9.74306 9.63543 8.97917 9.44793C8.21528 9.26043 7.44444 9.16668 6.66667 9.16668C5.88889 9.16668 5.11806 9.26043 4.35417 9.44793C3.59028 9.63543 2.83333 9.91668 2.08333 10.2917C1.95833 10.3611 1.85764 10.4583 1.78125 10.5833C1.70486 10.7083 1.66667 10.8472 1.66667 11V11.6667ZM6.66667 5.00001C6.66667 5.00001 6.78125 5.00001 7.01042 5.00001C7.23958 5.00001 7.51736 4.83682 7.84375 4.51043C8.17014 4.18404 8.33333 3.79168 8.33333 3.33334C8.33333 2.87501 8.17014 2.48265 7.84375 2.15626C7.51736 1.82987 7.125 1.66668 6.66667 1.66668C6.20833 1.66668 5.81597 1.82987 5.48958 2.15626C5.16319 2.48265 5 2.87501 5 3.33334C5 3.79168 5.16319 4.18404 5.48958 4.51043C5.81597 4.83682 6.20833 5.00001 6.66667 5.00001Z" fill="#9CA3AF"/>
</svg>
