<svg width="20" height="24" viewBox="0 0 20 24" fill="none" xmlns="http://www.w3.org/2000/svg">
<path d="M9.99996 20.3333C8.84718 20.3333 7.76385 20.1146 6.74996 19.6771C5.73607 19.2396 4.85413 18.6458 4.10413 17.8958C3.35413 17.1458 2.76038 16.2639 2.32288 15.25C1.88538 14.2361 1.66663 13.1528 1.66663 12C1.66663 10.8472 1.88538 9.7639 2.32288 8.75001C2.76038 7.73612 3.35413 6.85418 4.10413 6.10418C4.85413 5.35418 5.73607 4.76042 6.74996 4.32292C7.76385 3.88542 8.84718 3.66667 9.99996 3.66667C11.1527 3.66667 12.2361 3.88542 13.25 4.32292C14.2638 4.76042 15.1458 5.35418 15.8958 6.10418C16.6458 6.85418 17.2395 7.73612 17.677 8.75001C18.1145 9.7639 18.3333 10.8472 18.3333 12V13.2083C18.3333 14.0278 18.052 14.7257 17.4895 15.3021C16.927 15.8785 16.2361 16.1667 15.4166 16.1667C14.9305 16.1667 14.4722 16.0625 14.0416 15.8542C13.6111 15.6458 13.25 15.3472 12.9583 14.9583C12.5555 15.3611 12.1007 15.6632 11.5937 15.8646C11.0868 16.066 10.5555 16.1667 9.99996 16.1667C8.84718 16.1667 7.86454 15.7604 7.05204 14.9479C6.23954 14.1354 5.83329 13.1528 5.83329 12C5.83329 10.8472 6.23954 9.86459 7.05204 9.05209C7.86454 8.23959 8.84718 7.83334 9.99996 7.83334C11.1527 7.83334 12.1354 8.23959 12.9479 9.05209C13.7604 9.86459 14.1666 10.8472 14.1666 12V13.2083C14.1666 13.5695 14.2847 13.875 14.5208 14.125C14.7569 14.375 15.0555 14.5 15.4166 14.5C15.7777 14.5 16.0763 14.375 16.3125 14.125C16.5486 13.875 16.6666 13.5695 16.6666 13.2083V12C16.6666 10.1389 16.0208 8.56251 14.7291 7.27084C13.4375 5.97918 11.8611 5.33334 9.99996 5.33334C8.13885 5.33334 6.56246 5.97918 5.27079 7.27084C3.97913 8.56251 3.33329 10.1389 3.33329 12C3.33329 13.8611 3.97913 15.4375 5.27079 16.7292C6.56246 18.0208 8.13885 18.6667 9.99996 18.6667H14.1666V20.3333H9.99996ZM9.99996 14.5C9.99996 14.5 10.1736 14.5 10.5208 14.5C10.868 14.5 11.2847 14.257 11.7708 13.7708C12.2569 13.2847 12.5 12.6945 12.5 12C12.5 11.3056 12.2569 10.7153 11.7708 10.2292C11.2847 9.74306 10.6944 9.50001 9.99996 9.50001C9.30552 9.50001 8.71524 9.74306 8.22913 10.2292C7.74302 10.7153 7.49996 11.3056 7.49996 12C7.49996 12.6945 7.74302 13.2847 8.22913 13.7708C8.71524 14.257 9.30552 14.5 9.99996 14.5Z" fill="#9CA3AF"/>
</svg>
