<svg width="25" height="28" viewBox="0 0 25 28" fill="none" xmlns="http://www.w3.org/2000/svg">
<path d="M5.20229 22.7405C4.37625 22.7405 3.78911 22.3721 3.44087 21.6351C3.09264 20.8981 3.17767 20.2138 3.69598 19.5821L9.08956 13.0224V7.19146H8.11775C7.8424 7.19146 7.61159 7.09833 7.42533 6.91206C7.23906 6.7258 7.14593 6.49499 7.14593 6.21964C7.14593 5.94429 7.23906 5.71349 7.42533 5.52722C7.61159 5.34096 7.8424 5.24783 8.11775 5.24783H15.8923C16.1676 5.24783 16.3984 5.34096 16.5847 5.52722C16.771 5.71349 16.8641 5.94429 16.8641 6.21964C16.8641 6.49499 16.771 6.7258 16.5847 6.91206C16.3984 7.09833 16.1676 7.19146 15.8923 7.19146H14.9205V13.0224L20.3141 19.5821C20.8324 20.2138 20.9174 20.8981 20.5692 21.6351C20.2209 22.3721 19.6338 22.7405 18.8077 22.7405H5.20229ZM5.20229 20.7969H18.8077L12.9768 13.7026V7.19146H11.0332V13.7026L5.20229 20.7969Z" fill="white"/>
</svg>
