<svg width="20" height="24" viewBox="0 0 20 24" fill="none" xmlns="http://www.w3.org/2000/svg">
<path d="M5.83329 21.1667C5.37496 21.1667 4.9826 21.0035 4.65621 20.6771C4.32982 20.3507 4.16663 19.9583 4.16663 19.5V4.49999C4.16663 4.04166 4.32982 3.64929 4.65621 3.32291C4.9826 2.99652 5.37496 2.83332 5.83329 2.83332H14.1666C14.625 2.83332 15.0173 2.99652 15.3437 3.32291C15.6701 3.64929 15.8333 4.04166 15.8333 4.49999V7.08332C16.0833 7.18054 16.2847 7.33332 16.4375 7.54166C16.5902 7.74999 16.6666 7.9861 16.6666 8.24999V9.91666C16.6666 10.1805 16.5902 10.4167 16.4375 10.625C16.2847 10.8333 16.0833 10.9861 15.8333 11.0833V19.5C15.8333 19.9583 15.6701 20.3507 15.3437 20.6771C15.0173 21.0035 14.625 21.1667 14.1666 21.1667H5.83329ZM5.83329 19.5H14.1666V4.49999H5.83329V19.5ZM8.33329 18.6667H11.6666C11.9027 18.6667 12.1007 18.5868 12.2604 18.4271C12.4201 18.2674 12.5 18.0694 12.5 17.8333C12.5 17.5972 12.4201 17.3993 12.2604 17.2396C12.1007 17.0799 11.9027 17 11.6666 17H8.33329C8.09718 17 7.89926 17.0799 7.73954 17.2396C7.57982 17.3993 7.49996 17.5972 7.49996 17.8333C7.49996 18.0694 7.57982 18.2674 7.73954 18.4271C7.89926 18.5868 8.09718 18.6667 8.33329 18.6667Z" fill="#9CA3AF"/>
</svg>
