<svg width="25" height="28" viewBox="0 0 25 28" fill="none" xmlns="http://www.w3.org/2000/svg">
<path d="M4.23223 21.7778C3.6975 21.7778 3.23975 21.5874 2.85896 21.2066C2.47817 20.8258 2.28778 20.368 2.28778 19.8333V8.16666C2.28778 7.63194 2.47817 7.17418 2.85896 6.7934C3.23975 6.41261 3.6975 6.22222 4.23223 6.22222H19.7878C20.3225 6.22222 20.7803 6.41261 21.161 6.7934C21.5418 7.17418 21.7322 7.63194 21.7322 8.16666V19.8333C21.7322 20.368 21.5418 20.8258 21.161 21.2066C20.7803 21.5874 20.3225 21.7778 19.7878 21.7778H4.23223ZM12.01 14.9722L4.23223 10.1111V19.8333H19.7878V10.1111L12.01 14.9722ZM12.01 13.0278L19.7878 8.16666H4.23223L12.01 13.0278Z" fill="white"/>
</svg>
