<svg width="25" height="28" viewBox="0 0 25 28" fill="none" xmlns="http://www.w3.org/2000/svg">
<path d="M12.01 14C12.01 14 12.1437 14 12.4111 14C12.6784 14 13.0025 13.8096 13.3833 13.4288C13.7641 13.048 13.9545 12.5903 13.9545 12.0556C13.9545 11.5208 13.7641 11.0631 13.3833 10.6823C13.0025 10.3015 12.5447 10.1111 12.01 10.1111C11.4753 10.1111 11.0175 10.3015 10.6368 10.6823C10.256 11.0631 10.0656 11.5208 10.0656 12.0556C10.0656 12.5903 10.256 13.048 10.6368 13.4288C11.0175 13.8096 11.4753 14 12.01 14ZM12.01 21.1458C13.9869 19.331 15.4533 17.6823 16.4093 16.1997C17.3653 14.717 17.8434 13.4005 17.8434 12.25C17.8434 10.4838 17.2803 9.03762 16.1541 7.91146C15.028 6.78531 13.6466 6.22223 12.01 6.22223C10.3734 6.22223 8.99208 6.78531 7.86592 7.91146C6.73976 9.03762 6.17668 10.4838 6.17668 12.25C6.17668 13.4005 6.65469 14.717 7.61071 16.1997C8.56673 17.6823 10.0332 19.331 12.01 21.1458ZM12.01 23.7222C9.40122 21.5023 7.45272 19.4404 6.16453 17.5365C4.87634 15.6325 4.23224 13.8704 4.23224 12.25C4.23224 9.81945 5.01407 7.88311 6.57772 6.44098C8.14138 4.99885 9.95215 4.27778 12.01 4.27778C14.0679 4.27778 15.8787 4.99885 17.4423 6.44098C19.006 7.88311 19.7878 9.81945 19.7878 12.25C19.7878 13.8704 19.1437 15.6325 17.8555 17.5365C16.5673 19.4404 14.6188 21.5023 12.01 23.7222Z" fill="white"/>
</svg>
