<svg width="18" height="18" viewBox="0 0 18 18" fill="none" xmlns="http://www.w3.org/2000/svg">
<path d="M1.97134 17.4927C1.14529 17.4927 0.558152 17.1243 0.209917 16.3873C-0.138317 15.6503 -0.0532835 14.966 0.465019 14.3343L5.85861 7.77456V1.94366H4.88679C4.61144 1.94366 4.38063 1.85053 4.19437 1.66426C4.0081 1.478 3.91497 1.24719 3.91497 0.97184C3.91497 0.696492 4.0081 0.465685 4.19437 0.27942C4.38063 0.0931552 4.61144 2.27392e-05 4.88679 2.27392e-05H12.6613C12.9367 2.27392e-05 13.1675 0.0931552 13.3537 0.27942C13.54 0.465685 13.6331 0.696492 13.6331 0.97184C13.6331 1.24719 13.54 1.478 13.3537 1.66426C13.1675 1.85053 12.9367 1.94366 12.6613 1.94366H11.6895V7.77456L17.0831 14.3343C17.6014 14.966 17.6864 15.6503 17.3382 16.3873C16.99 17.1243 16.4028 17.4927 15.5768 17.4927H1.97134ZM1.97134 15.5491H15.5768L9.74588 8.45483V1.94366H7.80224V8.45483L1.97134 15.5491Z" fill="white"/>
</svg>
