<svg width="22" height="19" viewBox="0 0 22 19" fill="none" xmlns="http://www.w3.org/2000/svg">
<path d="M2.91667 12.6389C2.10648 12.6389 1.41782 12.3553 0.850694 11.7882C0.283565 11.2211 0 10.5324 0 9.72222C0 8.91204 0.283565 8.22338 0.850694 7.65625C1.41782 7.08912 2.10648 6.80556 2.91667 6.80556V4.86111C2.91667 4.32639 3.10706 3.86863 3.48785 3.48785C3.86863 3.10706 4.32639 2.91667 4.86111 2.91667H7.77778C7.77778 2.10648 8.06134 1.41782 8.62847 0.850694C9.1956 0.283564 9.88426 -6.70552e-07 10.6944 -6.70552e-07C11.5046 -6.70552e-07 12.1933 0.283564 12.7604 0.850694C13.3275 1.41782 13.6111 2.10648 13.6111 2.91667H16.5278C17.0625 2.91667 17.5203 3.10706 17.901 3.48785C18.2818 3.86863 18.4722 4.32639 18.4722 4.86111V6.80556C19.2824 6.80556 19.9711 7.08912 20.5382 7.65625C21.1053 8.22338 21.3889 8.91204 21.3889 9.72222C21.3889 10.5324 21.1053 11.2211 20.5382 11.7882C19.9711 12.3553 19.2824 12.6389 18.4722 12.6389V16.5278C18.4722 17.0625 18.2818 17.5203 17.901 17.901C17.5203 18.2818 17.0625 18.4722 16.5278 18.4722H4.86111C4.32639 18.4722 3.86863 18.2818 3.48785 17.901C3.10706 17.5203 2.91667 17.0625 2.91667 16.5278V12.6389ZM7.77778 10.6944C7.77778 10.6944 7.87905 10.6944 8.0816 10.6944C8.28414 10.6944 8.5272 10.5527 8.81076 10.2691C9.09433 9.98553 9.23611 9.6412 9.23611 9.23611C9.23611 8.83102 9.09433 8.48669 8.81076 8.20313C8.5272 7.91956 8.18287 7.77778 7.77778 7.77778C7.37269 7.77778 7.02836 7.91956 6.74479 8.20313C6.46123 8.48669 6.31944 8.83102 6.31944 9.23611C6.31944 9.6412 6.46123 9.98553 6.74479 10.2691C7.02836 10.5527 7.37269 10.6944 7.77778 10.6944ZM13.6111 10.6944C13.6111 10.6944 13.7124 10.6944 13.9149 10.6944C14.1175 10.6944 14.3605 10.5527 14.6441 10.2691C14.9277 9.98553 15.0694 9.6412 15.0694 9.23611C15.0694 8.83102 14.9277 8.48669 14.6441 8.20313C14.3605 7.91956 14.0162 7.77778 13.6111 7.77778C13.206 7.77778 12.8617 7.91956 12.5781 8.20313C12.2946 8.48669 12.1528 8.83102 12.1528 9.23611C12.1528 9.6412 12.2946 9.98553 12.5781 10.2691C12.8617 10.5527 13.206 10.6944 13.6111 10.6944ZM6.80556 14.5833H14.5833V12.6389H6.80556V14.5833ZM4.86111 16.5278H16.5278V4.86111H4.86111V16.5278Z" fill="#8B0000"/>
</svg>
