<svg width="16" height="20" viewBox="0 0 16 20" fill="none" xmlns="http://www.w3.org/2000/svg">
<path d="M6.80556 16.5278H8.75V15.5556H9.72222C9.99769 15.5556 10.2286 15.4624 10.4149 15.276C10.6013 15.0897 10.6944 14.8588 10.6944 14.5833V11.6667C10.6944 11.3912 10.6013 11.1603 10.4149 10.974C10.2286 10.7876 9.99769 10.6944 9.72222 10.6944H6.80556V9.72222H10.6944V7.77778H8.75V6.80555H6.80556V7.77778H5.83333C5.55787 7.77778 5.32697 7.87095 5.14063 8.05729C4.95428 8.24363 4.86111 8.47454 4.86111 8.75V11.6667C4.86111 11.9421 4.95428 12.173 5.14063 12.3594C5.32697 12.5457 5.55787 12.6389 5.83333 12.6389H8.75V13.6111H4.86111V15.5556H6.80556V16.5278ZM1.94444 19.4444C1.40972 19.4444 0.951968 19.254 0.571181 18.8733C0.190394 18.4925 0 18.0347 0 17.5V1.94444C0 1.40972 0.190394 0.951966 0.571181 0.571179C0.951968 0.190391 1.40972 -2.02656e-06 1.94444 -2.02656e-06H9.72222L15.5556 5.83333V17.5C15.5556 18.0347 15.3652 18.4925 14.9844 18.8733C14.6036 19.254 14.1458 19.4444 13.6111 19.4444H1.94444ZM8.75 5.83333V1.94444H1.94444V17.5H13.6111V5.83333H8.75ZM1.94444 1.94444V5.83333V17.5V1.94444Z" fill="#CBD5E1"/>
</svg>
