<svg width="25" height="28" viewBox="0 0 25 28" fill="none" xmlns="http://www.w3.org/2000/svg">
<path d="M19.7392 22.75C17.7137 22.75 15.7126 22.3084 13.7357 21.4253C11.7589 20.5422 9.96024 19.2905 8.33987 17.6701C6.7195 16.0498 5.46776 14.2512 4.58466 12.2743C3.70156 10.2975 3.26001 8.2963 3.26001 6.27083C3.26001 5.97917 3.35723 5.73611 3.55168 5.54167C3.74612 5.34722 3.98918 5.25 4.28084 5.25H8.21834C8.4452 5.25 8.64774 5.32697 8.82598 5.4809C9.00422 5.63484 9.10955 5.81713 9.14195 6.02778L9.7739 9.43056C9.80631 9.68981 9.7982 9.90856 9.74959 10.0868C9.70098 10.265 9.61186 10.419 9.48223 10.5486L7.12459 12.9306C7.44867 13.5301 7.83351 14.1094 8.27911 14.6684C8.72471 15.2274 9.21487 15.7662 9.74959 16.2847C10.2519 16.787 10.7785 17.2529 11.3295 17.6823C11.8804 18.1117 12.4637 18.5046 13.0795 18.8611L15.3642 16.5764C15.51 16.4306 15.7004 16.3212 15.9354 16.2483C16.1703 16.1753 16.4012 16.1551 16.6281 16.1875L19.9822 16.8681C20.2091 16.9329 20.3954 17.0503 20.5413 17.2205C20.6871 17.3906 20.76 17.581 20.76 17.7917V21.7292C20.76 22.0208 20.6628 22.2639 20.4683 22.4583C20.2739 22.6528 20.0308 22.75 19.7392 22.75ZM6.20098 11.0833L7.80515 9.47917L7.39195 7.19444H5.22876C5.30978 7.8588 5.4232 8.51505 5.56904 9.16319C5.71487 9.81134 5.92552 10.4514 6.20098 11.0833ZM14.9024 19.7847C15.5343 20.0602 16.1784 20.2789 16.8347 20.441C17.4909 20.603 18.1512 20.7083 18.8156 20.7569V18.6181L16.5308 18.1562L14.9024 19.7847Z" fill="white"/>
</svg>
