<svg width="22" height="20" viewBox="0 0 22 20" fill="none" xmlns="http://www.w3.org/2000/svg">
<path d="M10.5826 17.5C10.6475 17.5 10.7123 17.4838 10.7771 17.4514C10.8419 17.419 10.8905 17.3866 10.9229 17.3542L18.8951 9.38194C19.0896 9.1875 19.2314 8.96875 19.3205 8.72569C19.4096 8.48264 19.4542 8.23958 19.4542 7.99653C19.4542 7.73727 19.4096 7.49016 19.3205 7.25521C19.2314 7.02025 19.0896 6.81366 18.8951 6.63541L14.7632 2.50347C14.585 2.30903 14.3784 2.16724 14.1434 2.07812C13.9085 1.989 13.6613 1.94444 13.4021 1.94444C13.159 1.94444 12.916 1.989 12.6729 2.07812C12.4299 2.16724 12.2111 2.30903 12.0167 2.50347L11.7493 2.77083L13.5479 4.59375C13.791 4.8206 13.9692 5.07986 14.0826 5.37153C14.1961 5.66319 14.2528 5.97106 14.2528 6.29514C14.2528 6.97569 14.0219 7.54687 13.5601 8.00868C13.0983 8.47048 12.5271 8.70139 11.8465 8.70139C11.5225 8.70139 11.2105 8.64467 10.9108 8.53125C10.611 8.41782 10.3477 8.24768 10.1208 8.02083L8.29792 6.22222L4.04444 10.4757C3.99583 10.5243 3.95938 10.577 3.93507 10.6337C3.91076 10.6904 3.89861 10.7512 3.89861 10.816C3.89861 10.9456 3.94722 11.0631 4.04444 11.1684C4.14167 11.2737 4.25509 11.3264 4.38472 11.3264C4.44954 11.3264 4.51435 11.3102 4.57917 11.2778C4.64398 11.2454 4.69259 11.213 4.725 11.1806L8.03056 7.875L9.39167 9.23611L6.11042 12.5417C6.06181 12.5903 6.02535 12.6429 6.00104 12.6997C5.97674 12.7564 5.96458 12.8171 5.96458 12.8819C5.96458 13.0116 6.01319 13.125 6.11042 13.2222C6.20764 13.3194 6.32107 13.3681 6.45069 13.3681C6.51551 13.3681 6.58032 13.3519 6.64514 13.3194C6.70995 13.287 6.75857 13.2546 6.79097 13.2222L10.0965 9.94097L11.4576 11.3021L8.17639 14.6076C8.12778 14.64 8.09132 14.6887 8.06701 14.7535C8.04271 14.8183 8.03056 14.8831 8.03056 14.9479C8.03056 15.0775 8.07917 15.191 8.17639 15.2882C8.27361 15.3854 8.38704 15.434 8.51667 15.434C8.58148 15.434 8.64225 15.4219 8.69896 15.3976C8.75567 15.3733 8.80833 15.3368 8.85695 15.2882L12.1625 12.0069L13.5236 13.3681L10.2181 16.6736C10.1694 16.7222 10.133 16.7749 10.1087 16.8316C10.0844 16.8883 10.0722 16.9491 10.0722 17.0139C10.0722 17.1435 10.1249 17.2569 10.2302 17.3542C10.3355 17.4514 10.453 17.5 10.5826 17.5ZM10.5583 19.4444C9.9588 19.4444 9.42813 19.2459 8.96632 18.849C8.50451 18.452 8.2331 17.9537 8.15208 17.3542C7.60116 17.2731 7.13935 17.0463 6.76667 16.6736C6.39398 16.3009 6.16713 15.8391 6.08611 15.2882C5.53519 15.2072 5.07743 14.9763 4.71285 14.5955C4.34826 14.2147 4.12546 13.7569 4.04444 13.2222C3.4287 13.1412 2.92639 12.8738 2.5375 12.4201C2.14861 11.9664 1.95417 11.4317 1.95417 10.816C1.95417 10.4919 2.01493 10.18 2.13646 9.88021C2.25799 9.58044 2.43218 9.31713 2.65903 9.09028L8.29792 3.47569L11.4819 6.65972C11.5144 6.70833 11.563 6.74479 11.6278 6.7691C11.6926 6.7934 11.7574 6.80555 11.8222 6.80555C11.9681 6.80555 12.0896 6.76099 12.1868 6.67187C12.284 6.58275 12.3326 6.46528 12.3326 6.31944C12.3326 6.25463 12.3205 6.18981 12.2962 6.125C12.2719 6.06018 12.2354 6.01157 12.1868 5.97916L8.71111 2.50347C8.53287 2.30903 8.32627 2.16724 8.09132 2.07812C7.85637 1.989 7.60926 1.94444 7.35 1.94444C7.10694 1.94444 6.86389 1.989 6.62083 2.07812C6.37778 2.16724 6.15903 2.30903 5.96458 2.50347L2.5375 5.95486C2.39167 6.10069 2.27014 6.27083 2.17292 6.46528C2.07569 6.65972 2.01088 6.85416 1.97847 7.04861C1.94607 7.24305 1.94607 7.44155 1.97847 7.6441C2.01088 7.84664 2.07569 8.03704 2.17292 8.21528L0.763195 9.625C0.487732 9.25231 0.285185 8.84317 0.155556 8.39757C0.0259259 7.95197 -0.0226852 7.50231 0.00972222 7.04861C0.0421296 6.59491 0.155556 6.15335 0.35 5.72396C0.544444 5.29456 0.811806 4.90972 1.15208 4.56944L4.57917 1.14236C4.96806 0.769674 5.40151 0.486109 5.87951 0.291665C6.35752 0.0972202 6.84769 -2.02656e-06 7.35 -2.02656e-06C7.85232 -2.02656e-06 8.34248 0.0972202 8.82049 0.291665C9.2985 0.486109 9.72384 0.769674 10.0965 1.14236L10.3639 1.40972L10.6313 1.14236C11.0201 0.769674 11.4536 0.486109 11.9316 0.291665C12.4096 0.0972202 12.8998 -2.02656e-06 13.4021 -2.02656e-06C13.9044 -2.02656e-06 14.3946 0.0972202 14.8726 0.291665C15.3506 0.486109 15.7759 0.769674 16.1486 1.14236L20.2563 5.25C20.6289 5.62268 20.9125 6.05208 21.1069 6.53819C21.3014 7.0243 21.3986 7.51852 21.3986 8.02083C21.3986 8.52315 21.3014 9.01331 21.1069 9.49132C20.9125 9.96933 20.6289 10.3947 20.2563 10.7674L12.284 18.7153C12.0572 18.9421 11.7939 19.1204 11.4941 19.25C11.1943 19.3796 10.8824 19.4444 10.5583 19.4444Z" fill="#CBD5E1"/>
</svg>
