<svg width="17" height="17" viewBox="0 0 17 17" fill="none" xmlns="http://www.w3.org/2000/svg">
<path d="M8.33333 16.6667C7.18056 16.6667 6.09722 16.4479 5.08333 16.0104C4.06944 15.5729 3.1875 14.9792 2.4375 14.2292C1.6875 13.4792 1.09375 12.5972 0.65625 11.5833C0.21875 10.5694 0 9.4861 0 8.33332C0 7.18054 0.21875 6.09721 0.65625 5.08332C1.09375 4.06943 1.6875 3.18749 2.4375 2.43749C3.1875 1.68749 4.06944 1.09374 5.08333 0.656238C6.09722 0.218738 7.18056 -1.21593e-05 8.33333 -1.21593e-05C9.48611 -1.21593e-05 10.5694 0.218738 11.5833 0.656238C12.5972 1.09374 13.4792 1.68749 14.2292 2.43749C14.9792 3.18749 15.5729 4.06943 16.0104 5.08332C16.4479 6.09721 16.6667 7.18054 16.6667 8.33332V9.54166C16.6667 10.3611 16.3854 11.059 15.8229 11.6354C15.2604 12.2118 14.5694 12.5 13.75 12.5C13.2639 12.5 12.8056 12.3958 12.375 12.1875C11.9444 11.9792 11.5833 11.6805 11.2917 11.2917C10.8889 11.6944 10.434 11.9965 9.92708 12.1979C9.42014 12.3993 8.88889 12.5 8.33333 12.5C7.18056 12.5 6.19792 12.0937 5.38542 11.2812C4.57292 10.4687 4.16667 9.4861 4.16667 8.33332C4.16667 7.18054 4.57292 6.19791 5.38542 5.38541C6.19792 4.57291 7.18056 4.16666 8.33333 4.16666C9.48611 4.16666 10.4688 4.57291 11.2813 5.38541C12.0938 6.19791 12.5 7.18054 12.5 8.33332V9.54166C12.5 9.90277 12.6181 10.2083 12.8542 10.4583C13.0903 10.7083 13.3889 10.8333 13.75 10.8333C14.1111 10.8333 14.4097 10.7083 14.6458 10.4583C14.8819 10.2083 15 9.90277 15 9.54166V8.33332C15 6.47221 14.3542 4.89582 13.0625 3.60415C11.7708 2.31249 10.1944 1.66665 8.33333 1.66665C6.47222 1.66665 4.89583 2.31249 3.60417 3.60415C2.3125 4.89582 1.66667 6.47221 1.66667 8.33332C1.66667 10.1944 2.3125 11.7708 3.60417 13.0625C4.89583 14.3542 6.47222 15 8.33333 15H12.5V16.6667H8.33333ZM8.33333 10.8333C8.33333 10.8333 8.50695 10.8333 8.85417 10.8333C9.20139 10.8333 9.61806 10.5903 10.1042 10.1042C10.5903 9.61804 10.8333 9.02777 10.8333 8.33332C10.8333 7.63888 10.5903 7.0486 10.1042 6.56249C9.61806 6.07638 9.02778 5.83332 8.33333 5.83332C7.63889 5.83332 7.04861 6.07638 6.5625 6.56249C6.07639 7.0486 5.83333 7.63888 5.83333 8.33332C5.83333 9.02777 6.07639 9.61804 6.5625 10.1042C7.04861 10.5903 7.63889 10.8333 8.33333 10.8333Z" fill="#9CA3AF"/>
</svg>
